<svg width="256" height="256" viewBox="0 0 256 256" xmlns="http://www.w3.org/2000/svg">
  <defs>
    <clipPath id="ballclip_190_198">
      <circle cx="190" cy="198" r="38"/>
    </clipPath>
  </defs>
  <rect width="256" height="256" rx="52" fill="#0f1629"/>
  <rect x="44" y="68" width="168" height="140" rx="16" fill="none" stroke="#00d68f" stroke-width="12"/>
  <rect x="44" y="68" width="168" height="52" rx="16" fill="#00d68f"/>
  <rect x="44" y="96" width="168" height="24" fill="#00d68f"/>
  <rect x="88" y="40" width="16" height="44" rx="8" fill="#00b377"/>
  <rect x="152" y="40" width="16" height="44" rx="8" fill="#00b377"/>
  <text x="128" y="112" text-anchor="middle" font-family="Arial,sans-serif" font-weight="800" font-size="30" fill="#0f1629">12</text>
  <circle cx="88" cy="154" r="7" fill="#00d68f" opacity="0.5"/>
  <circle cx="128" cy="154" r="7" fill="#00d68f" opacity="0.5"/>
  <circle cx="168" cy="154" r="7" fill="#00d68f" opacity="0.5"/>
  <circle cx="88" cy="186" r="7" fill="#00d68f" opacity="0.3"/>
  <circle cx="128" cy="186" r="7" fill="#00d68f" opacity="0.3"/>
  <circle cx="168" cy="186" r="7" fill="#00d68f" opacity="0.15"/>
  <circle cx="190" cy="198" r="44" fill="#0f1629"/>
  <circle cx="190" cy="198" r="38" fill="#0a1a0f" stroke="#00d68f" stroke-width="5"/>
  <g clip-path="url(#ballclip_190_198)">
    <line x1="152" y1="198" x2="228" y2="198" stroke="#00d68f" stroke-width="5" stroke-linecap="round"/>
    <line x1="190" y1="160" x2="190" y2="236" stroke="#00d68f" stroke-width="5" stroke-linecap="round"/>
    <path d="M 167 160 Q 183 198 167 236" fill="none" stroke="#00d68f" stroke-width="5" stroke-linecap="round"/>
    <path d="M 213 160 Q 197 198 213 236" fill="none" stroke="#00d68f" stroke-width="5" stroke-linecap="round"/>
  </g>
  <circle cx="190" cy="198" r="38" fill="none" stroke="#00d68f" stroke-width="5"/>
</svg>