<svg version="1.1" id="Layer_1" xmlns="http://www.w3.org/2000/svg" xmlns:xlink="http://www.w3.org/1999/xlink" x="0px" y="0px"
	 width="100%" viewBox="0 0 1223 1286" enable-background="new 0 0 1223 1286" xml:space="preserve">

<path fill="#0AE290" opacity="1.000000" stroke="none" 
	d="
M324.003479,283.068115 
	C331.690460,281.844727 339.339691,280.085785 347.074463,279.539948 
	C355.808929,278.923645 364.620361,279.397919 373.885315,279.397919 
	C373.380646,288.431213 374.586060,296.444611 370.009949,304.885162 
	C355.445190,331.749725 373.751953,366.601593 405.166443,373.451355 
	C434.327332,379.809753 463.762756,358.363678 466.446716,328.775574 
	C467.286682,319.515930 465.497162,310.674927 460.237335,303.072083 
	C457.353912,298.904205 456.415253,294.844696 456.726013,290.072662 
	C456.941925,286.756622 456.833954,283.419434 457.425537,279.658844 
	C460.646179,279.258057 463.311981,279.317780 465.977783,279.318176 
	C572.626160,279.333313 679.274536,279.343079 785.922974,279.353516 
	C785.976990,284.847992 786.116821,290.343933 786.025818,295.835999 
	C786.002502,297.242523 785.550598,298.831909 784.788208,300.008484 
	C766.513611,328.209900 783.677429,366.083984 817.607910,373.383514 
	C849.642761,380.275208 880.805359,354.663849 878.957886,322.421692 
	C878.608643,316.326050 876.544434,309.891327 873.621338,304.509338 
	C870.948669,299.588409 869.427795,294.985535 869.782959,289.525848 
	C869.987061,286.388214 869.819946,283.226410 869.819946,280.135193 
	C938.225586,270.820618 987.043213,308.374512 992.180176,369.685425 
	C991.573059,372.591156 991.060852,374.687988 991.041565,376.789337 
	C990.943115,387.527161 990.971802,398.266113 990.646118,409.186157 
	C989.553894,412.351929 988.807190,415.346191 987.976257,418.316895 
	C987.469543,420.128235 986.832825,421.903229 986.254517,423.694550 
	C985.668091,423.623352 985.081665,423.552185 984.495239,423.481018 
	C983.983093,421.854156 983.292603,420.259796 982.989380,418.594879 
	C981.585571,410.885284 980.681091,410.063965 972.919495,409.654785 
	C970.066162,404.283142 966.027771,401.699371 960.551453,399.196503 
	C953.883240,396.148926 947.605835,395.960266 940.973999,396.157379 
	C938.567017,396.228943 935.641724,397.332581 933.939880,398.982971 
	C929.828735,402.969666 926.627869,408.072510 919.827637,407.583313 
	C919.569031,407.564728 919.258484,408.269623 918.473572,409.277710 
	C920.622559,409.878571 922.404602,410.536194 924.245300,410.854858 
	C927.142761,411.356415 930.079773,411.629913 932.677490,412.197998 
	C923.704895,413.330109 915.072693,414.531769 906.398926,415.109924 
	C899.968689,415.538544 893.455139,414.791779 887.038025,415.307068 
	C884.279602,415.528564 881.671448,417.619904 878.539490,418.933746 
	C874.390869,418.957275 870.697815,418.908783 866.849121,418.548065 
	C865.129333,417.413147 863.652222,416.232605 861.986511,415.827545 
	C853.104797,413.667999 844.209839,414.490234 835.394531,416.313629 
	C834.139343,416.573273 833.122498,417.985260 831.556152,418.935059 
	C828.746277,418.954712 826.375671,418.903290 823.839417,418.531769 
	C821.578552,417.476013 819.503479,416.180542 817.384460,416.104034 
	C809.283447,415.811584 800.999451,416.934662 793.096680,415.631622 
	C780.346008,413.529205 767.639099,412.894714 754.909363,414.179810 
	C748.842529,414.792267 742.960815,417.238739 736.531738,418.926147 
	C724.713867,418.947968 713.359558,418.898041 701.876160,418.513885 
	C701.022339,417.544128 700.347412,416.428528 699.565063,416.347229 
	C691.649658,415.524841 683.723511,414.771942 675.785095,414.220703 
	C672.676880,414.004883 669.482483,414.039459 666.411743,414.510529 
	C662.050903,415.179382 656.808655,413.656525 653.533081,418.916748 
	C648.049377,418.942810 643.027344,418.896606 637.888000,418.525635 
	C636.150818,417.180603 634.605896,415.440186 632.898193,415.262115 
	C624.551086,414.391785 616.164978,413.858490 607.782288,413.392456 
	C605.667969,413.274902 603.359680,413.438873 601.415466,414.187408 
	C598.159058,415.441193 595.123596,417.268860 591.532288,418.926422 
	C585.381348,418.944519 579.693298,418.891235 573.850220,418.528992 
	C571.822449,417.254486 569.989258,415.547607 568.070496,415.445312 
	C556.790710,414.844025 545.493042,414.502289 534.197327,414.298920 
	C524.743896,414.128723 515.284607,414.322205 505.828583,414.253998 
	C496.550568,414.187103 487.270935,413.794342 477.996643,413.911621 
	C468.894958,414.026703 459.801361,414.799744 450.699799,414.905823 
	C445.064575,414.971497 439.424530,414.165192 433.780518,414.048920 
	C426.002563,413.888672 418.212769,413.811981 410.438599,414.047424 
	C383.712067,414.856812 357.001465,412.846619 330.262909,413.886719 
	C315.124603,414.475555 299.944061,414.057953 284.784027,413.924591 
	C282.543549,413.904846 279.138885,413.667572 278.295746,412.291504 
	C275.795654,408.211060 273.056366,405.980011 268.062195,405.069000 
	C265.364685,404.576935 264.023590,403.376465 262.208099,406.240479 
	C260.148346,409.489746 258.794159,408.575439 256.458405,405.617279 
	C251.864594,399.799347 253.260635,393.367004 252.999023,386.566742 
	C253.005966,382.735168 253.011459,379.364929 253.329620,375.835693 
	C254.760971,372.290039 256.289825,368.978638 256.927368,365.503754 
	C259.713867,350.315857 264.261200,336.043274 275.009705,324.282196 
	C278.306946,320.674316 281.114319,316.311981 283.017151,311.817261 
	C285.202118,306.656128 288.415222,303.566742 293.596680,301.589386 
	C297.148438,300.233887 300.268463,297.647949 303.428436,295.397156 
	C305.858856,293.666016 307.838348,291.228455 310.396210,289.765778 
	C314.776306,287.261047 319.451935,285.273071 324.003479,283.068115 
M441.427948,394.908844 
	C436.912231,393.372986 433.411530,395.613708 429.718506,398.226440 
	C432.936523,399.756042 436.165131,400.788361 439.416077,400.864380 
	C443.770966,400.966248 444.329742,399.465942 441.427948,394.908844 
z"/>
<path fill="#07DF8E" opacity="1.000000" stroke="none" 
	d="
M973.000000,410.000000 
	C980.681091,410.063965 981.585571,410.885284 982.989380,418.594879 
	C983.292603,420.259796 983.983093,421.854156 984.495239,423.481018 
	C985.081665,423.552185 985.668091,423.623352 986.254517,423.694550 
	C986.832825,421.903229 987.469543,420.128235 987.976257,418.316895 
	C988.807190,415.346191 989.553894,412.351929 990.657959,409.654236 
	C990.988586,424.105560 991.005066,438.270325 991.005066,452.435059 
	C991.005310,606.747620 990.996216,761.060242 991.061157,915.372803 
	C991.062195,917.897217 991.960144,920.421204 992.439575,922.945435 
	C990.692871,959.596619 975.568909,989.800476 947.705750,1013.358765 
	C924.329956,1033.123169 897.213867,1042.534424 866.281006,1042.470703 
	C709.128845,1042.146851 551.975769,1042.265259 394.822998,1042.238403 
	C377.508148,1042.235352 360.112885,1043.212769 343.237366,1037.978638 
	C296.304901,1023.422241 266.387329,992.489929 253.895187,944.348206 
	C253.765533,943.178650 253.497955,942.598694 253.230377,942.018738 
	C253.151505,941.854919 253.072617,941.691040 253.202057,940.913086 
	C253.545593,934.404358 254.472473,928.397156 250.840424,922.636719 
	C250.799149,918.159363 250.873505,914.066406 251.271027,909.793823 
	C253.713013,906.576843 253.949615,903.680237 250.843475,900.786621 
	C250.807922,899.690857 250.881577,898.833679 251.173691,897.894897 
	C251.246246,897.216736 251.100357,896.620178 250.844925,895.645996 
	C250.805832,891.836243 250.876266,888.404175 251.231415,884.842346 
	C251.327698,883.484192 251.139267,882.255676 250.839966,880.645020 
	C250.817917,863.506714 250.906769,846.750732 251.322922,829.794922 
	C252.062622,823.965454 252.563400,818.339355 252.794754,812.702209 
	C252.830582,811.829224 251.632263,810.905579 250.893311,809.547974 
	C250.850174,801.725830 250.918396,794.361145 251.315323,786.797668 
	C252.049622,785.905212 252.798126,785.216492 252.808243,784.517151 
	C252.920563,776.746399 252.994293,768.972778 252.860199,761.203674 
	C252.841614,760.126709 251.644119,759.070129 250.881683,757.595825 
	C250.847458,751.123291 250.923965,745.059021 251.301361,738.828613 
	C253.609863,736.539368 253.490402,734.644470 250.883545,732.564941 
	C250.847717,729.415344 250.923386,726.705200 251.326141,723.794922 
	C252.102585,721.898132 252.941986,720.202148 252.944550,718.504883 
	C253.014877,671.746704 253.021561,624.988464 252.915131,578.230469 
	C252.911163,576.487427 251.667923,574.747192 250.889008,572.626526 
	C250.848984,568.830078 250.922150,565.412842 251.322617,561.795410 
	C252.098969,560.066528 252.936035,558.538635 252.939835,557.008728 
	C253.017548,525.745239 253.032196,494.481323 252.915863,463.218048 
	C252.909378,461.478058 251.662796,459.742615 250.882568,457.585938 
	C250.845505,455.443024 250.919266,453.719177 251.321289,451.796265 
	C252.087326,450.572754 252.894699,449.552124 252.905380,448.523224 
	C253.005157,438.919647 253.039444,429.313477 252.883652,419.711456 
	C252.863449,418.466278 251.657669,417.240356 250.889648,415.548035 
	C250.849976,405.725616 250.921753,396.360687 251.327576,386.999878 
	C252.106918,387.012054 252.552246,387.020050 252.997559,387.028076 
	C253.260635,393.367004 251.864594,399.799347 256.458405,405.617279 
	C258.794159,408.575439 260.148346,409.489746 262.208099,406.240479 
	C264.023590,403.376465 265.364685,404.576935 268.062195,405.069000 
	C273.056366,405.980011 275.795654,408.211060 278.295746,412.291504 
	C279.138885,413.667572 282.543549,413.904846 284.784027,413.924591 
	C299.944061,414.057953 315.124603,414.475555 330.262909,413.886719 
	C357.001465,412.846619 383.712067,414.856812 410.438599,414.047424 
	C418.212769,413.811981 426.002563,413.888672 433.780518,414.048920 
	C439.424530,414.165192 445.064575,414.971497 450.699799,414.905823 
	C459.801361,414.799744 468.894958,414.026703 477.996643,413.911621 
	C487.270935,413.794342 496.550568,414.187103 505.828583,414.253998 
	C515.284607,414.322205 524.743896,414.128723 534.197327,414.298920 
	C545.493042,414.502289 556.790710,414.844025 568.070496,415.445312 
	C569.989258,415.547607 571.822449,417.254486 573.386414,418.604797 
	C571.080933,419.004089 569.084229,419.031281 567.087524,419.031464 
	C469.408966,419.040497 371.730377,419.047241 273.728668,419.255188 
	C272.937469,421.806030 272.063385,424.155426 272.060638,426.505829 
	C271.988342,488.458282 272.007385,550.410828 272.008148,612.363403 
	C272.009338,712.120300 271.995575,811.877258 272.085449,911.634094 
	C272.087646,914.075928 273.232178,916.516785 273.979706,919.347168 
	C278.133057,951.631226 293.109192,977.192871 318.803741,996.396545 
	C334.604401,1008.205750 352.531433,1014.874634 372.297241,1017.599487 
	C374.761353,1018.250427 376.993347,1018.936218 379.226166,1018.938843 
	C432.350250,1019.001404 485.474457,1018.992249 538.598633,1018.984253 
	C540.143738,1018.984009 541.688904,1018.853638 543.698486,1018.762878 
	C542.832214,1018.084106 542.447693,1017.782837 542.334717,1017.337280 
	C542.754456,1017.116638 542.927063,1017.066101 543.043701,1016.956238 
	C543.153503,1016.852722 543.281189,1016.571655 543.270264,1016.564392 
	C542.219971,1015.862976 541.210876,1015.072693 540.087280,1014.512329 
	C507.304138,998.160950 481.827972,973.912231 464.879303,941.603027 
	C431.085571,877.182190 434.244019,813.742065 472.839111,752.275757 
	C508.921326,694.811401 581.670410,661.940979 648.461548,673.674683 
	C707.735718,684.087830 751.134155,717.395813 778.521484,770.581177 
	C823.552551,858.030090 789.283569,967.116577 702.763306,1014.490967 
	C701.466980,1015.200684 700.532837,1016.571716 699.460754,1017.903320 
	C700.551147,1018.444946 701.610168,1018.955078 702.669617,1018.955750 
	C757.459595,1018.991516 812.249512,1018.998901 867.039368,1018.909241 
	C868.675781,1018.906555 870.310547,1017.839600 872.346558,1017.135742 
	C907.995972,1012.689941 934.590637,994.768188 953.468079,965.123413 
	C961.821716,952.005127 966.013855,937.273071 968.530334,921.733276 
	C969.213684,919.448242 969.943848,917.390137 969.944519,915.331726 
	C969.996094,749.895325 969.990662,584.458862 969.955566,418.661072 
	C968.223145,414.522522 967.625916,411.153870 973.000000,410.000000 
M672.320557,1006.804810 
	C767.162109,972.859436 812.830933,860.374817 758.338928,768.889771 
	C707.133301,682.922180 592.320923,664.182129 517.165894,729.404480 
	C450.134918,787.576294 442.554199,891.727539 500.434509,959.275024 
	C543.415344,1009.434509 611.548950,1028.448853 672.320557,1006.804810 
z"/>
<path fill="#09E18F" opacity="1.000000" stroke="none" 
	d="
M441.168488,318.040527 
	C437.022858,330.798920 424.276642,338.715027 411.208740,336.647156 
	C397.808136,334.526672 388.013824,323.458130 387.968506,310.087738 
	C387.882233,284.621216 387.915009,259.154266 387.912537,233.687500 
	C387.911194,219.487350 396.129425,208.523987 408.787354,205.792450 
	C422.671112,202.796417 434.903900,209.037003 440.917389,222.919510 
	C440.811676,224.895004 440.852966,226.199814 440.852539,227.504608 
	C440.843689,256.246185 440.825104,284.987762 440.832581,313.729340 
	C440.832947,315.166443 441.051514,316.603455 441.168488,318.040527 
z"/>
<path fill="#09E18F" opacity="1.000000" stroke="none" 
	d="
M802.801636,220.947327 
	C808.381226,208.945984 821.002869,202.867722 834.329529,205.764282 
	C846.773560,208.468994 855.069458,218.908432 855.097046,232.153931 
	C855.150208,257.653687 855.159973,283.153748 855.089417,308.653442 
	C855.051880,322.214355 846.755127,332.891205 834.007874,336.116852 
	C821.652771,339.243256 809.718628,333.707794 803.075195,321.069458 
	C803.132507,310.275146 803.683411,300.185944 803.238464,289.999756 
	C802.356018,269.797913 802.979614,249.530563 802.963074,229.290298 
	C802.960815,226.509277 802.857971,223.728317 802.801636,220.947327 
z"/>
<path fill="#05FA9F" opacity="1.000000" stroke="none" 
	d="
M992.543213,922.490601 
	C991.960144,920.421204 991.062195,917.897217 991.061157,915.372803 
	C990.996216,761.060242 991.005310,606.747620 991.005066,452.435059 
	C991.005066,438.270325 990.988586,424.105560 990.967896,409.472748 
	C990.971802,398.266113 990.943115,387.527161 991.041565,376.789337 
	C991.060852,374.687988 991.573059,372.591156 992.090576,370.121643 
	C992.490173,371.896881 992.803345,374.042786 992.803223,376.188660 
	C992.796326,555.971741 992.765442,735.754761 992.732056,915.537842 
	C992.731689,917.703796 992.676514,919.869751 992.543213,922.490601 
z"/>
<path fill="#030016" opacity="1.000000" stroke="none" 
	d="
M250.947845,909.973511 
	C250.873505,914.066406 250.799149,918.159363 250.757019,923.027832 
	C250.748291,924.869507 250.707352,925.935608 250.666412,927.001709 
	C250.158783,926.973816 249.212631,926.979004 249.207687,926.913269 
	C249.082855,925.257141 249.019119,923.593567 249.019073,921.931335 
	C249.013702,740.252563 249.012985,558.573853 249.033005,376.895081 
	C249.033234,374.928314 249.307724,372.961487 249.476212,370.996552 
	C249.477646,370.979706 249.800308,370.945129 249.943451,370.998322 
	C250.088409,371.052246 250.196625,371.205017 250.542816,371.739166 
	C250.851807,372.775116 250.938934,373.386322 250.926010,374.451599 
	C250.881805,378.935638 250.937653,382.965698 250.993515,386.995728 
	C250.921753,396.360687 250.849976,405.725616 250.794891,415.957275 
	C250.880264,418.216949 250.948944,419.609894 250.907684,421.386841 
	C250.869278,425.846497 250.940796,429.922150 250.916534,434.457428 
	C250.878189,440.609802 250.935623,446.302582 250.993042,451.995361 
	C250.919266,453.719177 250.845505,455.443024 250.789307,458.045929 
	C250.877655,466.951111 250.948425,474.977173 250.909637,483.363342 
	C250.874283,486.480103 250.948486,489.236816 250.927612,492.454224 
	C250.896072,509.278168 250.959610,525.641418 250.913849,542.323730 
	C250.875717,544.427063 250.946884,546.211365 250.921570,548.452026 
	C250.881836,553.270752 250.938583,557.633179 250.995316,561.995544 
	C250.922150,565.412842 250.848984,568.830078 250.801239,572.955566 
	C250.888977,574.109497 250.951294,574.555298 250.904404,575.271851 
	C250.868210,576.694275 250.941238,577.845947 250.917862,579.457886 
	C250.886917,587.613037 250.952347,595.307983 250.910004,603.378784 
	C250.873978,607.168274 250.945724,610.582031 250.920258,614.455933 
	C250.803680,635.008789 250.748459,655.101440 250.776215,675.194031 
	C250.798676,691.461121 250.921005,707.728088 250.999054,723.995117 
	C250.923386,726.705200 250.847717,729.415344 250.788330,732.985229 
	C250.869919,735.561646 250.935196,737.278137 251.000488,738.994690 
	C250.923965,745.059021 250.847458,751.123291 250.786285,758.025208 
	C250.871277,760.908569 250.940918,762.954285 250.901642,765.298218 
	C250.866776,767.063293 250.940857,768.530151 250.918945,770.456360 
	C250.877502,776.275940 250.932068,781.636230 250.986618,786.996521 
	C250.918396,794.361145 250.850174,801.725830 250.797821,810.007324 
	C250.874329,817.281006 250.934967,823.637817 250.995605,829.994690 
	C250.906769,846.750732 250.817917,863.506714 250.743042,881.032227 
	C250.820236,882.858521 250.883469,883.915283 250.946686,884.972046 
	C250.876266,888.404175 250.805832,891.836243 250.755157,895.967285 
	C250.835022,897.102966 250.895126,897.539734 250.955246,897.976440 
	C250.881577,898.833679 250.807922,899.690857 250.745621,901.225098 
	C250.820602,904.592529 250.884232,907.283020 250.947845,909.973511 
z"/>
<path fill="#07DF8E" opacity="1.000000" stroke="none" 
	d="
M251.026062,373.997559 
	C250.938934,373.386322 250.851807,372.775116 250.694412,371.936768 
	C252.690521,354.509705 257.522095,338.268463 267.231140,323.710754 
	C280.877441,303.249542 299.691193,289.911591 323.610046,283.063721 
	C319.451935,285.273071 314.776306,287.261047 310.396210,289.765778 
	C307.838348,291.228455 305.858856,293.666016 303.428436,295.397156 
	C300.268463,297.647949 297.148438,300.233887 293.596680,301.589386 
	C288.415222,303.566742 285.202118,306.656128 283.017151,311.817261 
	C281.114319,316.311981 278.306946,320.674316 275.009705,324.282196 
	C264.261200,336.043274 259.713867,350.315857 256.927368,365.503754 
	C256.289825,368.978638 254.760971,372.290039 253.326202,375.530212 
	C252.930969,374.474091 252.851868,373.564484 252.727509,372.134491 
	C251.879608,373.062927 251.452835,373.530243 251.026062,373.997559 
z"/>
<path fill="#030016" opacity="1.000000" stroke="none" 
	d="
M785.592102,279.104065 
	C679.274536,279.343079 572.626160,279.333313 465.977783,279.318176 
	C463.311981,279.317780 460.646179,279.258057 457.515442,279.209961 
	C459.128021,278.796753 461.205322,278.053223 463.283020,278.052124 
	C568.666016,277.995483 674.049011,277.997589 779.432007,278.037537 
	C781.375244,278.038269 783.318176,278.570404 785.592102,279.104065 
z"/>
<path fill="#07CE8C" opacity="1.000000" stroke="none" 
	d="
M802.562866,221.205505 
	C802.857971,223.728317 802.960815,226.509277 802.963074,229.290298 
	C802.979614,249.530563 802.356018,269.797913 803.238464,289.999756 
	C803.683411,300.185944 803.132507,310.275146 803.009277,320.722534 
	C801.944763,317.382019 800.266785,313.733551 800.232605,310.069763 
	C799.989990,284.086914 799.998230,258.100311 800.171082,232.116562 
	C800.194702,228.560989 801.572998,225.014420 802.562866,221.205505 
z"/>
<path fill="#07CE8C" opacity="1.000000" stroke="none" 
	d="
M441.388489,317.735809 
	C441.051514,316.603455 440.832947,315.166443 440.832581,313.729340 
	C440.825104,284.987762 440.843689,256.246185 440.852539,227.504608 
	C440.852966,226.199814 440.811676,224.895004 440.969421,223.274567 
	C441.721680,226.023499 442.776337,229.085770 442.791046,232.153030 
	C442.914093,257.799469 442.883331,283.446991 442.781860,309.093719 
	C442.770844,311.874359 442.017487,314.652039 441.388489,317.735809 
z"/>
<path fill="#09EA95" opacity="1.000000" stroke="none" 
	d="
M250.767456,927.430298 
	C250.707352,925.935608 250.748291,924.869507 250.872650,923.412231 
	C254.472473,928.397156 253.545593,934.404358 253.220810,940.640930 
	C252.310318,936.608154 251.589401,932.233459 250.767456,927.430298 
z"/>
<path fill="#09EA95" opacity="1.000000" stroke="none" 
	d="
M253.201416,942.298706 
	C253.497955,942.598694 253.765533,943.178650 253.891876,943.942139 
	C253.557922,943.610046 253.365189,943.094360 253.201416,942.298706 
z"/>
<path fill="#061124" opacity="1.000000" stroke="none" 
	d="
M372.065552,1017.316101 
	C352.531433,1014.874634 334.604401,1008.205750 318.803741,996.396545 
	C293.109192,977.192871 278.133057,951.631226 274.023926,918.884155 
	C273.906860,916.032166 273.859192,914.032227 273.858917,912.032349 
	C273.842316,783.702698 273.811890,655.373108 273.827698,527.043457 
	C273.832123,491.047028 273.973358,455.050629 274.051819,419.054199 
	C371.730377,419.047241 469.408966,419.040497 567.087524,419.031464 
	C569.084229,419.031281 571.080933,419.004089 573.541382,418.913727 
	C579.693298,418.891235 585.381348,418.944519 591.996216,419.000610 
	C607.950439,418.952423 622.977844,418.901428 638.005249,418.850403 
	C643.027344,418.896606 648.049377,418.942810 653.996948,418.992340 
	C670.616638,418.946503 686.310913,418.897308 702.005188,418.848114 
	C713.359558,418.898041 724.713867,418.947968 736.995728,419.000580 
	C766.617126,418.952789 795.311096,418.902344 824.005066,418.851868 
	C826.375671,418.903290 828.746277,418.954712 832.019958,419.010437 
	C844.283569,418.963226 855.644165,418.911743 867.004700,418.860260 
	C870.697815,418.908783 874.390869,418.957275 879.003357,419.008606 
	C902.950378,418.954346 925.978088,418.897217 949.468628,418.913605 
	C955.978943,418.987732 962.026428,418.988403 968.180542,419.447723 
	C968.310059,421.571320 968.353088,423.236237 968.352722,424.901154 
	C968.316101,590.587463 968.276245,756.273804 968.236572,921.960083 
	C966.013855,937.273071 961.821716,952.005127 953.468079,965.123413 
	C934.590637,994.768188 907.995972,1012.689941 871.884277,1017.091309 
	C815.638977,1017.235901 760.256470,1017.289185 704.873901,1017.359680 
	C703.059021,1017.362000 701.244385,1017.538757 699.429626,1017.634155 
	C700.532837,1016.571716 701.466980,1015.200684 702.763306,1014.490967 
	C789.283569,967.116577 823.552551,858.030090 778.521484,770.581177 
	C751.134155,717.395813 707.735718,684.087830 648.461548,673.674683 
	C581.670410,661.940979 508.921326,694.811401 472.839111,752.275757 
	C434.244019,813.742065 431.085571,877.182190 464.879303,941.603027 
	C481.827972,973.912231 507.304138,998.160950 540.087280,1014.512329 
	C541.210876,1015.072693 542.219971,1015.862976 543.270264,1016.564392 
	C543.281189,1016.571655 543.153503,1016.852722 543.043701,1016.956238 
	C542.927063,1017.066101 542.754456,1017.116638 541.867798,1017.255859 
	C484.774689,1017.317810 428.420135,1017.316956 372.065552,1017.316101 
M798.440979,1000.070557 
	C811.947144,1001.894287 825.383972,1001.354126 838.675903,998.459900 
	C906.883728,983.607849 951.702759,914.877258 938.667908,845.034973 
	C925.966614,776.980164 864.669617,731.047058 800.669006,738.074036 
	C791.537170,739.076660 782.532654,741.239319 772.374573,743.061401 
	C798.361267,782.037048 810.347961,823.216858 806.403076,868.415527 
	C802.483521,913.323914 784.963745,952.416565 753.991211,985.644470 
	C768.141602,993.083862 782.361938,998.007812 798.440979,1000.070557 
M719.916870,554.969971 
	C730.798889,552.390747 736.003784,545.864685 736.012268,534.778381 
	C736.023987,519.468323 736.067810,504.158203 736.027893,488.848267 
	C736.000122,478.206085 728.403687,469.759552 717.843811,469.521332 
	C701.709656,469.157410 685.557739,469.158051 669.421570,469.451843 
	C659.062988,469.640381 651.207764,477.884003 651.118958,488.166962 
	C650.980957,504.141388 650.974487,520.119446 651.153320,536.093262 
	C651.276428,547.083923 659.176392,555.068787 670.105042,555.167725 
	C686.410767,555.315369 702.719482,555.125122 719.916870,554.969971 
M796.036621,530.452820 
	C796.032837,531.451416 796.025269,532.449951 796.025818,533.448547 
	C796.033325,547.977112 803.252014,555.227417 817.802795,555.237122 
	C832.280762,555.246826 846.759521,555.285461 861.236389,555.146057 
	C872.894043,555.033813 880.622803,547.260071 880.689636,535.629456 
	C880.778503,520.153625 880.765442,504.676605 880.684875,489.200684 
	C880.623291,477.361053 872.848816,469.521149 860.941589,469.414337 
	C845.965576,469.279938 830.986633,469.259857 816.010803,469.392578 
	C803.844604,469.500397 796.091797,477.414551 796.045105,489.526978 
	C795.993835,502.839844 796.037231,516.153076 796.036621,530.452820 
M362.558929,493.629456 
	C362.574463,507.441498 362.527954,521.253967 362.623901,535.065430 
	C362.710999,547.600769 370.331879,555.145325 382.966217,555.195435 
	C397.443512,555.252930 411.921631,555.217529 426.398834,555.130005 
	C439.062103,555.053406 446.599884,547.464783 446.610748,534.880066 
	C446.623657,519.903442 446.612091,504.926788 446.571289,489.950287 
	C446.536011,476.994690 439.103027,469.467010 426.175598,469.385895 
	C412.696991,469.301361 399.195740,469.809296 385.744690,469.187103 
	C372.240051,468.562408 361.000397,476.241699 362.558929,493.629456 
M533.515381,555.199585 
	C546.512268,555.182922 559.510803,555.286194 572.505615,555.112610 
	C583.386780,554.967407 591.027588,547.212158 591.085205,536.374390 
	C591.170227,520.378723 591.158752,504.381836 591.067871,488.386169 
	C591.008179,477.869110 583.581726,469.753845 573.048340,469.510437 
	C557.060669,469.140961 541.054443,469.157623 525.064392,469.455627 
	C514.806519,469.646759 506.834473,477.510956 506.648010,487.576508 
	C506.342590,504.066559 506.311615,520.570007 506.608612,537.059814 
	C506.788605,547.053650 514.542114,554.504456 524.527649,555.141724 
	C527.183472,555.311279 529.857727,555.191284 533.515381,555.199585 
M842.500000,593.830444 
	C833.338806,593.836243 824.173828,593.676880 815.017456,593.890564 
	C804.117737,594.145020 796.128723,602.240173 796.046082,613.057312 
	C795.928955,628.380432 795.938232,643.705627 796.036804,659.028992 
	C796.104065,669.487610 803.639221,677.721863 814.070923,677.939453 
	C830.386475,678.279968 846.720276,678.247986 863.035950,677.893127 
	C873.238037,677.671204 880.523071,669.984863 880.650269,659.801941 
	C880.845764,644.147217 880.900391,628.485779 880.669922,612.832275 
	C880.508850,601.891602 872.413513,594.110962 861.488525,593.877686 
	C855.494812,593.749634 849.496338,593.840698 842.500000,593.830444 
M368.604340,672.927734 
	C372.998962,674.626282 377.344086,677.618652 381.797150,677.788940 
	C397.253845,678.380066 412.749451,678.115417 428.227386,677.932312 
	C438.805450,677.807190 446.478729,670.042542 446.561462,659.503723 
	C446.682983,644.024902 446.680939,628.543579 446.556030,613.064758 
	C446.466614,601.982361 438.759277,594.026733 427.770142,593.884705 
	C412.292786,593.684631 396.809570,593.702820 381.331512,593.871460 
	C370.433868,593.990173 362.630585,602.116394 362.588226,613.040955 
	C362.530121,628.021301 362.626404,643.002502 362.509766,657.982178 
	C362.465942,663.606323 363.994507,668.467041 368.604340,672.927734 
M429.499634,868.903809 
	C429.499634,860.823486 429.499634,852.743225 429.499634,844.662903 
	C429.026886,844.589355 428.554108,844.515747 428.081360,844.442200 
	C426.403656,848.148071 424.722321,851.852356 423.048798,855.560120 
	C404.609375,896.415100 391.076111,938.842163 382.170685,982.765442 
	C381.467346,986.234375 381.991974,988.061584 385.770813,989.356018 
	C403.338562,995.373962 421.284790,998.293640 439.840240,996.863953 
	C451.638977,995.954956 463.148438,993.720825 474.718445,988.711548 
	C468.804504,977.013916 463.708557,965.413757 457.311127,954.582336 
	C441.792175,928.307434 432.227325,900.234558 429.499634,868.903809 
M686.500183,593.843384 
	C681.340393,593.844971 676.179871,593.790527 671.020935,593.859497 
	C658.918152,594.021240 651.137817,601.888000 651.107788,614.017517 
	C651.073547,627.832153 651.098572,641.646912 651.123657,655.461609 
	C651.126892,657.230652 651.285034,658.999390 651.302185,659.351135 
	C666.255005,664.248718 680.605164,668.049561 694.164978,673.735229 
	C702.017944,677.027954 709.558044,678.355835 717.756775,677.994385 
	C728.170349,677.535278 735.928467,669.769775 735.998291,659.331726 
	C736.100647,644.019836 736.108887,628.705872 735.983093,613.394226 
	C735.888000,601.822510 728.046753,594.025574 716.460632,593.875793 
	C706.808533,593.751038 697.153748,593.844360 686.500183,593.843384 
M578.091919,663.570923 
	C582.290710,662.672546 586.489441,661.774170 590.949219,660.819946 
	C590.949219,643.623047 591.382935,626.650146 590.771545,609.715088 
	C590.452026,600.866638 582.577942,594.101074 573.555847,593.942627 
	C557.244324,593.656189 540.919678,593.628662 524.609314,593.947083 
	C514.535950,594.143738 506.718231,602.377502 506.611450,612.439453 
	C506.443604,628.254883 506.446167,644.074585 506.616150,659.889954 
	C506.701752,667.856567 510.792999,673.821960 518.173096,676.391052 
	C525.938782,679.094238 534.014771,679.082520 542.017090,676.137634 
	C553.706238,671.835815 565.528198,667.894592 578.091919,663.570923 
M367.173920,876.687866 
	C348.154602,889.199951 329.135254,901.712097 309.735229,914.474609 
	C321.896545,944.449524 341.690857,967.622314 370.037140,982.326111 
	C377.169281,957.355835 383.251221,932.938354 391.190796,909.140686 
	C399.182190,885.187561 409.020721,861.850647 418.221619,837.794739 
	C415.092255,836.614624 411.603455,835.067200 407.963684,834.071411 
	C406.907654,833.782471 404.752075,834.716064 404.228485,835.693481 
	C395.376892,852.217957 382.540009,865.103577 367.173920,876.687866 
M365.855408,864.366943 
	C377.516449,854.675720 388.110626,844.101013 395.004303,829.929810 
	C366.603516,820.876831 338.387421,818.416687 309.676971,824.476807 
	C308.140747,824.801147 306.379517,827.017395 305.852173,828.705688 
	C300.609924,845.488831 299.255066,862.703308 301.350861,880.107727 
	C302.272583,887.762268 304.132904,895.303772 305.868927,904.494629 
	C326.557892,890.683838 345.930054,877.752014 365.855408,864.366943 
M362.483459,750.968567 
	C339.286163,766.307556 322.419861,786.844238 310.890808,813.275574 
	C341.629211,807.671875 370.784088,810.880310 399.272980,819.633606 
	C411.009857,791.105957 402.918518,763.223877 380.537354,740.487244 
	C374.822632,743.786377 368.951447,747.175842 362.483459,750.968567 
M413.587555,808.854797 
	C412.378235,813.494751 411.168945,818.134644 409.839844,823.234131 
	C414.581635,824.956726 419.143097,826.613831 423.581451,828.226196 
	C427.810455,819.357422 432.830383,811.441040 435.467346,802.797668 
	C442.630463,779.318604 452.588440,757.338867 466.793182,737.303894 
	C467.626556,736.128479 468.332031,734.862427 469.346405,733.239563 
	C442.990692,726.617859 417.512054,727.193665 391.603119,736.325012 
	C409.915405,757.190491 418.832550,780.513245 413.587555,808.854797 
z"/>
<path fill="#09E290" opacity="1.000000" stroke="none" 
	d="
M968.073853,418.989044 
	C962.026428,418.988403 955.978943,418.987732 949.409668,418.569092 
	C944.841309,412.873505 938.826660,412.679504 933.000000,412.000000 
	C930.079773,411.629913 927.142761,411.356415 924.245300,410.854858 
	C922.404602,410.536194 920.622559,409.878571 918.473572,409.277710 
	C919.258484,408.269623 919.569031,407.564728 919.827637,407.583313 
	C926.627869,408.072510 929.828735,402.969666 933.939880,398.982971 
	C935.641724,397.332581 938.567017,396.228943 940.973999,396.157379 
	C947.605835,395.960266 953.883240,396.148926 960.551453,399.196503 
	C966.027771,401.699371 970.066162,404.283142 972.919495,409.654785 
	C967.625916,411.153870 968.223145,414.522522 969.635864,418.669617 
	C968.924744,419.022736 968.499329,419.005890 968.073853,418.989044 
z"/>
<path fill="#07DF8E" opacity="1.000000" stroke="none" 
	d="
M823.839417,418.531799 
	C795.311096,418.902344 766.617126,418.952789 737.459229,418.928833 
	C742.960815,417.238739 748.842529,414.792267 754.909363,414.179810 
	C767.639099,412.894714 780.346008,413.529205 793.096680,415.631622 
	C800.999451,416.934662 809.283447,415.811584 817.384460,416.104034 
	C819.503479,416.180542 821.578552,417.476013 823.839417,418.531799 
z"/>
<path fill="#07DF8E" opacity="1.000000" stroke="none" 
	d="
M932.677490,412.197998 
	C938.826660,412.679504 944.841309,412.873505 948.946777,418.495605 
	C925.978088,418.897217 902.950378,418.954346 879.458862,418.936584 
	C881.671448,417.619904 884.279602,415.528564 887.038025,415.307068 
	C893.455139,414.791779 899.968689,415.538544 906.398926,415.109924 
	C915.072693,414.531769 923.704895,413.330109 932.677490,412.197998 
z"/>
<path fill="#07DF8E" opacity="1.000000" stroke="none" 
	d="
M637.888000,418.525635 
	C622.977844,418.901428 607.950439,418.952423 592.459106,418.929199 
	C595.123596,417.268860 598.159058,415.441193 601.415466,414.187408 
	C603.359680,413.438873 605.667969,413.274902 607.782288,413.392456 
	C616.164978,413.858490 624.551086,414.391785 632.898193,415.262115 
	C634.605896,415.440186 636.150818,417.180603 637.888000,418.525635 
z"/>
<path fill="#07DF8E" opacity="1.000000" stroke="none" 
	d="
M701.876160,418.513885 
	C686.310913,418.897308 670.616638,418.946503 654.458557,418.920105 
	C656.808655,413.656525 662.050903,415.179382 666.411743,414.510529 
	C669.482483,414.039459 672.676880,414.004883 675.785095,414.220703 
	C683.723511,414.771942 691.649658,415.524841 699.565063,416.347229 
	C700.347412,416.428528 701.022339,417.544128 701.876160,418.513885 
z"/>
<path fill="#07DF8E" opacity="1.000000" stroke="none" 
	d="
M866.849121,418.548035 
	C855.644165,418.911743 844.283569,418.963226 832.459229,418.939331 
	C833.122498,417.985260 834.139343,416.573273 835.394531,416.313629 
	C844.209839,414.490234 853.104797,413.667999 861.986511,415.827545 
	C863.652222,416.232605 865.129333,417.413147 866.849121,418.548035 
z"/>
<path fill="#07DF8E" opacity="1.000000" stroke="none" 
	d="
M441.734375,395.121887 
	C444.329742,399.465942 443.770966,400.966248 439.416077,400.864380 
	C436.165131,400.788361 432.936523,399.756042 429.718506,398.226440 
	C433.411530,395.613708 436.912231,393.372986 441.734375,395.121887 
z"/>
<path fill="#09EA95" opacity="1.000000" stroke="none" 
	d="
M250.926010,374.451599 
	C251.452835,373.530243 251.879608,373.062927 252.727509,372.134491 
	C252.851868,373.564484 252.930969,374.474091 253.013504,375.689209 
	C253.011459,379.364929 253.005966,382.735168 252.999023,386.566742 
	C252.552246,387.020050 252.106918,387.012054 251.327545,386.999878 
	C250.937653,382.965698 250.881805,378.935638 250.926010,374.451599 
z"/>
<path fill="#051625" opacity="1.000000" stroke="none" 
	d="
M671.946960,1006.920044 
	C611.548950,1028.448853 543.415344,1009.434509 500.434509,959.275024 
	C442.554199,891.727539 450.134918,787.576294 517.165894,729.404480 
	C592.320923,664.182129 707.133301,682.922180 758.338928,768.889771 
	C812.830933,860.374817 767.162109,972.859436 671.946960,1006.920044 
M726.207031,962.097229 
	C726.207031,962.097229 726.224243,961.924805 726.224243,961.924805 
	C726.224243,961.924805 726.329590,962.232056 726.187073,962.334961 
	C726.187073,962.334961 726.050415,962.084412 726.050415,962.084412 
	C726.050415,962.084412 726.219910,962.318481 726.207031,962.097229 
M729.027466,959.165527 
	C732.237122,955.517151 735.446777,951.868774 739.085022,947.733154 
	C733.806580,948.496643 733.806580,948.496643 727.357483,959.226135 
	C727.369263,959.524658 727.381042,959.823242 727.392822,960.121826 
	C727.770569,959.949829 728.148315,959.777893 729.027466,959.165527 
M617.171204,941.644531 
	C624.276428,931.780029 631.291931,921.848816 638.544006,912.093567 
	C640.599731,909.328247 640.701904,906.984497 639.363464,903.910034 
	C632.317993,887.726868 625.534729,871.428955 618.405396,855.283569 
	C617.630066,853.527710 615.416931,851.750366 613.531494,851.242615 
	C595.375977,846.352600 577.119507,841.837463 558.967224,836.936096 
	C555.835266,836.090393 554.195068,836.852234 552.219910,839.113586 
	C541.373779,851.531494 530.467041,863.900085 519.355774,876.080078 
	C516.776611,878.907288 516.166626,881.401001 517.325256,884.993713 
	C524.290344,906.590149 532.791260,927.533081 543.586548,947.505798 
	C544.344116,948.907410 546.017029,950.462280 547.487000,950.732056 
	C565.014465,953.947937 582.572754,957.004150 600.163147,959.854126 
	C601.679321,960.099792 604.041077,959.036682 605.052917,957.799011 
	C609.159607,952.775818 612.892578,947.447083 617.171204,941.644531 
M560.583252,762.068665 
	C557.095703,765.166138 553.768372,768.473633 550.070068,771.294861 
	C547.100464,773.560242 546.597961,776.003845 547.354187,779.501160 
	C550.414856,793.655884 553.330994,807.844299 556.059814,822.066528 
	C556.720032,825.507446 558.296326,826.957947 561.656494,827.798218 
	C579.576965,832.279541 597.447083,836.966614 615.291992,841.741699 
	C618.246826,842.532349 620.189453,841.934204 622.324463,839.786621 
	C635.008667,827.027344 647.788025,814.361633 660.644653,801.776123 
	C662.726440,799.738342 663.140320,797.955505 662.192749,795.189026 
	C657.068054,780.226624 652.020386,765.234680 647.235413,750.161133 
	C646.020264,746.333252 644.125610,744.581543 640.104736,744.009094 
	C624.608154,741.802612 609.172729,739.167603 593.676147,736.961365 
	C591.716003,736.682251 589.036072,737.407104 587.528076,738.668884 
	C578.587585,746.149780 569.894348,753.926147 560.583252,762.068665 
M636.015808,1004.530457 
	C657.371704,1002.290710 677.245117,995.469910 695.911438,985.008545 
	C697.737671,983.985107 699.618530,982.623352 700.792542,980.942627 
	C708.517090,969.883667 716.004517,958.659363 723.694336,947.575684 
	C725.286316,945.281128 725.671936,943.442505 724.254883,940.810730 
	C718.573120,930.258850 713.068420,919.609131 707.672913,908.907471 
	C706.414368,906.411072 705.014282,905.671753 702.223267,906.090576 
	C685.422302,908.611572 668.586487,910.899536 651.783020,913.404480 
	C650.321472,913.622314 648.545776,914.502930 647.698486,915.652466 
	C636.036194,931.475464 624.467041,947.368103 613.047913,963.367004 
	C612.250427,964.484375 612.141968,966.979858 612.848450,968.147705 
	C620.171387,980.252930 627.727722,992.216980 636.015808,1004.530457 
M718.661499,825.023376 
	C721.556458,827.625977 724.276611,827.651611 727.497375,825.205566 
	C730.796326,822.700378 734.782104,821.084778 738.010559,818.507629 
	C739.811462,817.070068 741.596924,814.563721 741.825195,812.375854 
	C743.294617,798.294983 744.424072,784.175354 745.409241,770.050598 
	C745.554199,767.972717 744.890564,765.398254 743.672607,763.732239 
	C727.732910,741.929443 707.570374,725.173828 683.192627,713.454102 
	C680.429077,712.125549 678.893250,712.300049 676.938293,714.661926 
	C670.352722,722.618225 663.667053,730.499695 656.771118,738.186768 
	C654.543823,740.669556 654.348328,742.783020 655.397034,745.794617 
	C660.982544,761.834473 666.312744,777.963379 671.912048,793.998291 
	C672.498535,795.677917 674.002075,797.371033 675.534851,798.334595 
	C689.635193,807.198730 703.835876,815.903259 718.661499,825.023376 
M708.724060,879.109863 
	C711.837524,864.527832 714.950928,849.945801 718.029419,835.527588 
	C702.787781,826.112549 688.152771,817.180969 673.658081,808.027100 
	C670.749878,806.190430 669.028870,806.240295 666.503418,808.779114 
	C654.173767,821.173584 641.704285,833.434265 629.048706,845.495117 
	C626.559692,847.867126 626.118042,849.567932 627.476257,852.662537 
	C633.162903,865.618896 638.582581,878.692444 644.095215,891.725098 
	C645.829041,895.824219 647.547668,899.929749 649.408752,904.354309 
	C664.873169,902.233337 680.056335,900.340942 695.173218,898.017151 
	C707.210632,896.166870 704.190002,898.864136 707.002991,886.749390 
	C707.529846,884.480347 708.010193,882.200623 708.724060,879.109863 
M492.945007,779.067627 
	C489.810974,778.465515 488.603119,780.411133 487.441345,782.873108 
	C479.047455,800.661865 473.746063,819.293945 471.441376,838.840576 
	C470.883728,843.570129 471.223938,847.060059 475.950409,849.614502 
	C479.870056,851.732971 483.223114,854.883240 486.894073,857.481873 
	C494.448029,862.829346 502.046661,868.113708 509.692383,873.469910 
	C520.121033,861.625000 529.693665,849.823303 540.305664,839.044922 
	C546.755066,832.494324 548.558838,826.321167 546.110352,817.417480 
	C542.554138,804.485535 540.418274,791.163025 537.895325,779.056335 
	C522.788940,779.056335 508.321259,779.056335 492.945007,779.067627 
M762.198425,842.304932 
	C756.372925,836.924683 750.547485,831.544373 744.408447,825.874512 
	C740.222473,828.493103 735.287170,831.284729 730.719849,834.585693 
	C728.933350,835.876892 727.228638,838.143066 726.752563,840.251099 
	C722.465271,859.234558 718.410217,878.271423 714.453552,897.327148 
	C714.087402,899.090820 714.390198,901.336426 715.200745,902.946167 
	C720.738281,913.942810 726.469910,924.842285 732.219421,935.730591 
	C732.787231,936.805908 733.753052,938.140991 734.782532,938.411987 
	C737.547302,939.139832 749.493958,933.340820 750.871704,930.876892 
	C762.065125,910.858887 768.677612,889.496094 771.421631,866.652466 
	C772.632141,856.575134 770.970581,848.807068 762.198425,842.304932 
M516.722717,962.775513 
	C519.634583,965.442322 522.546448,968.109192 525.881775,971.163879 
	C528.507446,966.861816 530.530334,962.844421 533.217834,959.335999 
	C536.077454,955.602661 535.461731,952.557861 533.586609,948.546570 
	C526.548828,933.491211 518.507385,918.667053 513.670349,902.889160 
	C509.030609,887.755066 501.069153,876.935608 487.471191,869.454834 
	C481.892212,866.385559 476.920380,862.212585 470.954407,858.039490 
	C473.456818,899.034790 487.927948,933.660950 516.722717,962.775513 
M537.985107,725.452576 
	C520.988342,736.966125 506.935913,751.297913 495.826965,768.891663 
	C496.744263,769.212830 497.179077,769.504150 497.607269,769.494812 
	C510.756592,769.206421 523.906372,768.924500 537.052185,768.515320 
	C538.258423,768.477844 539.676636,767.871582 540.594910,767.069580 
	C553.636353,755.680298 566.648743,744.256165 579.516602,732.672180 
	C580.483215,731.802002 581.072021,729.270752 580.522766,728.163025 
	C577.356750,721.778076 573.795105,715.589233 569.756042,708.217773 
	C559.251587,713.891235 548.918823,719.471924 537.985107,725.452576 
M554.003906,961.433167 
	C551.547363,960.971130 549.102783,960.274475 546.629028,960.147766 
	C545.422363,960.085938 543.623657,960.735229 543.014526,961.665894 
	C539.756958,966.643250 536.790100,971.810913 533.504944,977.275085 
	C560.916992,996.543762 590.771301,1006.228149 624.891846,1005.908020 
	C623.495911,1003.354736 622.652527,1001.613464 621.633606,999.981628 
	C616.074036,991.077576 610.620056,982.100586 604.766235,973.392944 
	C603.493713,971.500183 600.887512,969.813721 598.636292,969.381104 
	C584.078430,966.583923 569.448730,964.160461 554.003906,961.433167 
M627.423401,699.888916 
	C611.399841,699.375488 595.679565,701.108704 579.875366,705.919250 
	C583.411499,712.686890 586.611816,719.038208 590.083313,725.237671 
	C590.674744,726.293701 592.358765,727.134460 593.654358,727.339600 
	C610.240601,729.965820 626.842346,732.497314 643.459961,734.916626 
	C644.915649,735.128540 647.123352,734.923767 647.945435,733.995117 
	C655.291870,725.696960 662.405457,717.192566 670.018677,708.242188 
	C656.044617,702.952454 642.398071,700.579651 627.423401,699.888916 
M763.342896,830.172791 
	C765.656311,832.522400 767.969727,834.871948 770.901367,837.849487 
	C770.979858,822.604858 761.507629,791.131836 754.221985,781.687256 
	C753.551208,788.728760 753.567932,795.580872 752.126099,802.110901 
	C749.712158,813.043762 751.896057,821.818542 761.454041,828.239685 
	C761.992676,828.601501 762.383301,829.183777 763.342896,830.172791 
z"/>
<path fill="#05FA9F" opacity="1.000000" stroke="none" 
	d="
M968.180542,419.447723 
	C968.499329,419.005890 968.924744,419.022736 969.669861,419.031006 
	C969.990662,584.458862 969.996094,749.895325 969.944519,915.331726 
	C969.943848,917.390137 969.213684,919.448242 968.530334,921.733276 
	C968.276245,756.273804 968.316101,590.587463 968.352722,424.901154 
	C968.353088,423.236237 968.310059,421.571320 968.180542,419.447723 
z"/>
<path fill="#09F0A1" opacity="1.000000" stroke="none" 
	d="
M273.728668,419.255188 
	C273.973358,455.050629 273.832123,491.047028 273.827698,527.043457 
	C273.811890,655.373108 273.842316,783.702698 273.858917,912.032349 
	C273.859192,914.032227 273.906860,916.032166 273.888184,918.495056 
	C273.232178,916.516785 272.087646,914.075928 272.085449,911.634094 
	C271.995575,811.877258 272.009338,712.120300 272.008148,612.363403 
	C272.007385,550.410828 271.988342,488.458282 272.060638,426.505829 
	C272.063385,424.155426 272.937469,421.806030 273.728668,419.255188 
z"/>
<path fill="#05FA9F" opacity="1.000000" stroke="none" 
	d="
M372.297241,1017.599487 
	C428.420135,1017.316956 484.774689,1017.317810 541.596191,1017.400146 
	C542.447693,1017.782837 542.832214,1018.084106 543.698486,1018.762878 
	C541.688904,1018.853638 540.143738,1018.984009 538.598633,1018.984253 
	C485.474457,1018.992249 432.350250,1019.001404 379.226166,1018.938843 
	C376.993347,1018.936218 374.761353,1018.250427 372.297241,1017.599487 
z"/>
<path fill="#05FA9F" opacity="1.000000" stroke="none" 
	d="
M699.460754,1017.903320 
	C701.244385,1017.538757 703.059021,1017.362000 704.873901,1017.359680 
	C760.256470,1017.289185 815.638977,1017.235901 871.483826,1017.224365 
	C870.310547,1017.839600 868.675781,1018.906555 867.039368,1018.909241 
	C812.249512,1018.998901 757.459595,1018.991516 702.669617,1018.955750 
	C701.610168,1018.955078 700.551147,1018.444946 699.460754,1017.903320 
z"/>
<path fill="#09EA95" opacity="1.000000" stroke="none" 
	d="
M251.017792,603.002930 
	C250.952347,595.307983 250.886917,587.613037 251.091812,579.198486 
	C251.245972,577.319641 251.129791,576.160339 251.013611,575.001099 
	C250.951294,574.555298 250.888977,574.109497 250.914429,573.334717 
	C251.667923,574.747192 252.911163,576.487427 252.915131,578.230469 
	C253.021561,624.988464 253.014877,671.746704 252.944550,718.504883 
	C252.941986,720.202148 252.102585,721.898132 251.326141,723.794922 
	C250.921005,707.728088 250.798676,691.461121 250.776215,675.194031 
	C250.748459,655.101440 250.803680,635.008789 251.113708,614.106323 
	C251.275497,609.865295 251.146652,606.434143 251.017792,603.002930 
z"/>
<path fill="#09EA95" opacity="1.000000" stroke="none" 
	d="
M251.322617,561.795410 
	C250.938583,557.633179 250.881836,553.270752 251.105408,548.149475 
	C251.264877,545.595276 251.144012,543.799988 251.023148,542.004700 
	C250.959610,525.641418 250.896072,509.278168 251.116974,492.116516 
	C251.274017,488.546509 251.146591,485.774872 251.019196,483.003265 
	C250.948425,474.977173 250.877655,466.951111 250.900146,458.465027 
	C251.662796,459.742615 252.909378,461.478058 252.915863,463.218048 
	C253.032196,494.481323 253.017548,525.745239 252.939835,557.008728 
	C252.936035,558.538635 252.098969,560.066528 251.322617,561.795410 
z"/>
<path fill="#09EA95" opacity="1.000000" stroke="none" 
	d="
M251.017639,421.002838 
	C250.948944,419.609894 250.880264,418.216949 250.906326,416.414734 
	C251.657669,417.240356 252.863449,418.466278 252.883652,419.711456 
	C253.039444,429.313477 253.005157,438.919647 252.905380,448.523224 
	C252.894699,449.552124 252.087326,450.572754 251.321289,451.796265 
	C250.935623,446.302582 250.878189,440.609802 251.111664,434.100708 
	C251.274246,429.190552 251.145935,425.096710 251.017639,421.002838 
z"/>
<path fill="#09EA95" opacity="1.000000" stroke="none" 
	d="
M251.315323,786.797668 
	C250.932068,781.636230 250.877502,776.275940 251.099167,770.172241 
	C251.253784,767.952576 251.132187,766.476318 251.010574,765.000061 
	C250.940918,762.954285 250.871277,760.908569 250.897034,758.433472 
	C251.644119,759.070129 252.841614,760.126709 252.860199,761.203674 
	C252.994293,768.972778 252.920563,776.746399 252.808243,784.517151 
	C252.798126,785.216492 252.049622,785.905212 251.315323,786.797668 
z"/>
<path fill="#09EA95" opacity="1.000000" stroke="none" 
	d="
M251.322906,829.794922 
	C250.934967,823.637817 250.874329,817.281006 250.909180,810.464783 
	C251.632263,810.905579 252.830582,811.829224 252.794754,812.702209 
	C252.563400,818.339355 252.062622,823.965454 251.322906,829.794922 
z"/>
<path fill="#09EA95" opacity="1.000000" stroke="none" 
	d="
M251.271027,909.793823 
	C250.884232,907.283020 250.820602,904.592529 250.854828,901.463562 
	C253.949615,903.680237 253.713013,906.576843 251.271027,909.793823 
z"/>
<path fill="#09EA95" opacity="1.000000" stroke="none" 
	d="
M251.301361,738.828613 
	C250.935196,737.278137 250.869919,735.561646 250.899857,733.424805 
	C253.490402,734.644470 253.609863,736.539368 251.301361,738.828613 
z"/>
<path fill="#09EA95" opacity="1.000000" stroke="none" 
	d="
M251.231415,884.842346 
	C250.883469,883.915283 250.820236,882.858521 250.853928,881.414490 
	C251.139267,882.255676 251.327698,883.484192 251.231415,884.842346 
z"/>
<path fill="#09EA95" opacity="1.000000" stroke="none" 
	d="
M251.173691,897.894897 
	C250.895126,897.539734 250.835022,897.102966 250.864685,896.344971 
	C251.100357,896.620178 251.246246,897.216736 251.173691,897.894897 
z"/>
<path fill="#07DF8E" opacity="1.000000" stroke="none" 
	d="
M250.907684,421.386841 
	C251.145935,425.096710 251.274246,429.190552 251.207428,433.641113 
	C250.940796,429.922150 250.869278,425.846497 250.907684,421.386841 
z"/>
<path fill="#07DF8E" opacity="1.000000" stroke="none" 
	d="
M250.910004,603.378784 
	C251.146652,606.434143 251.275497,609.865295 251.210907,613.646118 
	C250.945724,610.582031 250.873978,607.168274 250.910004,603.378784 
z"/>
<path fill="#07DF8E" opacity="1.000000" stroke="none" 
	d="
M250.909637,483.363342 
	C251.146591,485.774872 251.274017,488.546509 251.212067,491.655823 
	C250.948486,489.236816 250.874283,486.480103 250.909637,483.363342 
z"/>
<path fill="#07DF8E" opacity="1.000000" stroke="none" 
	d="
M250.913849,542.323730 
	C251.144012,543.799988 251.264877,545.595276 251.201889,547.693115 
	C250.946884,546.211365 250.875717,544.427063 250.913849,542.323730 
z"/>
<path fill="#07DF8E" opacity="1.000000" stroke="none" 
	d="
M250.901642,765.298218 
	C251.132187,766.476318 251.253784,767.952576 251.195160,769.712952 
	C250.940857,768.530151 250.866776,767.063293 250.901642,765.298218 
z"/>
<path fill="#07DF8E" opacity="1.000000" stroke="none" 
	d="
M250.904404,575.271851 
	C251.129791,576.160339 251.245972,577.319641 251.188202,578.738281 
	C250.941238,577.845947 250.868210,576.694275 250.904404,575.271851 
z"/>
<path fill="#08E18F" opacity="1.000000" stroke="none" 
	d="
M798.000610,1000.021240 
	C782.361938,998.007812 768.141602,993.083862 753.991211,985.644470 
	C784.963745,952.416565 802.483521,913.323914 806.403076,868.415527 
	C810.347961,823.216858 798.361267,782.037048 772.374573,743.061401 
	C782.532654,741.239319 791.537170,739.076660 800.669006,738.074036 
	C864.669617,731.047058 925.966614,776.980164 938.667908,845.034973 
	C951.702759,914.877258 906.883728,983.607849 838.675903,998.459900 
	C825.383972,1001.354126 811.947144,1001.894287 798.000610,1000.021240 
M859.252502,831.702698 
	C858.209595,833.972351 857.143921,836.231934 856.128967,838.513977 
	C854.444275,842.301819 853.758118,847.612427 850.852783,849.473083 
	C847.986938,851.308411 842.883911,849.746338 838.771851,849.510010 
	C835.387573,849.315491 832.542358,850.097229 832.113342,853.860779 
	C831.649475,857.930481 834.473450,859.335876 837.995544,859.766235 
	C841.220093,860.160217 844.442505,860.571472 847.746521,860.985291 
	C846.836731,865.342407 846.000061,869.078552 845.286987,872.838074 
	C844.518921,876.886963 845.175537,882.251221 842.797852,884.657410 
	C840.391479,887.092590 835.051880,886.736023 830.960754,887.366394 
	C827.596191,887.884827 825.671021,889.585449 826.041016,893.002380 
	C826.430298,896.597656 828.999573,897.494019 832.230347,897.109375 
	C835.830200,896.680847 839.429688,896.249512 843.258972,895.791931 
	C843.764893,900.853027 844.122253,905.476196 844.707214,910.070312 
	C846.094788,920.966675 846.150513,920.991394 835.763550,925.145325 
	C832.436157,926.476074 830.061279,928.492065 831.523865,932.289673 
	C832.932678,935.947510 836.089722,935.621765 839.139648,934.520996 
	C842.353943,933.360901 845.524658,932.080139 848.832092,930.806763 
	C850.224792,934.924255 851.380127,938.557251 852.678711,942.138306 
	C856.392578,952.379700 856.440918,952.409119 847.134460,958.700317 
	C844.111206,960.744019 842.400696,963.356995 844.507629,966.646423 
	C846.557800,969.846985 849.659302,969.054321 852.450378,967.312134 
	C855.505676,965.404907 858.502930,963.404724 861.639832,961.370850 
	C864.087524,965.436768 866.265503,969.157227 868.547363,972.812744 
	C870.374817,975.740295 872.925171,977.066284 876.140564,975.127319 
	C879.417358,973.151245 879.200562,970.286499 877.476013,967.331177 
	C875.484375,963.918091 873.447998,960.531067 871.108215,956.588928 
	C874.857788,955.089600 878.073975,953.858826 881.244507,952.519958 
	C884.288513,951.234497 886.546448,949.227722 885.157410,945.606873 
	C883.700745,941.809631 880.677246,942.314026 877.625305,943.491272 
	C873.972229,944.900391 870.313721,946.295227 866.096619,947.911072 
	C863.634644,941.095093 861.416504,934.954041 859.051270,928.405762 
	C863.564514,927.862061 867.024536,927.449402 870.483521,927.027344 
	C873.907898,926.609558 876.315674,925.003662 875.825012,921.234375 
	C875.359314,917.656677 872.711304,916.946289 869.495789,917.281311 
	C865.381287,917.709961 861.250671,917.983521 856.361206,918.387207 
	C855.468872,910.799072 854.626770,903.637512 853.694824,895.712524 
	C858.513672,896.533142 862.401733,897.700073 866.275391,897.654541 
	C868.402283,897.629517 871.657654,896.034058 872.365662,894.309692 
	C873.626221,891.239685 871.346375,889.134277 868.030273,888.476868 
	C863.655762,887.609680 859.304016,886.627808 854.102356,885.515564 
	C855.351501,878.138550 856.542786,871.103271 857.811584,863.610168 
	C861.962463,865.570801 865.074768,867.148621 868.275085,868.521057 
	C871.216553,869.782471 874.335510,870.348511 876.029846,866.765320 
	C877.711731,863.208740 875.459473,861.162048 872.491272,859.713440 
	C868.772583,857.898499 865.039978,856.111816 860.666199,854.000488 
	C863.927063,846.788269 867.096313,839.778625 870.537537,832.167542 
	C873.882568,835.160828 876.390808,837.537903 879.043823,839.740540 
	C881.495361,841.775940 884.237244,842.355652 886.570740,839.688782 
	C888.982971,836.931946 887.741455,834.462158 885.364258,832.326965 
	C882.421143,829.683472 879.478394,827.039429 875.994141,823.909241 
	C881.019287,818.110046 885.733826,812.669189 890.901306,806.705750 
	C893.530396,810.323975 895.588074,813.094971 897.579163,815.912964 
	C899.633057,818.819824 902.223938,820.687561 905.534668,818.293884 
	C908.668030,816.028442 907.513245,813.109985 905.777222,810.332153 
	C902.802490,805.572327 899.971863,800.722412 897.007202,795.956116 
	C896.406006,794.989502 895.616699,794.012451 894.677979,793.405151 
	C890.428711,790.656311 886.023621,788.144836 881.815552,785.336731 
	C878.874084,783.373840 875.925903,782.204224 873.493591,785.524475 
	C871.074890,788.826416 873.054260,791.495361 875.759338,793.617249 
	C878.220093,795.547546 880.773376,797.359985 883.509888,799.390625 
	C880.527771,802.859741 877.809631,805.994568 875.122559,809.155762 
	C872.653687,812.060181 870.628235,816.746704 867.657898,817.440857 
	C864.413757,818.198975 860.308533,815.273804 856.579285,813.952148 
	C856.265320,813.840820 855.956970,813.713379 855.645874,813.594055 
	C852.307556,812.313843 849.170288,812.352356 847.739136,816.165955 
	C846.324829,819.934509 848.615295,822.125610 851.916016,823.428345 
	C854.969116,824.633362 858.054810,825.756104 861.331909,826.992737 
	C860.632324,828.637207 860.122375,829.835693 859.252502,831.702698 
z"/>
<path fill="#09E190" opacity="1.000000" stroke="none" 
	d="
M719.471924,555.024292 
	C702.719482,555.125122 686.410767,555.315369 670.105042,555.167725 
	C659.176392,555.068787 651.276428,547.083923 651.153320,536.093262 
	C650.974487,520.119446 650.980957,504.141388 651.118958,488.166962 
	C651.207764,477.884003 659.062988,469.640381 669.421570,469.451843 
	C685.557739,469.158051 701.709656,469.157410 717.843811,469.521332 
	C728.403687,469.759552 736.000122,478.206085 736.027893,488.848267 
	C736.067810,504.158203 736.023987,519.468323 736.012268,534.778381 
	C736.003784,545.864685 730.798889,552.390747 719.471924,555.024292 
z"/>
<path fill="#09E08F" opacity="1.000000" stroke="none" 
	d="
M796.037964,529.959473 
	C796.037231,516.153076 795.993835,502.839844 796.045105,489.526978 
	C796.091797,477.414551 803.844604,469.500397 816.010803,469.392578 
	C830.986633,469.259857 845.965576,469.279938 860.941589,469.414337 
	C872.848816,469.521149 880.623291,477.361053 880.684875,489.200684 
	C880.765442,504.676605 880.778503,520.153625 880.689636,535.629456 
	C880.622803,547.260071 872.894043,555.033813 861.236389,555.146057 
	C846.759521,555.285461 832.280762,555.246826 817.802795,555.237122 
	C803.252014,555.227417 796.033325,547.977112 796.025818,533.448547 
	C796.025269,532.449951 796.032837,531.451416 796.037964,529.959473 
z"/>
<path fill="#09E08F" opacity="1.000000" stroke="none" 
	d="
M362.555695,493.151428 
	C361.000397,476.241699 372.240051,468.562408 385.744690,469.187103 
	C399.195740,469.809296 412.696991,469.301361 426.175598,469.385895 
	C439.103027,469.467010 446.536011,476.994690 446.571289,489.950287 
	C446.612091,504.926788 446.623657,519.903442 446.610748,534.880066 
	C446.599884,547.464783 439.062103,555.053406 426.398834,555.130005 
	C411.921631,555.217529 397.443512,555.252930 382.966217,555.195435 
	C370.331879,555.145325 362.710999,547.600769 362.623901,535.065430 
	C362.527954,521.253967 362.574463,507.441498 362.555695,493.151428 
z"/>
<path fill="#09E190" opacity="1.000000" stroke="none" 
	d="
M533.019470,555.201904 
	C529.857727,555.191284 527.183472,555.311279 524.527649,555.141724 
	C514.542114,554.504456 506.788605,547.053650 506.608612,537.059814 
	C506.311615,520.570007 506.342590,504.066559 506.648010,487.576508 
	C506.834473,477.510956 514.806519,469.646759 525.064392,469.455627 
	C541.054443,469.157623 557.060669,469.140961 573.048340,469.510437 
	C583.581726,469.753845 591.008179,477.869110 591.067871,488.386169 
	C591.158752,504.381836 591.170227,520.378723 591.085205,536.374390 
	C591.027588,547.212158 583.386780,554.967407 572.505615,555.112610 
	C559.510803,555.286194 546.512268,555.182922 533.019470,555.201904 
z"/>
<path fill="#09E18F" opacity="1.000000" stroke="none" 
	d="
M843.000000,593.831665 
	C849.496338,593.840698 855.494812,593.749634 861.488525,593.877686 
	C872.413513,594.110962 880.508850,601.891602 880.669922,612.832275 
	C880.900391,628.485779 880.845764,644.147217 880.650269,659.801941 
	C880.523071,669.984863 873.238037,677.671204 863.035950,677.893127 
	C846.720276,678.247986 830.386475,678.279968 814.070923,677.939453 
	C803.639221,677.721863 796.104065,669.487610 796.036804,659.028992 
	C795.938232,643.705627 795.928955,628.380432 796.046082,613.057312 
	C796.128723,602.240173 804.117737,594.145020 815.017456,593.890564 
	C824.173828,593.676880 833.338806,593.836243 843.000000,593.831665 
z"/>
<path fill="#09E18F" opacity="1.000000" stroke="none" 
	d="
M368.342224,672.674316 
	C363.994507,668.467041 362.465942,663.606323 362.509766,657.982178 
	C362.626404,643.002502 362.530121,628.021301 362.588226,613.040955 
	C362.630585,602.116394 370.433868,593.990173 381.331512,593.871460 
	C396.809570,593.702820 412.292786,593.684631 427.770142,593.884705 
	C438.759277,594.026733 446.466614,601.982361 446.556030,613.064758 
	C446.680939,628.543579 446.682983,644.024902 446.561462,659.503723 
	C446.478729,670.042542 438.805450,677.807190 428.227386,677.932312 
	C412.749451,678.115417 397.253845,678.380066 381.797150,677.788940 
	C377.344086,677.618652 372.998962,674.626282 368.342224,672.674316 
z"/>
<path fill="#08E18F" opacity="1.000000" stroke="none" 
	d="
M429.548462,869.361328 
	C432.227325,900.234558 441.792175,928.307434 457.311127,954.582336 
	C463.708557,965.413757 468.804504,977.013916 474.718445,988.711548 
	C463.148438,993.720825 451.638977,995.954956 439.840240,996.863953 
	C421.284790,998.293640 403.338562,995.373962 385.770813,989.356018 
	C381.991974,988.061584 381.467346,986.234375 382.170685,982.765442 
	C391.076111,938.842163 404.609375,896.415100 423.048798,855.560120 
	C424.722321,851.852356 426.403656,848.148071 428.081360,844.442200 
	C428.554108,844.515747 429.026886,844.589355 429.499634,844.662903 
	C429.499634,852.743225 429.499634,860.823486 429.548462,869.361328 
z"/>
<path fill="#09E18F" opacity="1.000000" stroke="none" 
	d="
M687.000122,593.842224 
	C697.153748,593.844360 706.808533,593.751038 716.460632,593.875793 
	C728.046753,594.025574 735.888000,601.822510 735.983093,613.394226 
	C736.108887,628.705872 736.100647,644.019836 735.998291,659.331726 
	C735.928467,669.769775 728.170349,677.535278 717.756775,677.994385 
	C709.558044,678.355835 702.017944,677.027954 694.164978,673.735229 
	C680.605164,668.049561 666.255005,664.248718 651.302185,659.351135 
	C651.285034,658.999390 651.126892,657.230652 651.123657,655.461609 
	C651.098572,641.646912 651.073547,627.832153 651.107788,614.017517 
	C651.137817,601.888000 658.918152,594.021240 671.020935,593.859497 
	C676.179871,593.790527 681.340393,593.844971 687.000122,593.842224 
z"/>
<path fill="#09E190" opacity="1.000000" stroke="none" 
	d="
M577.692749,663.685303 
	C565.528198,667.894592 553.706238,671.835815 542.017090,676.137634 
	C534.014771,679.082520 525.938782,679.094238 518.173096,676.391052 
	C510.792999,673.821960 506.701752,667.856567 506.616150,659.889954 
	C506.446167,644.074585 506.443604,628.254883 506.611450,612.439453 
	C506.718231,602.377502 514.535950,594.143738 524.609314,593.947083 
	C540.919678,593.628662 557.244324,593.656189 573.555847,593.942627 
	C582.577942,594.101074 590.452026,600.866638 590.771545,609.715088 
	C591.382935,626.650146 590.949219,643.623047 590.949219,660.819946 
	C586.489441,661.774170 582.290710,662.672546 577.692749,663.685303 
z"/>
<path fill="#08E18F" opacity="1.000000" stroke="none" 
	d="
M367.449280,876.458374 
	C382.540009,865.103577 395.376892,852.217957 404.228485,835.693481 
	C404.752075,834.716064 406.907654,833.782471 407.963684,834.071411 
	C411.603455,835.067200 415.092255,836.614624 418.221619,837.794739 
	C409.020721,861.850647 399.182190,885.187561 391.190796,909.140686 
	C383.251221,932.938354 377.169281,957.355835 370.037140,982.326111 
	C341.690857,967.622314 321.896545,944.449524 309.735229,914.474609 
	C329.135254,901.712097 348.154602,889.199951 367.449280,876.458374 
z"/>
<path fill="#08E18E" opacity="1.000000" stroke="none" 
	d="
M365.578796,864.593628 
	C345.930054,877.752014 326.557892,890.683838 305.868927,904.494629 
	C304.132904,895.303772 302.272583,887.762268 301.350861,880.107727 
	C299.255066,862.703308 300.609924,845.488831 305.852173,828.705688 
	C306.379517,827.017395 308.140747,824.801147 309.676971,824.476807 
	C338.387421,818.416687 366.603516,820.876831 395.004303,829.929810 
	C388.110626,844.101013 377.516449,854.675720 365.578796,864.593628 
z"/>
<path fill="#08E18E" opacity="1.000000" stroke="none" 
	d="
M362.781860,750.766968 
	C368.951447,747.175842 374.822632,743.786377 380.537354,740.487244 
	C402.918518,763.223877 411.009857,791.105957 399.272980,819.633606 
	C370.784088,810.880310 341.629211,807.671875 310.890808,813.275574 
	C322.419861,786.844238 339.286163,766.307556 362.781860,750.766968 
z"/>
<path fill="#08E08E" opacity="1.000000" stroke="none" 
	d="
M413.680725,808.434692 
	C418.832550,780.513245 409.915405,757.190491 391.603119,736.325012 
	C417.512054,727.193665 442.990692,726.617859 469.346405,733.239563 
	C468.332031,734.862427 467.626556,736.128479 466.793182,737.303894 
	C452.588440,757.338867 442.630463,779.318604 435.467346,802.797668 
	C432.830383,811.441040 427.810455,819.357422 423.581451,828.226196 
	C419.143097,826.613831 414.581635,824.956726 409.839844,823.234131 
	C411.168945,818.134644 412.378235,813.494751 413.680725,808.434692 
z"/>
<path fill="#09E190" opacity="1.000000" stroke="none" 
	d="
M616.967285,941.937805 
	C612.892578,947.447083 609.159607,952.775818 605.052917,957.799011 
	C604.041077,959.036682 601.679321,960.099792 600.163147,959.854126 
	C582.572754,957.004150 565.014465,953.947937 547.487000,950.732056 
	C546.017029,950.462280 544.344116,948.907410 543.586548,947.505798 
	C532.791260,927.533081 524.290344,906.590149 517.325256,884.993713 
	C516.166626,881.401001 516.776611,878.907288 519.355774,876.080078 
	C530.467041,863.900085 541.373779,851.531494 552.219910,839.113586 
	C554.195068,836.852234 555.835266,836.090393 558.967224,836.936096 
	C577.119507,841.837463 595.375977,846.352600 613.531494,851.242615 
	C615.416931,851.750366 617.630066,853.527710 618.405396,855.283569 
	C625.534729,871.428955 632.317993,887.726868 639.363464,903.910034 
	C640.701904,906.984497 640.599731,909.328247 638.544006,912.093567 
	C631.291931,921.848816 624.276428,931.780029 616.967285,941.937805 
z"/>
<path fill="#09E290" opacity="1.000000" stroke="none" 
	d="
M560.850647,761.835938 
	C569.894348,753.926147 578.587585,746.149780 587.528076,738.668884 
	C589.036072,737.407104 591.716003,736.682251 593.676147,736.961365 
	C609.172729,739.167603 624.608154,741.802612 640.104736,744.009094 
	C644.125610,744.581543 646.020264,746.333252 647.235413,750.161133 
	C652.020386,765.234680 657.068054,780.226624 662.192749,795.189026 
	C663.140320,797.955505 662.726440,799.738342 660.644653,801.776123 
	C647.788025,814.361633 635.008667,827.027344 622.324463,839.786621 
	C620.189453,841.934204 618.246826,842.532349 615.291992,841.741699 
	C597.447083,836.966614 579.576965,832.279541 561.656494,827.798218 
	C558.296326,826.957947 556.720032,825.507446 556.059814,822.066528 
	C553.330994,807.844299 550.414856,793.655884 547.354187,779.501160 
	C546.597961,776.003845 547.100464,773.560242 550.070068,771.294861 
	C553.768372,768.473633 557.095703,765.166138 560.850647,761.835938 
z"/>
<path fill="#09E190" opacity="1.000000" stroke="none" 
	d="
M635.617554,1004.375366 
	C627.727722,992.216980 620.171387,980.252930 612.848450,968.147705 
	C612.141968,966.979858 612.250427,964.484375 613.047913,963.367004 
	C624.467041,947.368103 636.036194,931.475464 647.698486,915.652466 
	C648.545776,914.502930 650.321472,913.622314 651.783020,913.404480 
	C668.586487,910.899536 685.422302,908.611572 702.223267,906.090576 
	C705.014282,905.671753 706.414368,906.411072 707.672913,908.907471 
	C713.068420,919.609131 718.573120,930.258850 724.254883,940.810730 
	C725.671936,943.442505 725.286316,945.281128 723.694336,947.575684 
	C716.004517,958.659363 708.517090,969.883667 700.792542,980.942627 
	C699.618530,982.623352 697.737671,983.985107 695.911438,985.008545 
	C677.245117,995.469910 657.371704,1002.290710 635.617554,1004.375366 
z"/>
<path fill="#09E190" opacity="1.000000" stroke="none" 
	d="
M718.334412,824.838867 
	C703.835876,815.903259 689.635193,807.198730 675.534851,798.334595 
	C674.002075,797.371033 672.498535,795.677917 671.912048,793.998291 
	C666.312744,777.963379 660.982544,761.834473 655.397034,745.794617 
	C654.348328,742.783020 654.543823,740.669556 656.771118,738.186768 
	C663.667053,730.499695 670.352722,722.618225 676.938293,714.661926 
	C678.893250,712.300049 680.429077,712.125549 683.192627,713.454102 
	C707.570374,725.173828 727.732910,741.929443 743.672607,763.732239 
	C744.890564,765.398254 745.554199,767.972717 745.409241,770.050598 
	C744.424072,784.175354 743.294617,798.294983 741.825195,812.375854 
	C741.596924,814.563721 739.811462,817.070068 738.010559,818.507629 
	C734.782104,821.084778 730.796326,822.700378 727.497375,825.205566 
	C724.276611,827.651611 721.556458,827.625977 718.334412,824.838867 
z"/>
<path fill="#08E18F" opacity="1.000000" stroke="none" 
	d="
M708.618042,879.517822 
	C708.010193,882.200623 707.529846,884.480347 707.002991,886.749390 
	C704.190002,898.864136 707.210632,896.166870 695.173218,898.017151 
	C680.056335,900.340942 664.873169,902.233337 649.408752,904.354309 
	C647.547668,899.929749 645.829041,895.824219 644.095215,891.725098 
	C638.582581,878.692444 633.162903,865.618896 627.476257,852.662537 
	C626.118042,849.567932 626.559692,847.867126 629.048706,845.495117 
	C641.704285,833.434265 654.173767,821.173584 666.503418,808.779114 
	C669.028870,806.240295 670.749878,806.190430 673.658081,808.027100 
	C688.152771,817.180969 702.787781,826.112549 718.029419,835.527588 
	C714.950928,849.945801 711.837524,864.527832 708.618042,879.517822 
z"/>
<path fill="#09E18F" opacity="1.000000" stroke="none" 
	d="
M493.399292,779.062012 
	C508.321259,779.056335 522.788940,779.056335 537.895325,779.056335 
	C540.418274,791.163025 542.554138,804.485535 546.110352,817.417480 
	C548.558838,826.321167 546.755066,832.494324 540.305664,839.044922 
	C529.693665,849.823303 520.121033,861.625000 509.692383,873.469910 
	C502.046661,868.113708 494.448029,862.829346 486.894073,857.481873 
	C483.223114,854.883240 479.870056,851.732971 475.950409,849.614502 
	C471.223938,847.060059 470.883728,843.570129 471.441376,838.840576 
	C473.746063,819.293945 479.047455,800.661865 487.441345,782.873108 
	C488.603119,780.411133 489.810974,778.465515 493.399292,779.062012 
z"/>
<path fill="#08E08F" opacity="1.000000" stroke="none" 
	d="
M762.443604,842.559814 
	C770.970581,848.807068 772.632141,856.575134 771.421631,866.652466 
	C768.677612,889.496094 762.065125,910.858887 750.871704,930.876892 
	C749.493958,933.340820 737.547302,939.139832 734.782532,938.411987 
	C733.753052,938.140991 732.787231,936.805908 732.219421,935.730591 
	C726.469910,924.842285 720.738281,913.942810 715.200745,902.946167 
	C714.390198,901.336426 714.087402,899.090820 714.453552,897.327148 
	C718.410217,878.271423 722.465271,859.234558 726.752563,840.251099 
	C727.228638,838.143066 728.933350,835.876892 730.719849,834.585693 
	C735.287170,831.284729 740.222473,828.493103 744.408447,825.874512 
	C750.547485,831.544373 756.372925,836.924683 762.443604,842.559814 
z"/>
<path fill="#08E08F" opacity="1.000000" stroke="none" 
	d="
M516.468384,962.529907 
	C487.927948,933.660950 473.456818,899.034790 470.954407,858.039490 
	C476.920380,862.212585 481.892212,866.385559 487.471191,869.454834 
	C501.069153,876.935608 509.030609,887.755066 513.670349,902.889160 
	C518.507385,918.667053 526.548828,933.491211 533.586609,948.546570 
	C535.461731,952.557861 536.077454,955.602661 533.217834,959.335999 
	C530.530334,962.844421 528.507446,966.861816 525.881775,971.163879 
	C522.546448,968.109192 519.634583,965.442322 516.468384,962.529907 
z"/>
<path fill="#08E08E" opacity="1.000000" stroke="none" 
	d="
M538.285645,725.252563 
	C548.918823,719.471924 559.251587,713.891235 569.756042,708.217773 
	C573.795105,715.589233 577.356750,721.778076 580.522766,728.163025 
	C581.072021,729.270752 580.483215,731.802002 579.516602,732.672180 
	C566.648743,744.256165 553.636353,755.680298 540.594910,767.069580 
	C539.676636,767.871582 538.258423,768.477844 537.052185,768.515320 
	C523.906372,768.924500 510.756592,769.206421 497.607269,769.494812 
	C497.179077,769.504150 496.744263,769.212830 495.826965,768.891663 
	C506.935913,751.297913 520.988342,736.966125 538.285645,725.252563 
z"/>
<path fill="#08E08E" opacity="1.000000" stroke="none" 
	d="
M554.423218,961.523804 
	C569.448730,964.160461 584.078430,966.583923 598.636292,969.381104 
	C600.887512,969.813721 603.493713,971.500183 604.766235,973.392944 
	C610.620056,982.100586 616.074036,991.077576 621.633606,999.981628 
	C622.652527,1001.613464 623.495911,1003.354736 624.891846,1005.908020 
	C590.771301,1006.228149 560.916992,996.543762 533.504944,977.275085 
	C536.790100,971.810913 539.756958,966.643250 543.014526,961.665894 
	C543.623657,960.735229 545.422363,960.085938 546.629028,960.147766 
	C549.102783,960.274475 551.547363,960.971130 554.423218,961.523804 
z"/>
<path fill="#08E08E" opacity="1.000000" stroke="none" 
	d="
M627.909546,699.910034 
	C642.398071,700.579651 656.044617,702.952454 670.018677,708.242188 
	C662.405457,717.192566 655.291870,725.696960 647.945435,733.995117 
	C647.123352,734.923767 644.915649,735.128540 643.459961,734.916626 
	C626.842346,732.497314 610.240601,729.965820 593.654358,727.339600 
	C592.358765,727.134460 590.674744,726.293701 590.083313,725.237671 
	C586.611816,719.038208 583.411499,712.686890 579.875366,705.919250 
	C595.679565,701.108704 611.399841,699.375488 627.909546,699.910034 
z"/>
<path fill="#07DF8E" opacity="1.000000" stroke="none" 
	d="
M763.092834,829.918091 
	C762.383301,829.183777 761.992676,828.601501 761.454041,828.239685 
	C751.896057,821.818542 749.712158,813.043762 752.126099,802.110901 
	C753.567932,795.580872 753.551208,788.728760 754.221985,781.687256 
	C761.507629,791.131836 770.979858,822.604858 770.901367,837.849487 
	C767.969727,834.871948 765.656311,832.522400 763.092834,829.918091 
z"/>
<path fill="#07CE8C" opacity="1.000000" stroke="none" 
	d="
M727.859436,958.874756 
	C733.806580,948.496643 733.806580,948.496643 739.085022,947.733154 
	C735.446777,951.868774 732.237122,955.517151 728.611206,959.201904 
	C728.195007,959.238281 727.859436,958.874756 727.859436,958.874756 
z"/>
<path fill="#07CE8C" opacity="1.000000" stroke="none" 
	d="
M728.360535,959.422119 
	C728.148315,959.777893 727.770569,959.949829 727.392822,960.121826 
	C727.381042,959.823242 727.369263,959.524658 727.608459,959.050415 
	C727.859436,958.874756 728.195007,959.238281 728.360535,959.422119 
z"/>
<path fill="#07CE8C" opacity="1.000000" stroke="none" 
	d="
M726.329590,962.232056 
	C726.329590,962.232056 726.224243,961.924805 726.224243,961.924805 
	C726.224243,961.924805 726.207031,962.097229 726.226257,962.167664 
	C726.245483,962.238098 726.329590,962.232056 726.329590,962.232056 
z"/>
<path fill="#07CE8C" opacity="1.000000" stroke="none" 
	d="
M726.232666,962.278320 
	C726.219910,962.318481 726.050415,962.084412 726.050415,962.084412 
	C726.050415,962.084412 726.187073,962.334961 726.258301,962.283508 
	C726.329590,962.232056 726.245483,962.238098 726.232666,962.278320 
z"/>
<path fill="#051625" opacity="1.000000" stroke="none" 
	d="
M859.432495,831.368408 
	C860.122375,829.835693 860.632324,828.637207 861.331909,826.992737 
	C858.054810,825.756104 854.969116,824.633362 851.916016,823.428345 
	C848.615295,822.125610 846.324829,819.934509 847.739136,816.165955 
	C849.170288,812.352356 852.307556,812.313843 855.645874,813.594055 
	C855.956970,813.713379 856.265320,813.840820 856.579285,813.952148 
	C860.308533,815.273804 864.413757,818.198975 867.657898,817.440857 
	C870.628235,816.746704 872.653687,812.060181 875.122559,809.155762 
	C877.809631,805.994568 880.527771,802.859741 883.509888,799.390625 
	C880.773376,797.359985 878.220093,795.547546 875.759338,793.617249 
	C873.054260,791.495361 871.074890,788.826416 873.493591,785.524475 
	C875.925903,782.204224 878.874084,783.373840 881.815552,785.336731 
	C886.023621,788.144836 890.428711,790.656311 894.677979,793.405151 
	C895.616699,794.012451 896.406006,794.989502 897.007202,795.956116 
	C899.971863,800.722412 902.802490,805.572327 905.777222,810.332153 
	C907.513245,813.109985 908.668030,816.028442 905.534668,818.293884 
	C902.223938,820.687561 899.633057,818.819824 897.579163,815.912964 
	C895.588074,813.094971 893.530396,810.323975 890.901306,806.705750 
	C885.733826,812.669189 881.019287,818.110046 875.994141,823.909241 
	C879.478394,827.039429 882.421143,829.683472 885.364258,832.326965 
	C887.741455,834.462158 888.982971,836.931946 886.570740,839.688782 
	C884.237244,842.355652 881.495361,841.775940 879.043823,839.740540 
	C876.390808,837.537903 873.882568,835.160828 870.537537,832.167542 
	C867.096313,839.778625 863.927063,846.788269 860.666199,854.000488 
	C865.039978,856.111816 868.772583,857.898499 872.491272,859.713440 
	C875.459473,861.162048 877.711731,863.208740 876.029846,866.765320 
	C874.335510,870.348511 871.216553,869.782471 868.275085,868.521057 
	C865.074768,867.148621 861.962463,865.570801 857.811584,863.610168 
	C856.542786,871.103271 855.351501,878.138550 854.102356,885.515564 
	C859.304016,886.627808 863.655762,887.609680 868.030273,888.476868 
	C871.346375,889.134277 873.626221,891.239685 872.365662,894.309692 
	C871.657654,896.034058 868.402283,897.629517 866.275391,897.654541 
	C862.401733,897.700073 858.513672,896.533142 853.694824,895.712524 
	C854.626770,903.637512 855.468872,910.799072 856.361206,918.387207 
	C861.250671,917.983521 865.381287,917.709961 869.495789,917.281311 
	C872.711304,916.946289 875.359314,917.656677 875.825012,921.234375 
	C876.315674,925.003662 873.907898,926.609558 870.483521,927.027344 
	C867.024536,927.449402 863.564514,927.862061 859.051270,928.405762 
	C861.416504,934.954041 863.634644,941.095093 866.096619,947.911072 
	C870.313721,946.295227 873.972229,944.900391 877.625305,943.491272 
	C880.677246,942.314026 883.700745,941.809631 885.157410,945.606873 
	C886.546448,949.227722 884.288513,951.234497 881.244507,952.519958 
	C878.073975,953.858826 874.857788,955.089600 871.108215,956.588928 
	C873.447998,960.531067 875.484375,963.918091 877.476013,967.331177 
	C879.200562,970.286499 879.417358,973.151245 876.140564,975.127319 
	C872.925171,977.066284 870.374817,975.740295 868.547363,972.812744 
	C866.265503,969.157227 864.087524,965.436768 861.639832,961.370850 
	C858.502930,963.404724 855.505676,965.404907 852.450378,967.312134 
	C849.659302,969.054321 846.557800,969.846985 844.507629,966.646423 
	C842.400696,963.356995 844.111206,960.744019 847.134460,958.700317 
	C856.440918,952.409119 856.392578,952.379700 852.678711,942.138306 
	C851.380127,938.557251 850.224792,934.924255 848.832092,930.806763 
	C845.524658,932.080139 842.353943,933.360901 839.139648,934.520996 
	C836.089722,935.621765 832.932678,935.947510 831.523865,932.289673 
	C830.061279,928.492065 832.436157,926.476074 835.763550,925.145325 
	C846.150513,920.991394 846.094788,920.966675 844.707214,910.070312 
	C844.122253,905.476196 843.764893,900.853027 843.258972,895.791931 
	C839.429688,896.249512 835.830200,896.680847 832.230347,897.109375 
	C828.999573,897.494019 826.430298,896.597656 826.041016,893.002380 
	C825.671021,889.585449 827.596191,887.884827 830.960754,887.366394 
	C835.051880,886.736023 840.391479,887.092590 842.797852,884.657410 
	C845.175537,882.251221 844.518921,876.886963 845.286987,872.838074 
	C846.000061,869.078552 846.836731,865.342407 847.746521,860.985291 
	C844.442505,860.571472 841.220093,860.160217 837.995544,859.766235 
	C834.473450,859.335876 831.649475,857.930481 832.113342,853.860779 
	C832.542358,850.097229 835.387573,849.315491 838.771851,849.510010 
	C842.883911,849.746338 847.986938,851.308411 850.852783,849.473083 
	C853.758118,847.612427 854.444275,842.301819 856.128967,838.513977 
	C857.143921,836.231934 858.209595,833.972351 859.432495,831.368408 
z"/>
</svg>