<svg version="1.1" id="Layer_1" xmlns="http://www.w3.org/2000/svg" xmlns:xlink="http://www.w3.org/1999/xlink" x="0px" y="0px"
	 width="100%" viewBox="0 0 1223 1286" enable-background="new 0 0 1223 1286" xml:space="preserve">
<path fill="#000000" opacity="1.000000" stroke="none" 
	d="
M631.000000,1287.000000 
	C420.666656,1287.000000 210.833328,1287.000000 1.000000,1287.000000 
	C1.000000,858.333313 1.000000,429.666656 1.000000,1.000000 
	C408.666656,1.000000 816.333313,1.000000 1224.000000,1.000000 
	C1224.000000,429.666656 1224.000000,858.333313 1224.000000,1287.000000 
	C1026.500000,1287.000000 829.000000,1287.000000 631.000000,1287.000000 
M846.308228,211.702194 
	C846.308228,211.702194 846.238464,211.516998 846.174194,211.168945 
	C846.033997,210.940338 845.831726,210.848831 845.283142,210.824417 
	C845.283142,210.824417 845.132324,210.573517 845.187256,209.885147 
	C844.789856,209.183487 844.551758,208.288940 843.971008,207.809357 
	C836.138306,201.341446 819.380493,201.379257 811.679138,207.921494 
	C811.075623,208.434219 811.049316,209.626495 810.653564,210.706223 
	C810.653564,210.706223 810.428101,210.733353 809.991272,210.812119 
	C809.703003,210.957901 809.534058,211.190475 809.446838,211.516602 
	C809.446838,211.516602 809.420349,211.544113 808.689331,211.463715 
	C807.693665,212.800446 806.698059,214.137177 805.720825,215.622375 
	C805.720825,215.622375 805.574097,215.651642 804.954895,215.789841 
	C804.501526,216.680740 804.048096,217.571625 803.610962,218.527130 
	C803.610962,218.527130 803.549194,218.552032 802.856140,218.658524 
	C798.460388,222.166458 798.099854,227.216537 798.064819,232.172501 
	C797.937927,250.113846 798.012573,268.056610 798.011169,285.998840 
	C798.011047,287.744843 798.011108,289.490845 798.011108,291.461792 
	C793.826172,287.687347 790.096497,284.323517 786.151611,280.377808 
	C786.047852,279.978058 785.944153,279.578308 785.943848,279.075867 
	C785.943848,279.075867 786.023743,278.953888 786.196350,278.737518 
	C786.266541,278.451813 786.198975,278.196747 786.001892,277.998230 
	C786.001892,277.998230 786.028198,278.005188 785.313660,277.575958 
	C783.509338,277.378723 781.705078,277.009308 779.900696,277.008881 
	C674.706726,276.983337 569.512756,276.982574 464.318817,277.031830 
	C462.218597,277.032806 460.118652,277.652649 458.003082,278.474335 
	C458.003082,278.474335 457.990601,278.964966 457.422668,279.269592 
	C457.104065,279.817444 456.785431,280.365265 455.867218,280.768951 
	C452.383301,281.320374 448.899384,281.871765 445.986542,282.332794 
	C444.970398,278.639404 444.057068,275.319672 443.010498,271.172058 
	C443.054932,269.781097 443.099396,268.390106 443.796265,266.608032 
	C444.188995,265.567139 444.914856,264.528809 444.922852,263.484955 
	C445.001617,253.235031 445.024658,242.983246 444.872345,232.734818 
	C444.853607,231.474899 443.716492,230.231598 442.905426,228.340698 
	C442.900330,227.897476 442.895233,227.454239 443.074646,226.785614 
	C443.139282,226.454727 443.007996,226.238235 442.378815,225.989197 
	C442.378815,225.989197 442.065552,225.868179 442.130768,225.257507 
	C442.118256,224.849136 442.105774,224.440781 442.195129,223.719040 
	C442.144958,223.347763 441.931091,223.141724 441.320312,222.983444 
	C441.320312,222.983444 441.261047,222.729111 441.462280,221.949173 
	C440.429718,220.206253 439.397186,218.463333 438.199860,216.663956 
	C438.199860,216.663956 438.216034,216.490509 438.387573,215.780029 
	C437.853333,212.039032 435.481079,210.401993 431.905212,210.099625 
	C431.905212,210.099625 431.874634,210.093185 431.752838,209.408722 
	C424.891449,200.645172 403.311829,200.921707 396.923340,209.888214 
	C396.471680,210.522125 396.391479,211.420731 396.117676,212.120224 
	C396.117676,212.120224 396.193878,212.140472 395.661591,212.294144 
	C395.395264,212.736832 395.128967,213.179535 394.810272,213.830826 
	C394.810272,213.830826 394.602936,213.887924 393.901764,213.832108 
	C393.006500,215.285995 392.111237,216.739883 391.000000,218.004120 
	C391.000000,218.004120 391.213684,218.197540 390.495178,218.291336 
	C389.003754,222.088043 386.346680,225.847870 386.225159,229.687927 
	C385.732025,245.273087 386.025055,260.882904 386.005463,276.483612 
	C386.003296,278.208191 385.855530,279.932587 385.785645,281.434113 
	C381.160217,279.845673 377.077393,278.443573 372.058624,277.014008 
	C362.749756,277.014008 353.440887,277.014008 344.132050,277.014008 
	C344.135468,277.359253 344.138885,277.704498 344.142334,278.049744 
	C353.754761,278.049744 363.367188,278.049744 372.977814,278.576477 
	C372.981964,278.752045 372.986115,278.927582 372.064331,279.253357 
	C364.074097,279.267883 356.081909,279.175537 348.094055,279.320923 
	C334.806305,279.562775 321.988647,281.996582 309.271118,288.083252 
	C286.501709,298.468750 269.630554,314.725769 259.210358,338.352509 
	C256.719513,347.572052 254.228638,356.791595 251.518005,366.411530 
	C251.518005,366.411530 251.584671,366.863403 251.255753,367.440369 
	C251.162231,369.625000 251.068695,371.809662 250.788544,374.905579 
	C250.852402,378.937744 250.916260,382.969910 250.748260,387.898407 
	C250.816833,391.598663 250.885406,395.298920 250.737946,399.913086 
	C250.818466,405.274872 250.898987,410.636688 250.780502,416.856323 
	C250.843399,418.904083 250.906311,420.951874 250.731461,423.536224 
	C250.810898,424.691925 250.890320,425.847656 250.794586,427.926056 
	C250.853638,435.951508 250.912674,443.976959 250.739990,452.836731 
	C250.817535,454.557373 250.895065,456.277985 250.776764,458.918304 
	C250.841049,467.611786 250.905334,476.305267 250.731827,485.535675 
	C250.811615,486.691895 250.891418,487.848145 250.795441,489.926819 
	C250.843826,513.956787 250.892227,537.986755 250.693161,562.767212 
	C250.778015,566.172913 250.862885,569.578613 250.776459,573.910095 
	C250.841721,583.940186 250.906998,593.970215 250.737839,604.716614 
	C250.814468,607.478516 250.891083,610.240479 250.788223,613.924561 
	C250.769928,636.010681 250.717712,658.096924 250.745316,680.182983 
	C250.763565,694.789368 250.896393,709.395569 250.743134,724.877014 
	C250.819931,727.583984 250.896729,730.290894 250.773605,733.838989 
	C250.842285,735.559875 250.910950,737.280701 250.746582,739.912781 
	C250.821243,745.941101 250.895905,751.969360 250.769928,758.916687 
	C250.834885,768.278809 250.899857,777.640991 250.731140,787.914795 
	C250.815125,795.276123 250.899109,802.637451 250.782669,810.917114 
	C250.846420,817.278748 250.910172,823.640442 250.740585,830.913940 
	C250.804596,847.274109 250.868622,863.634277 250.727386,880.905212 
	C250.796677,885.272095 250.865952,889.639038 250.720261,894.657043 
	C250.791382,895.102844 250.862503,895.548706 250.744278,896.656128 
	C250.807617,897.106018 250.870941,897.555847 250.721344,898.657471 
	C250.792679,899.103149 250.864014,899.548767 250.729034,900.892273 
	C250.795517,904.263733 250.861984,907.635132 250.695465,911.856750 
	C250.766830,913.901855 250.838196,915.947021 250.703781,918.732727 
	C250.775345,919.491028 250.846924,920.249268 250.704742,921.659546 
	C250.781418,922.104492 250.858093,922.549377 250.759811,923.778381 
	C250.835724,924.842834 250.911636,925.907227 250.805481,927.195496 
	C250.732010,927.504822 250.799118,927.769165 250.894470,928.853699 
	C251.453735,932.646118 252.013016,936.438538 252.621567,940.754883 
	C252.815323,941.235352 253.009064,941.715881 253.148666,942.878784 
	C253.321243,943.293091 253.493820,943.707336 253.654495,944.942932 
	C258.861603,967.598633 269.672150,987.326416 285.875671,1003.826172 
	C310.581146,1028.983521 340.582703,1042.344604 376.138092,1042.357666 
	C420.124725,1042.373779 464.111359,1042.343872 508.097992,1042.351074 
	C628.227844,1042.370972 748.357788,1042.317871 868.487427,1042.476685 
	C903.270874,1042.522705 932.459412,1029.540405 956.640198,1005.203735 
	C979.147034,982.551636 991.169067,954.983948 992.742065,922.030457 
	C992.768555,920.197571 992.817932,918.364685 992.818237,916.531799 
	C992.852783,736.403137 992.885376,556.274414 992.893738,376.145721 
	C992.893860,373.999603 992.579956,371.853455 992.619751,368.932526 
	C992.409424,367.621338 992.199097,366.310150 992.127075,364.194366 
	C991.936890,363.133057 991.746643,362.071716 991.627686,360.235046 
	C984.147095,314.700806 948.586060,282.350708 902.531555,279.571564 
	C891.752808,278.921173 880.910583,279.322968 869.622498,278.981110 
	C865.522339,278.981110 861.422180,278.981110 856.935669,278.981110 
	C856.935669,277.405853 856.935730,275.600983 856.935730,273.796112 
	C856.935669,259.371002 857.015442,244.944901 856.833740,230.522079 
	C856.811157,228.733093 855.398743,226.961624 854.245056,224.679382 
	C853.003479,221.830627 851.761963,218.981888 850.750000,215.877502 
	C850.449585,215.624405 850.149170,215.371307 849.953125,215.053192 
	C849.953125,215.053192 849.874084,215.147476 849.838196,214.458557 
	C849.059937,213.877426 848.281677,213.296295 847.323486,212.675568 
	C847.323486,212.675568 847.286621,212.495026 847.193726,212.097504 
	C847.036011,211.840714 846.806458,211.715668 846.308228,211.702194 
M894.417358,278.044312 
	C897.254578,278.044312 900.091797,278.044312 902.929016,278.044312 
	C902.915222,277.801910 902.901489,277.559540 902.887756,277.317139 
	C892.975525,277.317139 883.063293,277.317139 873.151062,277.317139 
	C873.151184,277.559631 873.151367,277.802094 873.151489,278.044586 
	C879.915344,278.044586 886.679138,278.044586 894.417358,278.044312 
z"/>
<path fill="#0AE290" opacity="1.000000" stroke="none" 
	d="
M310.007843,288.023621 
	C321.988647,281.996582 334.806305,279.562775 348.094055,279.320923 
	C356.081909,279.175537 364.074097,279.267883 372.782562,279.507111 
	C373.632507,282.734894 373.692444,285.714233 373.911438,288.681824 
	C374.323761,294.267975 372.896240,299.103851 370.327118,304.261108 
	C367.450226,310.036163 365.445312,316.856201 365.288971,323.275787 
	C364.348236,361.901947 405.561737,386.599365 439.812073,368.280121 
	C462.983795,355.886414 473.556824,328.440765 462.104736,306.902069 
	C457.950653,299.089233 456.220276,291.756042 456.747437,283.376923 
	C456.798523,282.564758 456.567139,281.734802 456.466858,280.913086 
	C456.785431,280.365265 457.104065,279.817444 458.163269,279.236389 
	C461.069275,279.239227 463.234619,279.306732 465.399994,279.306824 
	C532.221985,279.309448 599.044006,279.319244 665.866028,279.297333 
	C705.857483,279.284241 745.848938,279.219879 785.840454,279.178558 
	C785.944153,279.578308 786.047852,279.978058 786.151245,281.127563 
	C786.135498,282.875580 786.180725,283.879089 786.094666,284.871216 
	C785.576111,290.846802 787.201843,296.853210 783.385315,302.693481 
	C778.365173,310.375610 776.683044,319.325378 777.556396,328.542786 
	C780.802063,362.797638 815.789673,383.690948 847.889893,370.400177 
	C878.427429,357.756470 887.744080,321.716217 871.299744,300.295288 
	C870.463867,299.206451 869.958252,297.582428 869.938232,296.198303 
	C869.856140,290.547729 870.022644,284.893555 870.097534,279.240662 
	C880.910583,279.322968 891.752808,278.921173 902.531555,279.571564 
	C948.586060,282.350708 984.147095,314.700806 991.352539,360.788696 
	C991.381226,362.561188 991.684998,363.780090 991.988831,364.998962 
	C992.199097,366.310150 992.409424,367.621338 992.273071,369.689636 
	C991.618652,372.542786 991.062988,374.636658 991.044495,376.735260 
	C990.943665,388.157532 990.975281,399.580994 990.649780,411.178223 
	C989.017944,415.691864 987.697571,420.031281 986.377197,424.370697 
	C985.848083,424.377197 985.318970,424.383728 984.789856,424.390228 
	C984.180664,422.474884 983.370239,420.597748 982.997742,418.637421 
	C981.562561,411.083740 980.447815,410.061127 972.919922,409.654510 
	C970.192261,403.395386 964.721680,401.739929 959.448853,398.848450 
	C952.529968,395.054352 945.997375,396.349731 939.227051,396.387146 
	C937.496155,396.396698 935.454041,397.728668 934.108215,399.026764 
	C929.992065,402.997040 926.669800,408.101624 919.857544,407.568665 
	C919.590576,407.547760 919.267456,408.244263 918.242493,409.494354 
	C921.835144,410.060211 924.840271,410.394928 927.774902,411.046997 
	C929.572510,411.446472 931.261963,412.332489 932.601013,413.088623 
	C930.570801,413.448761 928.947937,413.881012 927.307007,413.966583 
	C913.593323,414.681946 899.869385,415.225739 886.167786,416.118195 
	C884.059570,416.255524 882.050110,417.908936 879.533325,418.933350 
	C874.049500,418.954407 869.027344,418.903290 863.881775,418.520386 
	C859.382141,414.252838 842.061646,413.798309 837.633850,417.539185 
	C837.292480,417.827545 837.202087,418.412903 836.533447,418.933105 
	C831.049561,418.955353 826.027344,418.904724 820.808960,418.552063 
	C816.782349,417.500946 812.979309,416.368195 809.115051,416.091766 
	C803.171936,415.666473 797.181824,415.955688 791.220703,415.715668 
	C779.319946,415.236359 767.418213,414.112152 755.531921,414.284637 
	C750.998535,414.350403 746.506165,417.244049 741.531738,418.921204 
	C727.713928,418.944916 714.359619,418.896393 700.874817,418.510162 
	C699.363403,417.450592 698.006836,416.157593 696.597595,416.097321 
	C685.382751,415.617645 674.156311,415.151337 662.937561,415.235260 
	C660.614380,415.252625 658.308533,417.581207 655.531738,418.917053 
	C649.047607,418.942108 643.026489,418.894714 636.887756,418.520996 
	C635.611877,417.339813 634.563477,415.995605 633.278076,415.707123 
	C622.340271,413.252197 611.283325,412.634827 600.262085,414.915497 
	C598.318176,415.317780 596.741211,417.493408 594.531494,418.922668 
	C586.713867,418.943176 579.359619,418.891052 571.839600,418.519287 
	C570.408203,417.505585 569.195923,416.354004 567.867371,416.199127 
	C562.921265,415.622559 557.941956,415.157562 552.966003,415.040192 
	C534.867798,414.613281 516.766418,414.312744 498.665161,414.030945 
	C491.875793,413.925232 485.071320,413.742188 478.296051,414.064240 
	C471.004486,414.410858 463.591003,416.539734 456.496094,415.685791 
	C445.014191,414.303894 433.674438,414.634003 422.212250,414.866760 
	C409.591797,415.123016 396.951508,414.179993 384.317108,414.065430 
	C377.849823,414.006805 371.374237,414.911255 364.906372,414.861786 
	C351.822113,414.761780 338.741333,414.104370 325.657745,414.057068 
	C312.349915,414.008942 299.039276,414.602234 285.732269,414.520721 
	C281.476135,414.494690 276.932617,413.778900 275.424774,408.398224 
	C275.207947,407.624420 274.149139,406.709381 273.341187,406.545959 
	C270.389648,405.949127 267.379333,405.642761 264.161621,405.195007 
	C259.815979,410.620605 258.817017,410.434509 255.147385,403.777740 
	C254.148178,401.965149 252.373016,400.580322 250.953979,398.999176 
	C250.885406,395.298920 250.816833,391.598663 251.190598,387.255615 
	C252.094269,383.073456 252.555603,379.534027 253.326630,375.827332 
	C254.323105,374.189178 255.251389,372.781647 255.656570,371.236938 
	C257.882446,362.751282 259.304504,353.981750 262.333344,345.802551 
	C264.806824,339.123047 269.034515,333.068237 272.707458,326.868622 
	C274.473206,323.888184 277.253326,321.447327 278.705811,318.354401 
	C282.744141,309.755035 287.832336,301.524017 296.871368,298.465393 
	C303.062561,296.370453 305.132080,290.781738 310.007843,288.023621 
M433.040924,396.901672 
	C433.046265,397.619995 432.952332,398.947357 433.071564,398.966766 
	C435.467651,399.357391 437.885864,399.739136 440.305511,399.780914 
	C441.022858,399.793304 442.426819,398.638519 442.351624,398.236206 
	C442.173279,397.282257 441.289185,395.707825 440.704834,395.714203 
	C438.346985,395.739838 435.994598,396.269440 433.040924,396.901672 
z"/>
<path fill="#07DF8E" opacity="1.000000" stroke="none" 
	d="
M973.000000,410.000000 
	C980.447815,410.061127 981.562561,411.083740 982.997742,418.637421 
	C983.370239,420.597748 984.180664,422.474884 984.789856,424.390228 
	C985.318970,424.383728 985.848083,424.377197 986.377197,424.370697 
	C987.697571,420.031281 989.017944,415.691864 990.660889,411.646362 
	C990.989929,429.272919 991.001953,446.605560 991.002075,463.938202 
	C991.003113,614.432312 990.994385,764.926392 991.064941,915.420471 
	C991.066162,917.925964 992.022095,920.431091 992.532471,922.936401 
	C991.169067,954.983948 979.147034,982.551636 956.640198,1005.203735 
	C932.459412,1029.540405 903.270874,1042.522705 868.487427,1042.476685 
	C748.357788,1042.317871 628.227844,1042.370972 508.097992,1042.351074 
	C464.111359,1042.343872 420.124725,1042.373779 376.138092,1042.357666 
	C340.582703,1042.344604 310.581146,1028.983521 285.875671,1003.826172 
	C269.672150,987.326416 258.861603,967.598633 253.789551,944.326538 
	C253.684021,943.205566 253.443420,942.700989 253.202805,942.196350 
	C253.009064,941.715881 252.815323,941.235352 252.853058,940.170471 
	C253.679047,933.885620 254.382904,928.170959 250.934769,922.994324 
	C250.858093,922.549377 250.781418,922.104492 251.079742,921.220459 
	C251.273010,919.851562 251.091293,918.921875 250.909576,917.992126 
	C250.838196,915.947021 250.766830,913.901855 251.142029,911.242188 
	C253.525192,906.950928 254.274536,903.347107 250.935364,899.994446 
	C250.864014,899.548767 250.792679,899.103149 251.049408,898.244995 
	C251.229523,897.219910 251.081573,896.607178 250.933624,895.994507 
	C250.862503,895.548706 250.791382,895.102844 251.160309,894.137817 
	C253.540573,888.971191 254.505707,884.371582 250.932617,879.994446 
	C250.868622,863.634277 250.804596,847.274109 251.187531,830.259888 
	C252.051788,823.967346 252.557938,818.332581 252.792770,812.686462 
	C252.828934,811.817139 251.617523,810.895996 250.983093,809.998779 
	C250.899109,802.637451 250.815125,795.276123 251.179688,787.261963 
	C252.038651,785.917419 252.796112,785.230774 252.806290,784.533203 
	C252.919815,776.751404 252.994141,768.966614 252.858932,761.186462 
	C252.840271,760.112915 251.629471,759.060120 250.970581,757.997681 
	C250.895905,751.969360 250.821243,745.941101 251.166962,739.291992 
	C253.621201,736.537842 253.499451,734.637817 250.973511,732.997864 
	C250.896729,730.290894 250.819931,727.583984 251.190521,724.240967 
	C252.092972,721.746582 252.942993,719.888794 252.945389,718.029968 
	C253.007675,669.646851 252.981964,621.263672 252.968262,572.437012 
	C252.967041,568.701904 252.968948,565.410217 252.977173,561.642456 
	C252.990494,528.846191 253.034836,496.525909 252.917328,464.206177 
	C252.909790,462.134674 251.649918,460.067719 250.972610,457.998627 
	C250.895065,456.277985 250.817535,454.557373 251.187027,452.222107 
	C252.076935,450.584808 252.893707,449.566010 252.904480,448.538818 
	C253.005264,438.924103 253.039627,429.306763 252.882370,419.693604 
	C252.862076,418.451843 251.643188,417.229706 250.979507,415.998474 
	C250.898987,410.636688 250.818466,405.274872 250.845963,399.456116 
	C252.373016,400.580322 254.148178,401.965149 255.147385,403.777740 
	C258.817017,410.434509 259.815979,410.620605 264.161621,405.195007 
	C267.379333,405.642761 270.389648,405.949127 273.341187,406.545959 
	C274.149139,406.709381 275.207947,407.624420 275.424774,408.398224 
	C276.932617,413.778900 281.476135,414.494690 285.732269,414.520721 
	C299.039276,414.602234 312.349915,414.008942 325.657745,414.057068 
	C338.741333,414.104370 351.822113,414.761780 364.906372,414.861786 
	C371.374237,414.911255 377.849823,414.006805 384.317108,414.065430 
	C396.951508,414.179993 409.591797,415.123016 422.212250,414.866760 
	C433.674438,414.634003 445.014191,414.303894 456.496094,415.685791 
	C463.591003,416.539734 471.004486,414.410858 478.296051,414.064240 
	C485.071320,413.742188 491.875793,413.925232 498.665161,414.030945 
	C516.766418,414.312744 534.867798,414.613281 552.966003,415.040192 
	C557.941956,415.157562 562.921265,415.622559 567.867371,416.199127 
	C569.195923,416.354004 570.408203,417.505585 571.375854,418.595337 
	C569.247559,419.005524 567.417236,419.032623 565.586975,419.032776 
	C468.408813,419.041229 371.230682,419.047394 273.727997,419.253174 
	C272.936066,421.802277 272.062531,424.151581 272.060242,426.501770 
	C271.989441,498.954742 272.004059,571.407776 272.005127,643.860840 
	C272.006470,733.469421 271.992462,823.078003 272.088501,912.686523 
	C272.091125,915.112915 273.280579,917.537964 274.055298,920.345581 
	C278.513428,952.169495 293.388428,977.439636 318.800140,996.397522 
	C334.611847,1008.193481 352.530670,1014.874146 372.295715,1017.600830 
	C374.758514,1018.252319 376.990631,1018.936523 379.223572,1018.939148 
	C432.354858,1019.001587 485.486298,1018.992737 538.617676,1018.984680 
	C540.159119,1018.984436 541.700623,1018.853394 543.708130,1018.762146 
	C542.835144,1018.082214 542.449463,1017.781860 542.335327,1017.337158 
	C542.755310,1017.116455 542.928162,1017.065979 543.044861,1016.955933 
	C543.154724,1016.852417 543.281982,1016.571228 543.271118,1016.563965 
	C542.220398,1015.862793 541.210876,1015.072815 540.087097,1014.512390 
	C507.303833,998.161011 481.827667,973.912048 464.878967,941.602783 
	C431.085144,877.181702 434.243958,813.741516 472.839233,752.275024 
	C508.921082,694.811523 581.666199,661.942322 648.462524,673.675049 
	C707.737305,684.086670 751.135132,717.396912 778.522217,770.582214 
	C823.552917,858.031128 789.285950,967.107178 702.761536,1014.491516 
	C701.465576,1015.201172 700.531616,1016.571777 699.456909,1017.903931 
	C700.543945,1018.445923 701.602478,1018.955444 702.661438,1018.956116 
	C757.455383,1018.991821 812.249268,1018.999207 867.043091,1018.909668 
	C868.678345,1018.906982 870.311951,1017.839722 872.346802,1017.135620 
	C907.996033,1012.689575 934.590637,994.767944 953.468018,965.123230 
	C961.821533,952.005005 966.013489,937.272949 968.531555,921.734741 
	C969.215515,919.451355 969.944214,917.393494 969.944885,915.335327 
	C969.996277,749.897583 969.990845,584.459778 969.957031,418.639221 
	C969.274841,414.880402 968.049194,411.289795 973.000000,410.000000 
M666.337891,1008.843628 
	C667.444824,1008.477112 668.556213,1008.123596 669.657959,1007.742310 
	C769.178711,973.300842 811.798889,858.877930 758.525024,769.164001 
	C707.434692,683.127258 592.784851,664.116577 517.422424,729.185608 
	C450.281097,787.156433 441.845581,891.917664 500.418427,958.833374 
	C544.554993,1009.256531 600.146973,1026.393188 666.337891,1008.843628 
z"/>
<path fill="#09E18F" opacity="1.000000" stroke="none" 
	d="
M441.261047,222.729111 
	C441.261047,222.729111 441.320312,222.983444 441.530396,223.299271 
	C441.858032,223.754196 441.975647,223.893295 442.093262,224.032410 
	C442.105774,224.440781 442.118256,224.849136 441.943390,225.958954 
	C441.521515,229.125229 441.088287,231.589691 441.083344,234.054993 
	C441.033539,258.791504 441.049988,283.528137 441.059784,308.264740 
	C441.061096,311.521576 441.129761,314.778381 441.127014,318.395966 
	C435.642609,331.828857 423.372406,338.958374 410.532806,336.509918 
	C396.733429,333.878479 387.973083,323.036743 387.949005,308.432373 
	C387.909515,284.486908 387.703400,260.538025 388.065521,236.598145 
	C388.158508,230.450150 390.113861,224.330307 391.213684,218.197540 
	C391.213684,218.197540 391.000000,218.004120 391.372559,217.935959 
	C392.697693,216.541168 393.650299,215.214539 394.602936,213.887924 
	C394.602936,213.887924 394.810272,213.830826 395.068909,213.607941 
	C395.616333,212.970184 395.905090,212.555328 396.193878,212.140472 
	C396.193878,212.140472 396.117676,212.120224 396.455719,212.045731 
	C408.038269,202.956146 419.767975,203.004150 431.874634,210.093185 
	C431.874634,210.093185 431.905212,210.099625 432.057922,210.403900 
	C434.212433,212.635620 436.214233,214.563065 438.216034,216.490509 
	C438.216034,216.490509 438.199860,216.663956 438.380280,217.005661 
	C439.460815,219.141281 440.360931,220.935196 441.261047,222.729111 
z"/>
<path fill="#09E18F" opacity="1.000000" stroke="none" 
	d="
M850.520447,216.133148 
	C851.761963,218.981888 853.003479,221.830627 854.488281,225.386215 
	C854.852478,227.584274 855.078064,229.075424 855.079041,230.566727 
	C855.096558,257.194427 855.168213,283.822479 855.047180,310.449677 
	C854.990479,322.909637 845.552612,333.694366 832.788330,336.406158 
	C820.602600,338.994995 808.155579,332.598816 803.013550,320.712341 
	C803.099854,305.632965 802.992126,290.870850 802.987183,276.108673 
	C802.980957,257.485321 803.058655,238.861984 803.161438,219.952667 
	C803.331604,219.295151 803.440430,218.923599 803.549194,218.552032 
	C803.549194,218.552032 803.610962,218.527130 803.824341,218.310730 
	C804.549805,217.280121 805.061951,216.465881 805.574097,215.651642 
	C805.574097,215.651642 805.720825,215.622375 805.959106,215.379333 
	C807.271729,213.938919 808.346069,212.741516 809.420349,211.544128 
	C809.420349,211.544113 809.446838,211.516602 809.664185,211.439728 
	C810.129456,211.210083 810.311646,211.000244 810.428101,210.733353 
	C810.428101,210.733353 810.653564,210.706223 811.009949,210.474945 
	C822.693176,203.033432 833.946594,203.335709 845.132324,210.573517 
	C845.132324,210.573517 845.283142,210.824417 845.477783,211.016144 
	C845.807373,211.409134 845.996094,211.512177 846.238464,211.516998 
	C846.238464,211.516998 846.308228,211.702194 846.491577,211.882263 
	C846.830872,212.274307 847.034790,212.418533 847.286621,212.495026 
	C847.286621,212.495026 847.323486,212.675568 847.563965,212.940292 
	C848.494324,213.852493 849.184204,214.499985 849.874084,215.147476 
	C849.874084,215.147476 849.953125,215.053192 849.923462,215.305115 
	C849.999146,215.861694 850.208008,216.053711 850.520447,216.133148 
z"/>
<path fill="#061324" opacity="1.000000" stroke="none" 
	d="
M802.864990,321.029541 
	C808.155579,332.598816 820.602600,338.994995 832.788330,336.406158 
	C845.552612,333.694366 854.990479,322.909637 855.047180,310.449677 
	C855.168213,283.822479 855.096558,257.194427 855.079041,230.566727 
	C855.078064,229.075424 854.852478,227.584274 854.680908,225.637543 
	C855.398743,226.961624 856.811157,228.733093 856.833740,230.522079 
	C857.015442,244.944901 856.935669,259.371002 856.935730,273.796112 
	C856.935730,275.600983 856.935669,277.405853 856.935669,278.981110 
	C861.422180,278.981110 865.522339,278.981110 869.860046,279.110901 
	C870.022644,284.893555 869.856140,290.547729 869.938232,296.198303 
	C869.958252,297.582428 870.463867,299.206451 871.299744,300.295288 
	C887.744080,321.716217 878.427429,357.756470 847.889893,370.400177 
	C815.789673,383.690948 780.802063,362.797638 777.556396,328.542786 
	C776.683044,319.325378 778.365173,310.375610 783.385315,302.693481 
	C787.201843,296.853210 785.576111,290.846802 786.094666,284.871216 
	C786.180725,283.879089 786.135498,282.875580 786.258911,281.418518 
	C790.096497,284.323517 793.826172,287.687347 798.011108,291.461792 
	C798.011108,289.490845 798.011047,287.744843 798.011169,285.998840 
	C798.012573,268.056610 797.937927,250.113846 798.064819,232.172501 
	C798.099854,227.216537 798.460388,222.166458 803.202637,218.605286 
	C803.440430,218.923599 803.331604,219.295151 802.939209,220.225327 
	C801.797363,224.466415 800.224182,228.143311 800.195496,231.832230 
	C799.992493,257.915955 800.000122,284.003174 800.241211,310.086487 
	C800.275024,313.741943 801.949829,317.382233 802.864990,321.029541 
z"/>
<path fill="#061223" opacity="1.000000" stroke="none" 
	d="
M390.854431,218.244446 
	C390.113861,224.330307 388.158508,230.450150 388.065521,236.598145 
	C387.703400,260.538025 387.909515,284.486908 387.949005,308.432373 
	C387.973083,323.036743 396.733429,333.878479 410.532806,336.509918 
	C423.372406,338.958374 435.642609,331.828857 441.346375,318.091492 
	C442.014435,314.669312 442.728760,311.917908 442.778961,309.154419 
	C443.003845,296.771454 443.039642,284.385071 443.143707,271.999908 
	C444.057068,275.319672 444.970398,278.639404 445.986542,282.332794 
	C448.899384,281.871765 452.383301,281.320374 456.167053,280.841034 
	C456.567139,281.734802 456.798523,282.564758 456.747437,283.376923 
	C456.220276,291.756042 457.950653,299.089233 462.104736,306.902069 
	C473.556824,328.440765 462.983795,355.886414 439.812073,368.280121 
	C405.561737,386.599365 364.348236,361.901947 365.288971,323.275787 
	C365.445312,316.856201 367.450226,310.036163 370.327118,304.261108 
	C372.896240,299.103851 374.323761,294.267975 373.911438,288.681824 
	C373.692444,285.714233 373.632507,282.734894 373.245544,279.432007 
	C372.986115,278.927582 372.981964,278.752045 372.983765,278.060852 
	C372.991364,277.377289 372.992981,277.209381 372.994568,277.041473 
	C377.077393,278.443573 381.160217,279.845673 385.785645,281.434113 
	C385.855530,279.932587 386.003296,278.208191 386.005463,276.483612 
	C386.025055,260.882904 385.732025,245.273087 386.225159,229.687927 
	C386.346680,225.847870 389.003754,222.088043 390.854431,218.244446 
z"/>
<path fill="#05FA9F" opacity="1.000000" stroke="none" 
	d="
M992.637268,922.483398 
	C992.022095,920.431091 991.066162,917.925964 991.064941,915.420471 
	C990.994385,764.926392 991.003113,614.432312 991.002075,463.938202 
	C991.001953,446.605560 990.989929,429.272919 990.972351,411.472168 
	C990.975281,399.580994 990.943665,388.157532 991.044495,376.735260 
	C991.062988,374.636658 991.618652,372.542786 992.169434,370.077026 
	C992.579956,371.853455 992.893860,373.999603 992.893738,376.145721 
	C992.885376,556.274414 992.852783,736.403137 992.818237,916.531799 
	C992.817932,918.364685 992.768555,920.197571 992.637268,922.483398 
z"/>
<path fill="#07DF8E" opacity="1.000000" stroke="none" 
	d="
M309.639465,288.053436 
	C305.132080,290.781738 303.062561,296.370453 296.871368,298.465393 
	C287.832336,301.524017 282.744141,309.755035 278.705811,318.354401 
	C277.253326,321.447327 274.473206,323.888184 272.707458,326.868622 
	C269.034515,333.068237 264.806824,339.123047 262.333344,345.802551 
	C259.304504,353.981750 257.882446,362.751282 255.656570,371.236938 
	C255.251389,372.781647 254.323105,374.189178 253.323227,375.399506 
	C252.991867,373.712006 252.973587,372.285034 252.933929,370.497864 
	C252.469940,369.046295 252.027298,367.954834 251.584656,366.863403 
	C251.584671,366.863403 251.518005,366.411530 251.848755,366.074829 
	C252.445938,365.517120 252.712372,365.296143 253.163971,364.888489 
	C253.559631,364.421539 253.770157,364.141235 253.985336,363.458191 
	C255.765762,356.206818 257.585846,349.369171 259.282196,342.500946 
	C259.648193,341.019135 259.568420,339.427185 259.693970,337.885986 
	C269.630554,314.725769 286.501709,298.468750 309.639465,288.053436 
z"/>
<path fill="#01000D" opacity="1.000000" stroke="none" 
	d="
M785.892090,279.127197 
	C745.848938,279.219879 705.857483,279.284241 665.866028,279.297333 
	C599.044006,279.319244 532.221985,279.309448 465.399994,279.306824 
	C463.234619,279.306732 461.069275,279.239227 458.447266,279.084045 
	C457.990601,278.964966 458.003082,278.474335 458.477386,278.234924 
	C567.977173,277.998718 677.002686,278.001953 786.028198,278.005188 
	C786.028198,278.005188 786.001892,277.998230 786.006470,278.230774 
	C786.010986,278.463348 786.023743,278.953888 786.023743,278.953888 
	C786.023743,278.953888 785.943848,279.075867 785.892090,279.127197 
z"/>
<path fill="#051625" opacity="1.000000" stroke="none" 
	d="
M785.670898,277.790588 
	C677.002686,278.001953 567.977173,277.998718 458.485138,277.989624 
	C460.118652,277.652649 462.218597,277.032806 464.318817,277.031830 
	C569.512756,276.982574 674.706726,276.983337 779.900696,277.008881 
	C781.705078,277.009308 783.509338,277.378723 785.670898,277.790588 
z"/>
<path fill="#09EA95" opacity="1.000000" stroke="none" 
	d="
M252.971405,572.880493 
	C252.981964,621.263672 253.007675,669.646851 252.945389,718.029968 
	C252.942993,719.888794 252.092972,721.746582 251.307907,723.803345 
	C250.896393,709.395569 250.763565,694.789368 250.745316,680.182983 
	C250.717712,658.096924 250.769928,636.010681 251.076752,613.129944 
	C251.234283,609.557007 251.103271,606.778625 250.972260,604.000305 
	C250.906998,593.970215 250.841721,583.940186 251.199783,573.434937 
	C252.072540,572.933411 252.521973,572.906982 252.971405,572.880493 
z"/>
<path fill="#09EA95" opacity="1.000000" stroke="none" 
	d="
M250.874695,458.458466 
	C251.649918,460.067719 252.909790,462.134674 252.917328,464.206177 
	C253.034836,496.525909 252.990494,528.846191 252.639420,561.619995 
	C251.843765,562.054688 251.392197,562.035706 250.940613,562.016724 
	C250.892227,537.986755 250.843826,513.956787 251.064911,489.209351 
	C251.212799,487.327515 251.091217,486.163116 250.969635,484.998749 
	C250.905334,476.305267 250.841049,467.611786 250.874695,458.458466 
z"/>
<path fill="#07CE8C" opacity="1.000000" stroke="none" 
	d="
M443.077087,271.585999 
	C443.039642,284.385071 443.003845,296.771454 442.778961,309.154419 
	C442.728760,311.917908 442.014435,314.669312 441.386536,317.730774 
	C441.129761,314.778381 441.061096,311.521576 441.059784,308.264740 
	C441.049988,283.528137 441.033539,258.791504 441.083344,234.054993 
	C441.088287,231.589691 441.521515,229.125229 441.910767,226.264282 
	C442.065552,225.868179 442.378815,225.989197 442.501282,226.300690 
	C442.623779,226.612198 442.890137,227.011017 442.890137,227.011017 
	C442.895233,227.454239 442.900330,227.897476 442.914124,229.123657 
	C442.996490,242.270782 443.070160,254.634964 443.143860,266.999146 
	C443.099396,268.390106 443.054932,269.781097 443.077087,271.585999 
z"/>
<path fill="#061223" opacity="1.000000" stroke="none" 
	d="
M431.813721,209.750946 
	C419.767975,203.004150 408.038269,202.956146 396.466187,212.083740 
	C396.391479,211.420731 396.471680,210.522125 396.923340,209.888214 
	C403.311829,200.921707 424.891449,200.645172 431.813721,209.750946 
z"/>
<path fill="#061324" opacity="1.000000" stroke="none" 
	d="
M845.159790,210.229340 
	C833.946594,203.335709 822.693176,203.033432 811.060547,210.373306 
	C811.049316,209.626495 811.075623,208.434219 811.679138,207.921494 
	C819.380493,201.379257 836.138306,201.341446 843.971008,207.809357 
	C844.551758,208.288940 844.789856,209.183487 845.159790,210.229340 
z"/>
<path fill="#061223" opacity="1.000000" stroke="none" 
	d="
M443.470032,266.803589 
	C443.070160,254.634964 442.996490,242.270782 443.010223,229.443604 
	C443.716492,230.231598 444.853607,231.474899 444.872345,232.734818 
	C445.024658,242.983246 445.001617,253.235031 444.922852,263.484955 
	C444.914856,264.528809 444.188995,265.567139 443.470032,266.803589 
z"/>
<path fill="#07CE8C" opacity="1.000000" stroke="none" 
	d="
M252.978821,365.075134 
	C252.712372,365.296143 252.445938,365.517120 251.958618,365.874634 
	C254.228638,356.791595 256.719513,347.572052 259.452148,338.119263 
	C259.568420,339.427185 259.648193,341.019135 259.282196,342.500946 
	C257.585846,349.369171 255.765762,356.206818 253.798721,363.644836 
	C253.397903,364.514526 253.188354,364.794830 252.978821,365.075134 
z"/>
<path fill="#09EA95" opacity="1.000000" stroke="none" 
	d="
M250.880005,416.427399 
	C251.643188,417.229706 252.862076,418.451843 252.882370,419.693604 
	C253.039627,429.306763 253.005264,438.924103 252.904480,448.538818 
	C252.893707,449.566010 252.076935,450.584808 251.302887,451.804962 
	C250.912674,443.976959 250.853638,435.951508 251.063736,427.208679 
	C251.211670,425.327423 251.090439,424.163513 250.969223,422.999634 
	C250.906311,420.951874 250.843399,418.904083 250.880005,416.427399 
z"/>
<path fill="#09EA95" opacity="1.000000" stroke="none" 
	d="
M250.870270,758.457153 
	C251.629471,759.060120 252.840271,760.112915 252.858932,761.186462 
	C252.994141,768.966614 252.919815,776.751404 252.806290,784.533203 
	C252.796112,785.230774 252.038651,785.917419 251.296539,786.806152 
	C250.899857,777.640991 250.834885,768.278809 250.870270,758.457153 
z"/>
<path fill="#09EA95" opacity="1.000000" stroke="none" 
	d="
M250.882889,810.457947 
	C251.617523,810.895996 252.828934,811.817139 252.792770,812.686462 
	C252.557938,818.332581 252.051788,823.967346 251.304199,829.803955 
	C250.910172,823.640442 250.846420,817.278748 250.882889,810.457947 
z"/>
<path fill="#09EA95" opacity="1.000000" stroke="none" 
	d="
M250.847290,923.386353 
	C254.382904,928.170959 253.679047,933.885620 252.828415,939.908508 
	C252.013016,936.438538 251.453735,932.646118 250.976913,928.166260 
	C251.035416,927.309753 251.011490,927.140686 250.987549,926.971680 
	C250.911636,925.907227 250.835724,924.842834 250.847290,923.386353 
z"/>
<path fill="#051625" opacity="1.000000" stroke="none" 
	d="
M893.930176,278.044434 
	C886.679138,278.044586 879.915344,278.044586 873.151489,278.044586 
	C873.151367,277.802094 873.151184,277.559631 873.151062,277.317139 
	C883.063293,277.317139 892.975525,277.317139 902.887756,277.317139 
	C902.901489,277.559540 902.915222,277.801910 902.929016,278.044312 
	C900.091797,278.044312 897.254578,278.044312 893.930176,278.044434 
z"/>
<path fill="#051625" opacity="1.000000" stroke="none" 
	d="
M372.526611,277.027740 
	C372.992981,277.209381 372.991364,277.377289 372.984680,277.797485 
	C363.367188,278.049744 353.754761,278.049744 344.142334,278.049744 
	C344.138885,277.704498 344.135468,277.359253 344.132050,277.014008 
	C353.440887,277.014008 362.749756,277.014008 372.526611,277.027740 
z"/>
<path fill="#09EA95" opacity="1.000000" stroke="none" 
	d="
M252.955292,370.858032 
	C252.973587,372.285034 252.991867,373.712006 253.013550,375.566833 
	C252.555603,379.534027 252.094269,383.073456 251.306519,386.807465 
	C250.916260,382.969910 250.852402,378.937744 251.079254,374.214478 
	C251.898422,372.634949 252.426865,371.746490 252.955292,370.858032 
z"/>
<path fill="#09EA95" opacity="1.000000" stroke="none" 
	d="
M250.830002,880.449829 
	C254.505707,884.371582 253.540573,888.971191 251.267792,893.812256 
	C250.865952,889.639038 250.796677,885.272095 250.830002,880.449829 
z"/>
<path fill="#07CE8C" opacity="1.000000" stroke="none" 
	d="
M250.816895,562.391968 
	C251.392197,562.035706 251.843765,562.054688 252.633087,562.096130 
	C252.968948,565.410217 252.967041,568.701904 252.968262,572.437012 
	C252.521973,572.906982 252.072540,572.933411 251.285431,572.972046 
	C250.862885,569.578613 250.778015,566.172913 250.816895,562.391968 
z"/>
<path fill="#09EA95" opacity="1.000000" stroke="none" 
	d="
M250.832184,900.443359 
	C254.274536,903.347107 253.525192,906.950928 251.258530,910.817139 
	C250.861984,907.635132 250.795517,904.263733 250.832184,900.443359 
z"/>
<path fill="#07CE8C" opacity="1.000000" stroke="none" 
	d="
M250.855042,604.358459 
	C251.103271,606.778625 251.234283,609.557007 251.166504,612.668823 
	C250.891083,610.240479 250.814468,607.478516 250.855042,604.358459 
z"/>
<path fill="#061223" opacity="1.000000" stroke="none" 
	d="
M438.301819,216.135269 
	C436.214233,214.563065 434.212433,212.635620 432.064270,210.418182 
	C435.481079,210.401993 437.853333,212.039032 438.301819,216.135269 
z"/>
<path fill="#07CE8C" opacity="1.000000" stroke="none" 
	d="
M252.933945,370.497864 
	C252.426865,371.746490 251.898422,372.634949 251.172577,373.758850 
	C251.068695,371.809662 251.162231,369.625000 251.420197,367.151886 
	C252.027298,367.954834 252.469940,369.046295 252.933945,370.497864 
z"/>
<path fill="#09EA95" opacity="1.000000" stroke="none" 
	d="
M250.873566,733.418457 
	C253.499451,734.637817 253.621201,736.537842 251.283493,738.836365 
	C250.910950,737.280701 250.842285,735.559875 250.873566,733.418457 
z"/>
<path fill="#061324" opacity="1.000000" stroke="none" 
	d="
M809.054810,211.503922 
	C808.346069,212.741516 807.271729,213.938919 805.949951,215.305115 
	C806.698059,214.137177 807.693665,212.800446 809.054810,211.503922 
z"/>
<path fill="#061223" opacity="1.000000" stroke="none" 
	d="
M441.361664,222.339142 
	C440.360931,220.935196 439.460815,219.141281 438.462646,217.033890 
	C439.397186,218.463333 440.429718,220.206253 441.361664,222.339142 
z"/>
<path fill="#061223" opacity="1.000000" stroke="none" 
	d="
M394.252350,213.860016 
	C393.650299,215.214539 392.697693,216.541168 391.480530,218.030777 
	C392.111237,216.739883 393.006500,215.285995 394.252350,213.860016 
z"/>
<path fill="#07CE8C" opacity="1.000000" stroke="none" 
	d="
M250.850739,485.267212 
	C251.091217,486.163116 251.212799,487.327515 251.152802,488.748108 
	C250.891418,487.848145 250.811615,486.691895 250.850739,485.267212 
z"/>
<path fill="#07DF8E" opacity="1.000000" stroke="none" 
	d="
M992.057983,364.596680 
	C991.684998,363.780090 991.381226,362.561188 991.316895,361.176361 
	C991.746643,362.071716 991.936890,363.133057 992.057983,364.596680 
z"/>
<path fill="#07CE8C" opacity="1.000000" stroke="none" 
	d="
M250.850342,423.267944 
	C251.090439,424.163513 251.211670,425.327423 251.151321,426.747314 
	C250.890320,425.847656 250.810898,424.691925 250.850342,423.267944 
z"/>
<path fill="#09EA95" opacity="1.000000" stroke="none" 
	d="
M250.806671,918.362427 
	C251.091293,918.921875 251.273010,919.851562 251.186615,920.894409 
	C250.846924,920.249268 250.775345,919.491028 250.806671,918.362427 
z"/>
<path fill="#061324" opacity="1.000000" stroke="none" 
	d="
M849.856140,214.803009 
	C849.184204,214.499985 848.494324,213.852493 847.653931,212.960083 
	C848.281677,213.296295 849.059937,213.877426 849.856140,214.803009 
z"/>
<path fill="#061324" opacity="1.000000" stroke="none" 
	d="
M805.264526,215.720734 
	C805.061951,216.465881 804.549805,217.280121 803.816162,218.278427 
	C804.048096,217.571625 804.501526,216.680740 805.264526,215.720734 
z"/>
<path fill="#09EA95" opacity="1.000000" stroke="none" 
	d="
M250.838959,896.325317 
	C251.081573,896.607178 251.229523,897.219910 251.155884,897.919189 
	C250.870941,897.555847 250.807617,897.106018 250.838959,896.325317 
z"/>
<path fill="#09EA95" opacity="1.000000" stroke="none" 
	d="
M253.175735,942.537598 
	C253.443420,942.700989 253.684021,943.205566 253.795517,943.915894 
	C253.493820,943.707336 253.321243,943.293091 253.175735,942.537598 
z"/>
<path fill="#061223" opacity="1.000000" stroke="none" 
	d="
M395.927734,212.217316 
	C395.905090,212.555328 395.616333,212.970184 395.095093,213.503632 
	C395.128967,213.179535 395.395264,212.736832 395.927734,212.217316 
z"/>
<path fill="#061324" opacity="1.000000" stroke="none" 
	d="
M850.635254,216.005310 
	C850.208008,216.053711 849.999146,215.861694 849.871216,215.337631 
	C850.149170,215.371307 850.449585,215.624405 850.635254,216.005310 
z"/>
<path fill="#061324" opacity="1.000000" stroke="none" 
	d="
M810.209717,210.772736 
	C810.311646,211.000244 810.129456,211.210083 809.682983,211.436371 
	C809.534058,211.190475 809.703003,210.957901 810.209717,210.772736 
z"/>
<path fill="#07CE8C" opacity="1.000000" stroke="none" 
	d="
M250.896515,927.083618 
	C251.011490,927.140686 251.035416,927.309753 251.033081,927.733643 
	C250.799118,927.769165 250.732010,927.504822 250.896515,927.083618 
z"/>
<path fill="#061223" opacity="1.000000" stroke="none" 
	d="
M442.982391,226.898315 
	C442.890137,227.011017 442.623779,226.612198 442.652283,226.374146 
	C443.007996,226.238235 443.139282,226.454727 442.982391,226.898315 
z"/>
<path fill="#061223" opacity="1.000000" stroke="none" 
	d="
M442.144196,223.875732 
	C441.975647,223.893295 441.858032,223.754196 441.646973,223.358017 
	C441.931091,223.141724 442.144958,223.347763 442.144196,223.875732 
z"/>
<path fill="#061324" opacity="1.000000" stroke="none" 
	d="
M846.206299,211.342972 
	C845.996094,211.512177 845.807373,211.409134 845.619873,211.051147 
	C845.831726,210.848831 846.033997,210.940338 846.206299,211.342972 
z"/>
<path fill="#061324" opacity="1.000000" stroke="none" 
	d="
M847.240173,212.296265 
	C847.034790,212.418533 846.830872,212.274307 846.589966,211.892349 
	C846.806458,211.715668 847.036011,211.840714 847.240173,212.296265 
z"/>
<path fill="#061324" opacity="1.000000" stroke="none" 
	d="
M786.110046,278.845703 
	C786.023743,278.953888 786.010986,278.463348 786.002258,278.217834 
	C786.198975,278.196747 786.266541,278.451813 786.110046,278.845703 
z"/>
<path fill="#061124" opacity="1.000000" stroke="none" 
	d="
M372.065399,1017.315979 
	C352.530670,1014.874146 334.611847,1008.193481 318.800140,996.397522 
	C293.388428,977.439636 278.513428,952.169495 274.101135,919.882446 
	C273.957397,916.038208 273.862549,913.039124 273.862061,910.039978 
	C273.841461,782.874878 273.811218,655.709839 273.827332,528.544739 
	C273.831970,492.047760 273.973663,455.550781 274.052521,419.053802 
	C371.230682,419.047394 468.408813,419.041229 565.586975,419.032776 
	C567.417236,419.032623 569.247559,419.005524 571.541626,418.914978 
	C579.359619,418.891052 586.713867,418.943176 594.995544,418.996338 
	C609.617126,418.947357 623.311218,418.897339 637.005371,418.847351 
	C643.026489,418.894714 649.047607,418.942108 655.995605,418.992035 
	C671.616699,418.945679 686.310974,418.896759 701.005249,418.847870 
	C714.359619,418.896393 727.713928,418.944916 741.995667,418.995514 
	C768.950378,418.949768 794.977722,418.901917 821.005066,418.854095 
	C826.027344,418.904724 831.049561,418.955353 836.997375,419.007141 
	C846.617004,418.956268 855.311096,418.904236 864.005188,418.852203 
	C869.027344,418.903290 874.049500,418.954407 879.997192,419.008240 
	C903.283752,418.953613 925.644775,418.896210 948.468750,418.912415 
	C955.312439,418.987000 961.693115,418.988007 968.180542,419.447693 
	C968.309998,421.571289 968.353027,423.236206 968.352661,424.901123 
	C968.316040,590.587463 968.276184,756.273743 968.236450,921.960083 
	C966.013489,937.272949 961.821533,952.005005 953.468018,965.123230 
	C934.590637,994.767944 907.996033,1012.689575 871.884460,1017.091187 
	C815.638794,1017.235962 760.255981,1017.289246 704.873108,1017.359802 
	C703.058167,1017.362061 701.243530,1017.538696 699.428711,1017.634033 
	C700.531616,1016.571777 701.465576,1015.201172 702.761536,1014.491516 
	C789.285950,967.107178 823.552917,858.031128 778.522217,770.582214 
	C751.135132,717.396912 707.737305,684.086670 648.462524,673.675049 
	C581.666199,661.942322 508.921082,694.811523 472.839233,752.275024 
	C434.243958,813.741516 431.085144,877.181702 464.878967,941.602783 
	C481.827667,973.912048 507.303833,998.161011 540.087097,1014.512390 
	C541.210876,1015.072815 542.220398,1015.862793 543.271118,1016.563965 
	C543.281982,1016.571228 543.154724,1016.852417 543.044861,1016.955933 
	C542.928162,1017.065979 542.755310,1017.116455 541.868408,1017.255798 
	C484.775024,1017.317749 428.420197,1017.316833 372.065399,1017.315979 
M930.185974,921.645447 
	C944.363831,886.629395 944.903076,851.586853 930.013489,816.667908 
	C904.820557,757.585754 843.591858,726.333252 782.163513,741.074524 
	C779.211121,741.783081 776.346313,742.856628 773.770874,743.657471 
	C824.698364,829.456543 817.199402,909.750183 754.890686,986.112061 
	C779.436768,999.087402 805.883301,1004.528381 833.705139,999.290100 
	C879.182617,990.727539 910.647034,964.013794 930.185974,921.645447 
M651.079773,502.501190 
	C651.089539,513.665344 650.976196,524.831360 651.143677,535.993103 
	C651.309387,547.037354 659.116028,555.045959 670.043701,555.167847 
	C685.871155,555.344421 701.705322,555.366394 717.530823,555.103516 
	C728.321899,554.924377 735.935547,546.898621 735.993652,536.136536 
	C736.079163,520.307251 736.079956,504.477081 736.023743,488.647614 
	C735.986084,478.052032 728.247131,469.717987 717.605652,469.504639 
	C701.615540,469.184082 685.611389,469.173706 669.619934,469.438568 
	C658.998657,469.614502 651.267639,477.893860 651.090698,488.505310 
	C651.018555,492.836456 651.078735,497.169800 651.079773,502.501190 
M819.635498,469.323364 
	C805.769348,468.053406 795.021912,476.383118 795.876099,492.901520 
	C796.588562,506.678009 796.006348,520.520508 796.029846,534.333801 
	C796.052429,547.574341 803.527039,555.178955 816.693420,555.224609 
	C831.338562,555.275391 845.984436,555.254333 860.629333,555.159363 
	C873.150818,555.078125 880.683472,547.374146 880.707458,534.736755 
	C880.735474,519.925110 880.733887,505.113312 880.700012,490.301697 
	C880.669861,477.081055 873.169434,469.470398 860.043579,469.393616 
	C846.896362,469.316681 833.748596,469.340515 819.635498,469.323364 
M362.576782,525.931824 
	C362.587555,529.093811 362.564697,532.256348 362.615082,535.417664 
	C362.805847,547.389282 370.391357,555.106628 382.322632,555.180786 
	C397.299591,555.273804 412.278809,555.258118 427.255249,555.109802 
	C438.917450,554.994324 446.559143,547.194641 446.599609,535.518677 
	C446.653259,520.042175 446.638184,504.564972 446.559387,489.088562 
	C446.499756,477.372375 438.910889,469.536957 427.308105,469.413605 
	C412.332001,469.254395 397.352478,469.242218 382.375885,469.356140 
	C370.239227,469.448456 362.552948,477.385468 362.538300,489.548767 
	C362.524078,501.364410 362.559906,513.180115 362.576782,525.931824 
M589.089844,479.693207 
	C585.279053,472.789856 579.385376,469.405792 571.545776,469.391266 
	C556.396851,469.363190 541.246521,469.236145 526.099487,469.401306 
	C514.564758,469.527100 506.682373,477.502533 506.578949,489.009674 
	C506.439819,504.490173 506.417297,519.973145 506.519470,535.453918 
	C506.597565,547.289246 514.470398,555.096008 526.388000,555.175049 
	C541.536194,555.275574 556.686401,555.242310 571.834656,555.131226 
	C583.592163,555.044922 591.075012,547.391113 591.100525,535.574829 
	C591.133911,520.092957 591.182190,504.610016 591.016296,489.129761 
	C590.985046,486.212311 589.980835,483.305298 589.089844,479.693207 
M807.418213,595.587769 
	C799.670715,599.233093 796.013794,605.425598 796.013611,613.897339 
	C796.013184,628.873718 795.944946,643.850403 796.032104,658.826294 
	C796.095642,669.736816 803.882751,677.851562 814.836914,678.001160 
	C830.642029,678.216980 846.455322,678.199951 862.260010,677.953308 
	C873.225037,677.782288 880.589355,670.093445 880.677124,659.109375 
	C880.796814,644.133850 880.811768,629.156433 880.723877,614.180725 
	C880.651245,601.809143 872.738403,593.936646 860.371277,593.866943 
	C845.728271,593.784363 831.083679,593.770630 816.441406,593.902161 
	C813.667725,593.927063 810.901428,594.769714 807.418213,595.587769 
M444.653107,667.886597 
	C445.300629,664.825989 446.468048,661.772034 446.507599,658.703552 
	C446.700592,643.727051 446.644958,628.746521 446.574188,613.767822 
	C446.517578,601.783752 438.874908,593.957886 426.978943,593.856628 
	C412.000946,593.729126 397.020508,593.746338 382.042145,593.847473 
	C370.486359,593.925476 362.614441,601.884033 362.583679,613.325562 
	C362.543823,628.138123 362.530914,642.950806 362.554413,657.763367 
	C362.574066,670.139465 370.369904,677.965210 382.834229,678.015137 
	C397.480133,678.073853 412.126984,677.931335 426.772644,678.013000 
	C434.414551,678.055603 440.294281,675.126892 444.653107,667.886597 
M463.306244,992.814514 
	C466.886108,991.608276 470.466003,990.401978 474.845673,988.926270 
	C468.783417,976.972717 463.617554,965.256592 457.145844,954.312683 
	C437.650787,921.345825 428.017303,885.929260 428.965027,847.636536 
	C428.990204,846.619873 428.849365,845.599060 428.747955,843.969788 
	C427.918915,844.983337 427.500732,845.308411 427.327393,845.733337 
	C419.787750,864.215088 411.757355,882.517273 404.872375,901.240540 
	C395.159424,927.654175 387.613983,954.743469 382.271149,982.412842 
	C381.668823,985.531982 381.252930,987.804382 385.413055,989.245056 
	C410.789429,998.032837 436.411926,999.942200 463.306244,992.814514 
M651.114014,624.505737 
	C651.114014,636.588501 651.114014,648.671265 651.114014,659.222595 
	C666.420532,664.288879 680.903870,668.203430 694.614197,673.959229 
	C702.498657,677.269287 710.099854,678.361877 718.258179,677.956177 
	C727.723022,677.485657 735.741638,670.068848 735.916687,660.824158 
	C736.225403,644.518738 736.223450,628.198669 735.906311,611.893433 
	C735.712341,601.920105 727.869324,594.118835 717.952759,593.950439 
	C701.646484,593.673523 685.326355,593.635620 669.022705,593.986938 
	C658.875732,594.205566 651.366455,602.398499 651.120483,612.524048 
	C651.031616,616.183533 651.111084,619.847229 651.114014,624.505737 
M506.497833,643.499573 
	C506.520905,648.990906 506.434418,654.485352 506.594025,659.972717 
	C506.806793,667.289612 510.285370,672.951477 516.871704,675.839722 
	C524.879456,679.351196 533.296875,679.142395 541.588013,676.252014 
	C553.501526,672.098877 565.370605,667.811035 577.350830,663.860352 
	C581.697937,662.426819 586.310242,661.797363 591.103394,660.734070 
	C591.103394,644.611694 591.174316,628.819946 591.079651,613.029236 
	C591.011230,601.615295 583.386719,593.952576 571.907654,593.856323 
	C556.599548,593.727966 541.288635,593.728699 525.980652,593.866577 
	C514.571716,593.969360 506.648529,602.120056 506.571625,613.545654 
	C506.506683,623.196655 506.520203,632.848206 506.497833,643.499573 
M363.702148,978.844971 
	C366.130371,980.085815 368.558594,981.326599 371.403046,982.780090 
	C380.947510,931.982422 398.371826,884.622925 419.041138,838.046265 
	C414.200470,836.258118 410.043945,834.722717 405.810577,833.158936 
	C405.105438,834.190063 404.574280,834.827515 404.193115,835.544739 
	C397.213989,848.676270 388.220581,860.395813 376.275330,869.116943 
	C358.815399,881.864380 340.632629,893.624207 322.705444,905.727173 
	C318.481598,908.578735 314.048157,911.119751 309.541656,913.908508 
	C320.584808,941.531372 338.035492,963.129700 363.702148,978.844971 
M305.346252,900.779114 
	C306.541351,904.661072 308.481628,901.822205 309.733093,901.050110 
	C323.055878,892.831238 336.378693,884.607605 349.549133,876.147949 
	C362.785889,867.645813 375.038269,857.893860 384.923370,845.536499 
	C388.698364,840.817322 391.806335,835.564636 395.297882,830.438171 
	C394.058228,829.758911 393.658081,829.443604 393.203979,829.304504 
	C365.979034,820.968384 338.377838,818.460754 310.331146,824.351074 
	C308.603729,824.713867 306.447266,826.820435 305.922272,828.550293 
	C298.723236,852.270874 298.742950,876.133057 305.346252,900.779114 
M346.188477,810.431458 
	C364.049744,812.939758 381.911041,815.448059 401.043091,818.134827 
	C402.176544,810.841736 404.211365,802.723450 404.557343,794.533691 
	C405.394287,774.722961 396.459595,758.592224 384.102905,743.892090 
	C381.844543,741.205444 380.306122,740.753967 377.144745,742.362366 
	C351.117828,755.603638 331.123199,775.026306 316.979218,800.505249 
	C314.861755,804.319580 313.158447,808.363892 311.244049,812.342346 
	C323.063812,811.674072 334.176361,811.045837 346.188477,810.431458 
M444.270599,729.051636 
	C426.479858,728.056641 409.086578,729.854126 391.825684,736.357422 
	C402.013031,748.687744 410.227264,761.641418 413.528900,777.216736 
	C416.833710,792.807129 414.785980,807.941772 409.649017,823.143250 
	C414.527588,824.939087 418.975586,826.576416 423.614838,828.284119 
	C427.801971,819.373657 432.862396,811.156250 435.624817,802.227783 
	C442.725769,779.276978 452.438049,757.731445 466.258209,738.063965 
	C467.263763,736.632935 468.224854,735.170654 469.830658,732.802795 
	C460.952454,731.472412 453.083374,730.293274 444.270599,729.051636 
z"/>
<path fill="#09E290" opacity="1.000000" stroke="none" 
	d="
M968.073792,418.989014 
	C961.693115,418.988007 955.312439,418.987000 948.406189,418.572784 
	C944.074585,413.110962 938.587891,412.909576 933.000000,413.000000 
	C931.261963,412.332489 929.572510,411.446472 927.774902,411.046997 
	C924.840271,410.394928 921.835144,410.060211 918.242493,409.494354 
	C919.267456,408.244263 919.590576,407.547760 919.857544,407.568665 
	C926.669800,408.101624 929.992065,402.997040 934.108215,399.026764 
	C935.454041,397.728668 937.496155,396.396698 939.227051,396.387146 
	C945.997375,396.349731 952.529968,395.054352 959.448853,398.848450 
	C964.721680,401.739929 970.192261,403.395386 972.919922,409.654510 
	C968.049194,411.289795 969.274841,414.880402 969.637390,418.647797 
	C968.924805,419.022461 968.499329,419.005737 968.073792,418.989014 
z"/>
<path fill="#07DF8E" opacity="1.000000" stroke="none" 
	d="
M820.808960,418.552063 
	C794.977722,418.901917 768.950378,418.949768 742.459106,418.923279 
	C746.506165,417.244049 750.998535,414.350403 755.531921,414.284637 
	C767.418213,414.112152 779.319946,415.236359 791.220703,415.715668 
	C797.181824,415.955688 803.171936,415.666473 809.115051,416.091766 
	C812.979309,416.368195 816.782349,417.500946 820.808960,418.552063 
z"/>
<path fill="#07DF8E" opacity="1.000000" stroke="none" 
	d="
M932.601013,413.088623 
	C938.587891,412.909576 944.074585,413.110962 947.943237,418.499207 
	C925.644775,418.896210 903.283752,418.953613 880.458862,418.936096 
	C882.050110,417.908936 884.059570,416.255524 886.167786,416.118195 
	C899.869385,415.225739 913.593323,414.681946 927.307007,413.966583 
	C928.947937,413.881012 930.570801,413.448761 932.601013,413.088623 
z"/>
<path fill="#07DF8E" opacity="1.000000" stroke="none" 
	d="
M636.887756,418.520966 
	C623.311218,418.897339 609.617126,418.947357 595.458862,418.923706 
	C596.741211,417.493408 598.318176,415.317780 600.262085,414.915497 
	C611.283325,412.634827 622.340271,413.252197 633.278076,415.707123 
	C634.563477,415.995605 635.611877,417.339813 636.887756,418.520966 
z"/>
<path fill="#07DF8E" opacity="1.000000" stroke="none" 
	d="
M700.874817,418.510162 
	C686.310974,418.896759 671.616699,418.945679 656.458557,418.919617 
	C658.308533,417.581207 660.614380,415.252625 662.937561,415.235260 
	C674.156311,415.151337 685.382751,415.617645 696.597595,416.097321 
	C698.006836,416.157593 699.363403,417.450592 700.874817,418.510162 
z"/>
<path fill="#07DF8E" opacity="1.000000" stroke="none" 
	d="
M863.881775,418.520386 
	C855.311096,418.904236 846.617004,418.956268 837.458984,418.934235 
	C837.202087,418.412903 837.292480,417.827545 837.633850,417.539185 
	C842.061646,413.798309 859.382141,414.252838 863.881775,418.520386 
z"/>
<path fill="#07DF8E" opacity="1.000000" stroke="none" 
	d="
M433.340576,396.757324 
	C435.994598,396.269440 438.346985,395.739838 440.704834,395.714203 
	C441.289185,395.707825 442.173279,397.282257 442.351624,398.236206 
	C442.426819,398.638519 441.022858,399.793304 440.305511,399.780914 
	C437.885864,399.739136 435.467651,399.357391 433.071564,398.966766 
	C432.952332,398.947357 433.046265,397.619995 433.340576,396.757324 
z"/>
<path fill="#051625" opacity="1.000000" stroke="none" 
	d="
M665.947754,1008.940979 
	C600.146973,1026.393188 544.554993,1009.256531 500.418427,958.833374 
	C441.845581,891.917664 450.281097,787.156433 517.422424,729.185608 
	C592.784851,664.116577 707.434692,683.127258 758.525024,769.164001 
	C811.798889,858.877930 769.178711,973.300842 669.657959,1007.742310 
	C668.556213,1008.123596 667.444824,1008.477112 665.947754,1008.940979 
M726.222290,962.078857 
	C726.222290,962.078857 726.216553,961.878174 726.216553,961.878174 
	C726.216553,961.878174 726.329956,962.227722 726.187561,962.329834 
	C726.187561,962.329834 726.047424,962.082520 726.047424,962.082520 
	C726.047424,962.082520 726.221558,962.312683 726.222290,962.078857 
M729.027466,959.165649 
	C732.237793,955.516418 735.448181,951.867188 738.658508,948.217957 
	C732.012634,948.935486 730.946594,954.855774 727.357788,959.225586 
	C727.369568,959.523804 727.381348,959.822021 727.393127,960.120239 
	C727.770752,959.948792 728.148315,959.777283 729.027466,959.165649 
M612.113525,948.586304 
	C620.886108,936.433655 629.592224,924.231995 638.481995,912.165649 
	C640.490051,909.440125 640.774292,907.124817 639.407898,903.994385 
	C632.280518,887.665466 625.432861,871.214111 618.251343,854.909607 
	C617.539673,853.293884 615.402954,851.723267 613.628784,851.248291 
	C595.465637,846.386047 577.216675,841.844055 559.056396,836.971558 
	C556.017883,836.156250 554.299133,836.716248 552.277649,839.037292 
	C541.339783,851.595703 530.314636,864.081787 519.098328,876.391174 
	C516.604553,879.127991 516.234924,881.561890 517.306396,884.899292 
	C524.242615,906.504700 532.723328,927.461609 543.581055,947.399353 
	C544.498413,949.083923 546.916016,950.587524 548.871582,950.968323 
	C562.275574,953.578247 575.942200,955.092773 589.125732,958.501282 
	C599.758240,961.250183 607.013611,959.178162 612.113525,948.586304 
M548.154419,783.208191 
	C550.801453,796.084534 553.529114,808.945190 556.039673,821.848083 
	C556.676819,825.122375 557.888489,826.881836 561.437805,827.759583 
	C579.523560,832.232788 597.498352,837.155396 615.588379,841.610474 
	C617.504150,842.082214 620.563965,841.196594 622.001221,839.809448 
	C635.060364,827.205505 647.942566,814.414673 660.660950,801.466736 
	C661.914673,800.190491 662.615417,797.222534 662.075684,795.512390 
	C657.216797,780.119934 651.908081,764.869751 647.013184,749.488098 
	C645.873535,745.906921 643.924744,744.591980 640.393005,744.075806 
	C624.910217,741.812866 609.477600,739.203552 593.985046,737.015625 
	C591.880310,736.718384 588.987549,737.442688 587.396301,738.795593 
	C575.600464,748.825378 564.252869,759.390381 552.302551,769.226196 
	C547.647827,773.057251 545.787292,776.786987 548.154419,783.208191 
M630.603943,939.124451 
	C624.913513,946.919983 619.315002,954.785339 613.477905,962.469482 
	C611.676086,964.841370 611.621216,966.616455 613.202026,969.118103 
	C619.956726,979.807434 626.586792,990.577576 633.096436,1001.417908 
	C634.596375,1003.915955 636.139160,1004.683777 639.109741,1004.272949 
	C659.821716,1001.408203 679.165161,994.666138 697.240173,984.233276 
	C698.621399,983.436035 699.927795,982.241272 700.833740,980.930481 
	C708.495483,969.845398 716.007324,958.656677 723.687134,947.584290 
	C725.271790,945.299561 725.683594,943.464905 724.264587,940.827515 
	C718.671692,930.431702 713.214661,919.957581 707.978271,909.378296 
	C706.416199,906.222473 704.542664,905.719177 701.300171,906.214294 
	C685.018127,908.700317 668.687988,910.870728 652.407776,913.368103 
	C650.535034,913.655334 648.335022,914.878357 647.196777,916.364441 
	C641.633911,923.626831 636.379822,931.125671 630.603943,939.124451 
M656.236572,748.147705 
	C661.335327,763.122009 666.347046,778.127197 671.631409,793.035767 
	C672.380981,795.150635 674.093201,797.365723 675.976990,798.565796 
	C688.617615,806.618591 701.737122,813.957947 714.052917,822.467163 
	C720.640137,827.018494 725.878723,827.895691 731.937927,822.419434 
	C733.757263,820.775146 736.451233,820.083740 738.221924,818.404663 
	C739.835327,816.874756 741.608398,814.686584 741.818298,812.635803 
	C743.276672,798.386658 744.393127,784.101196 745.475708,769.816528 
	C745.602905,768.138306 745.370117,766.020691 744.437683,764.735535 
	C727.557190,741.471558 706.165039,723.707764 679.461060,711.896484 
	C672.278992,720.245361 665.313232,728.740295 657.876465,736.800720 
	C654.708008,740.234863 653.902649,743.392517 656.236572,748.147705 
M713.323181,857.818848 
	C714.861267,850.368164 716.399353,842.917419 717.940247,835.453064 
	C701.678406,825.429688 685.841736,815.668335 670.000793,805.904419 
	C669.050049,806.653259 668.354370,807.105225 667.772461,807.673523 
	C654.431641,820.704163 641.053772,833.698059 627.875549,846.891418 
	C626.920959,847.847107 626.780273,850.539551 627.367554,851.970276 
	C634.067932,868.293884 641.052734,884.500549 647.771545,900.816711 
	C648.864380,903.470581 650.138245,904.286865 652.942322,903.881165 
	C669.090088,901.544556 685.273376,899.448364 701.401184,896.985901 
	C702.977844,896.745117 705.164246,894.784607 705.532410,893.253174 
	C708.292542,881.770508 710.666809,870.195007 713.323181,857.818848 
M490.324615,779.182800 
	C489.214844,780.753174 487.844849,782.200562 487.035461,783.912903 
	C478.790680,801.356445 473.700104,819.684814 471.438446,838.858948 
	C470.881012,843.584778 471.234772,847.063110 475.948029,849.612305 
	C479.860687,851.728577 483.208801,854.872131 486.873535,857.466614 
	C494.421448,862.810120 502.013855,868.090759 509.690704,873.469299 
	C522.148254,859.318970 534.267151,845.631592 546.238708,831.816528 
	C547.270935,830.625305 548.022705,828.452271 547.730835,826.965942 
	C544.532776,810.681641 541.101196,794.443115 537.921570,779.101746 
	C522.037231,779.101746 506.612518,779.101746 490.324615,779.182800 
M714.092773,898.573853 
	C714.162903,899.547668 713.936646,900.674072 714.347534,901.472473 
	C720.359619,913.155151 726.441956,924.801819 732.565186,936.426697 
	C732.991577,937.236145 733.758240,938.170776 734.561340,938.420044 
	C736.946472,939.160156 749.461487,933.388184 750.759521,931.077942 
	C761.820557,911.390869 768.334778,890.346008 771.333008,867.909424 
	C772.798584,856.941711 770.704102,848.725464 761.922180,841.823547 
	C755.845703,837.047913 750.508118,831.332031 744.579102,825.792114 
	C741.066589,827.975952 737.280823,830.758789 733.129517,832.797058 
	C728.437500,835.100647 726.779114,838.725830 725.800964,843.617249 
	C722.182190,861.714905 718.138489,879.727600 714.092773,898.573853 
M524.968689,931.566101 
	C519.213806,916.681458 513.550110,901.760254 507.612183,886.948975 
	C506.648621,884.545532 504.853271,882.112549 502.785889,880.577332 
	C493.701172,873.831360 484.379578,867.404175 475.131775,860.878540 
	C473.995483,860.076843 472.786621,859.378052 470.937225,858.203369 
	C473.874695,903.896606 491.481934,941.287659 525.898010,971.191650 
	C529.195557,965.786438 532.201965,961.205872 534.783264,956.397217 
	C535.479553,955.100037 535.427979,952.860779 534.792358,951.481201 
	C531.800537,944.988037 528.486145,938.643433 524.968689,931.566101 
M557.805054,714.261108 
	C531.965271,726.539551 511.263306,744.569336 496.074066,768.533752 
	C510.174103,768.533752 523.950439,768.566101 537.725769,768.467529 
	C538.741150,768.460266 539.911133,767.693054 540.737366,766.968933 
	C553.756714,755.558472 566.772522,744.142639 579.631287,732.552795 
	C580.565369,731.710999 581.014099,729.157227 580.446716,728.017761 
	C577.279114,721.656067 573.728943,715.484924 570.171509,708.997009 
	C566.102112,710.727539 562.300049,712.344421 557.805054,714.261108 
M618.167908,994.361511 
	C613.640137,987.187500 609.206238,979.950989 604.507446,972.890808 
	C603.538696,971.435181 601.711731,969.949158 600.062561,969.640381 
	C582.408936,966.334351 564.719238,963.217041 547.009888,960.222168 
	C545.751587,960.009338 543.648315,960.757812 542.983093,961.755798 
	C539.693115,966.691772 536.754883,971.862183 533.734863,976.879883 
	C558.217346,997.157715 603.667297,1008.960388 624.492310,1004.875610 
	C622.479858,1001.506165 620.527222,998.236755 618.167908,994.361511 
M668.982178,709.131042 
	C666.686768,707.906433 664.520020,706.243958 662.075867,705.525391 
	C639.282471,698.824890 616.200134,698.067383 592.929810,702.667358 
	C588.629089,703.517456 584.388733,704.673096 579.775330,705.769775 
	C583.353638,712.602112 586.414856,718.696289 589.760437,724.630066 
	C590.450500,725.854065 592.105347,727.072693 593.476013,727.292419 
	C610.238892,729.979370 627.019592,732.567505 643.835571,734.891846 
	C645.515381,735.124023 647.995972,733.937195 649.188477,732.594849 
	C655.818298,725.131592 662.165161,717.416809 668.982178,709.131042 
M758.788513,789.748474 
	C757.502930,787.100403 756.217407,784.452271 754.301086,780.504761 
	C753.185974,792.569458 752.180725,802.970032 751.305542,813.381531 
	C751.158875,815.126282 750.890076,817.548828 751.843750,818.585754 
	C757.727722,824.983459 763.945862,831.073853 770.465454,837.684692 
	C771.556274,828.230347 766.197449,806.639099 758.788513,789.748474 
z"/>
<path fill="#05FA9F" opacity="1.000000" stroke="none" 
	d="
M968.180542,419.447693 
	C968.499329,419.005737 968.924805,419.022461 969.670044,419.030640 
	C969.990845,584.459778 969.996277,749.897583 969.944885,915.335327 
	C969.944214,917.393494 969.215515,919.451355 968.531555,921.734741 
	C968.276184,756.273743 968.316040,590.587463 968.352661,424.901123 
	C968.353027,423.236206 968.309998,421.571289 968.180542,419.447693 
z"/>
<path fill="#09F0A1" opacity="1.000000" stroke="none" 
	d="
M273.727997,419.253174 
	C273.973663,455.550781 273.831970,492.047760 273.827332,528.544739 
	C273.811218,655.709839 273.841461,782.874878 273.862061,910.039978 
	C273.862549,913.039124 273.957397,916.038208 273.962402,919.500488 
	C273.280579,917.537964 272.091125,915.112915 272.088501,912.686523 
	C271.992462,823.078003 272.006470,733.469421 272.005127,643.860840 
	C272.004059,571.407776 271.989441,498.954742 272.060242,426.501770 
	C272.062531,424.151581 272.936066,421.802277 273.727997,419.253174 
z"/>
<path fill="#05FA9F" opacity="1.000000" stroke="none" 
	d="
M372.295715,1017.600830 
	C428.420197,1017.316833 484.775024,1017.317749 541.596802,1017.400024 
	C542.449463,1017.781860 542.835144,1018.082214 543.708130,1018.762146 
	C541.700623,1018.853394 540.159119,1018.984436 538.617676,1018.984680 
	C485.486298,1018.992737 432.354858,1019.001587 379.223572,1018.939148 
	C376.990631,1018.936523 374.758514,1018.252319 372.295715,1017.600830 
z"/>
<path fill="#05FA9F" opacity="1.000000" stroke="none" 
	d="
M699.456909,1017.903931 
	C701.243530,1017.538696 703.058167,1017.362061 704.873108,1017.359802 
	C760.255981,1017.289246 815.638794,1017.235962 871.484009,1017.224365 
	C870.311951,1017.839722 868.678345,1018.906982 867.043091,1018.909668 
	C812.249268,1018.999207 757.455383,1018.991821 702.661438,1018.956116 
	C701.602478,1018.955444 700.543945,1018.445923 699.456909,1017.903931 
z"/>
<path fill="#07CE8C" opacity="1.000000" stroke="none" 
	d="
M803.013489,320.712341 
	C801.949829,317.382233 800.275024,313.741943 800.241211,310.086487 
	C800.000122,284.003174 799.992493,257.915955 800.195496,231.832230 
	C800.224182,228.143311 801.797363,224.466415 802.877869,220.511292 
	C803.058655,238.861984 802.980957,257.485321 802.987183,276.108673 
	C802.992126,290.870850 803.099854,305.632965 803.013489,320.712341 
z"/>
<path fill="#09EA95" opacity="1.000000" stroke="none" 
	d="
M253.163956,364.888489 
	C253.188354,364.794830 253.397903,364.514526 253.794067,364.047577 
	C253.770157,364.141235 253.559631,364.421539 253.163956,364.888489 
z"/>
<path fill="#08E18F" opacity="1.000000" stroke="none" 
	d="
M930.052551,922.003052 
	C910.647034,964.013794 879.182617,990.727539 833.705139,999.290100 
	C805.883301,1004.528381 779.436768,999.087402 754.890686,986.112061 
	C817.199402,909.750183 824.698364,829.456543 773.770874,743.657471 
	C776.346313,742.856628 779.211121,741.783081 782.163513,741.074524 
	C843.591858,726.333252 904.820557,757.585754 930.013489,816.667908 
	C944.903076,851.586853 944.363831,886.629395 930.052551,922.003052 
M863.973938,866.544495 
	C865.331726,867.179138 866.666626,867.869629 868.051941,868.437134 
	C871.190979,869.722961 874.451538,870.462708 876.131226,866.527405 
	C877.675232,862.909912 875.167847,860.999878 872.264038,859.584045 
	C868.569946,857.783020 864.864746,856.004700 860.631531,853.959106 
	C863.995056,846.603516 867.189209,839.618164 870.600281,832.158569 
	C873.917969,835.161072 876.330994,837.442749 878.852112,839.598083 
	C881.256836,841.653931 884.004700,842.428711 886.413025,839.864258 
	C889.115112,836.987183 887.708984,834.410583 885.175720,832.146667 
	C882.246765,829.529114 879.365723,826.857910 875.998840,823.785706 
	C881.130615,817.939026 885.874023,812.534790 890.965881,806.733582 
	C893.662537,810.470825 895.718201,813.282471 897.733337,816.122864 
	C899.691895,818.883728 902.234314,820.525696 905.349915,818.439758 
	C908.553589,816.294983 907.667358,813.362671 905.906982,810.533875 
	C902.941223,805.768250 900.103455,800.922791 897.119568,796.168884 
	C896.430664,795.071350 895.519714,793.975952 894.450684,793.278625 
	C890.351440,790.604675 886.064880,788.214111 882.008362,785.480103 
	C879.121948,783.534729 876.190308,782.104248 873.645264,785.341309 
	C870.912292,788.817444 873.112183,791.551758 875.963013,793.776733 
	C878.389221,795.670288 880.882324,797.478210 883.495422,799.436096 
	C880.694763,802.670288 878.269531,805.405823 875.918335,808.203613 
	C873.243652,811.386292 871.113342,816.500183 867.867554,817.327759 
	C864.403320,818.210938 859.888611,815.134216 855.877686,813.662903 
	C852.571594,812.450134 849.402161,812.175964 847.836121,815.947571 
	C846.166382,819.968750 848.689941,822.169128 852.151672,823.533569 
	C855.173035,824.724365 858.221436,825.846558 861.426453,827.062988 
	C859.477051,831.271790 857.770752,834.877991 856.132385,838.514709 
	C854.429749,842.294250 853.758667,847.611450 850.853333,849.472290 
	C847.987793,851.307800 842.884827,849.746155 838.772888,849.509827 
	C835.388794,849.315308 832.543274,850.096375 832.113403,853.859558 
	C831.648560,857.928833 834.471802,859.335571 837.994141,859.765991 
	C841.219116,860.160156 844.441956,860.570923 847.746826,860.984558 
	C846.836914,865.340698 845.999451,869.076721 845.286743,872.836365 
	C844.519043,876.886108 845.177795,882.251221 842.800354,884.658508 
	C840.395081,887.094055 835.054260,886.737183 830.963013,887.367676 
	C827.599609,887.885925 825.671875,889.584229 826.041199,893.001770 
	C826.429688,896.596924 828.997314,897.495056 832.229309,897.109680 
	C835.830811,896.680420 839.432190,896.249573 843.258972,895.792419 
	C843.764893,900.852600 844.122559,905.478455 844.708008,910.075378 
	C846.094482,920.963745 846.150085,920.987976 835.758911,925.146790 
	C832.431396,926.478455 830.059387,928.497314 831.525879,932.293884 
	C832.938049,935.950195 836.094849,935.620239 839.143982,934.519531 
	C842.357544,933.359375 845.527954,932.079712 848.832947,930.807739 
	C850.226074,934.927124 851.381287,938.560791 852.680176,942.142395 
	C856.391541,952.377136 856.439819,952.406311 847.130920,958.702637 
	C844.108215,960.747131 842.400208,963.361145 844.510132,966.649536 
	C846.563171,969.849060 849.663635,969.052124 852.453796,967.310364 
	C855.507080,965.404358 858.502502,963.405884 861.639282,961.372498 
	C864.091248,965.444092 866.269043,969.163513 868.551147,972.817749 
	C870.380249,975.746704 872.933533,977.065613 876.145752,975.124268 
	C879.420776,973.145020 879.197754,970.279907 877.473328,967.325928 
	C875.481323,963.913574 873.445984,960.526489 871.108826,956.588196 
	C874.861572,955.087708 878.078796,953.857483 881.249695,952.517517 
	C884.294006,951.231201 886.548584,949.221069 885.155701,945.601746 
	C883.695007,941.806091 880.671265,942.316040 877.620605,943.493347 
	C873.969727,944.902344 870.312866,946.296082 866.095398,947.912231 
	C863.631592,941.086060 861.416260,934.948181 859.054688,928.405090 
	C863.574707,927.860718 867.035095,927.449768 870.493958,927.025940 
	C873.919861,926.606140 876.321411,924.992371 875.823486,921.224182 
	C875.350708,917.646118 872.697876,916.946777 869.485535,917.281799 
	C865.371521,917.710815 861.241150,917.983643 856.357178,918.386536 
	C855.466675,910.793274 854.626709,903.630493 853.698364,895.714417 
	C858.526062,896.536133 862.412781,897.703430 866.284485,897.655762 
	C868.409973,897.629578 871.664307,896.026550 872.368408,894.301392 
	C873.622192,891.229309 871.335754,889.130615 868.021484,888.474182 
	C863.648071,887.607910 859.297913,886.624329 854.101318,885.512207 
	C855.352173,878.130981 856.544006,871.098022 857.815430,863.595581 
	C860.322449,864.778931 861.817383,865.484558 863.973938,866.544495 
z"/>
<path fill="#09E190" opacity="1.000000" stroke="none" 
	d="
M651.079224,502.001648 
	C651.078735,497.169800 651.018555,492.836456 651.090698,488.505310 
	C651.267639,477.893860 658.998657,469.614502 669.619934,469.438568 
	C685.611389,469.173706 701.615540,469.184082 717.605652,469.504639 
	C728.247131,469.717987 735.986084,478.052032 736.023743,488.647614 
	C736.079956,504.477081 736.079163,520.307251 735.993652,536.136536 
	C735.935547,546.898621 728.321899,554.924377 717.530823,555.103516 
	C701.705322,555.366394 685.871155,555.344421 670.043701,555.167847 
	C659.116028,555.045959 651.309387,547.037354 651.143677,535.993103 
	C650.976196,524.831360 651.089539,513.665344 651.079224,502.001648 
z"/>
<path fill="#09E08F" opacity="1.000000" stroke="none" 
	d="
M820.118286,469.321777 
	C833.748596,469.340515 846.896362,469.316681 860.043579,469.393616 
	C873.169434,469.470398 880.669861,477.081055 880.700012,490.301697 
	C880.733887,505.113312 880.735474,519.925110 880.707458,534.736755 
	C880.683472,547.374146 873.150818,555.078125 860.629333,555.159363 
	C845.984436,555.254333 831.338562,555.275391 816.693420,555.224609 
	C803.527039,555.178955 796.052429,547.574341 796.029846,534.333801 
	C796.006348,520.520508 796.588562,506.678009 795.876099,492.901520 
	C795.021912,476.383118 805.769348,468.053406 820.118286,469.321777 
z"/>
<path fill="#09E08F" opacity="1.000000" stroke="none" 
	d="
M362.575256,525.463806 
	C362.559906,513.180115 362.524078,501.364410 362.538300,489.548767 
	C362.552948,477.385468 370.239227,469.448456 382.375885,469.356140 
	C397.352478,469.242218 412.332001,469.254395 427.308105,469.413605 
	C438.910889,469.536957 446.499756,477.372375 446.559387,489.088562 
	C446.638184,504.564972 446.653259,520.042175 446.599609,535.518677 
	C446.559143,547.194641 438.917450,554.994324 427.255249,555.109802 
	C412.278809,555.258118 397.299591,555.273804 382.322632,555.180786 
	C370.391357,555.106628 362.805847,547.389282 362.615082,535.417664 
	C362.564697,532.256348 362.587555,529.093811 362.575256,525.463806 
z"/>
<path fill="#09E190" opacity="1.000000" stroke="none" 
	d="
M589.257751,480.043335 
	C589.980835,483.305298 590.985046,486.212311 591.016296,489.129761 
	C591.182190,504.610016 591.133911,520.092957 591.100525,535.574829 
	C591.075012,547.391113 583.592163,555.044922 571.834656,555.131226 
	C556.686401,555.242310 541.536194,555.275574 526.388000,555.175049 
	C514.470398,555.096008 506.597565,547.289246 506.519470,535.453918 
	C506.417297,519.973145 506.439819,504.490173 506.578949,489.009674 
	C506.682373,477.502533 514.564758,469.527100 526.099487,469.401306 
	C541.246521,469.236145 556.396851,469.363190 571.545776,469.391266 
	C579.385376,469.405792 585.279053,472.789856 589.257751,480.043335 
z"/>
<path fill="#09E18F" opacity="1.000000" stroke="none" 
	d="
M807.774963,595.411377 
	C810.901428,594.769714 813.667725,593.927063 816.441406,593.902161 
	C831.083679,593.770630 845.728271,593.784363 860.371277,593.866943 
	C872.738403,593.936646 880.651245,601.809143 880.723877,614.180725 
	C880.811768,629.156433 880.796814,644.133850 880.677124,659.109375 
	C880.589355,670.093445 873.225037,677.782288 862.260010,677.953308 
	C846.455322,678.199951 830.642029,678.216980 814.836914,678.001160 
	C803.882751,677.851562 796.095642,669.736816 796.032104,658.826294 
	C795.944946,643.850403 796.013184,628.873718 796.013611,613.897339 
	C796.013794,605.425598 799.670715,599.233093 807.774963,595.411377 
z"/>
<path fill="#09E18F" opacity="1.000000" stroke="none" 
	d="
M444.465271,668.216553 
	C440.294281,675.126892 434.414551,678.055603 426.772644,678.013000 
	C412.126984,677.931335 397.480133,678.073853 382.834229,678.015137 
	C370.369904,677.965210 362.574066,670.139465 362.554413,657.763367 
	C362.530914,642.950806 362.543823,628.138123 362.583679,613.325562 
	C362.614441,601.884033 370.486359,593.925476 382.042145,593.847473 
	C397.020508,593.746338 412.000946,593.729126 426.978943,593.856628 
	C438.874908,593.957886 446.517578,601.783752 446.574188,613.767822 
	C446.644958,628.746521 446.700592,643.727051 446.507599,658.703552 
	C446.468048,661.772034 445.300629,664.825989 444.465271,668.216553 
z"/>
<path fill="#08E18F" opacity="1.000000" stroke="none" 
	d="
M462.908997,992.908081 
	C436.411926,999.942200 410.789429,998.032837 385.413055,989.245056 
	C381.252930,987.804382 381.668823,985.531982 382.271149,982.412842 
	C387.613983,954.743469 395.159424,927.654175 404.872375,901.240540 
	C411.757355,882.517273 419.787750,864.215088 427.327393,845.733337 
	C427.500732,845.308411 427.918915,844.983337 428.747955,843.969788 
	C428.849365,845.599060 428.990204,846.619873 428.965027,847.636536 
	C428.017303,885.929260 437.650787,921.345825 457.145844,954.312683 
	C463.617554,965.256592 468.783417,976.972717 474.845673,988.926270 
	C470.466003,990.401978 466.886108,991.608276 462.908997,992.908081 
z"/>
<path fill="#09E18F" opacity="1.000000" stroke="none" 
	d="
M651.113892,624.007324 
	C651.111084,619.847229 651.031616,616.183533 651.120483,612.524048 
	C651.366455,602.398499 658.875732,594.205566 669.022705,593.986938 
	C685.326355,593.635620 701.646484,593.673523 717.952759,593.950439 
	C727.869324,594.118835 735.712341,601.920105 735.906311,611.893433 
	C736.223450,628.198669 736.225403,644.518738 735.916687,660.824158 
	C735.741638,670.068848 727.723022,677.485657 718.258179,677.956177 
	C710.099854,678.361877 702.498657,677.269287 694.614197,673.959229 
	C680.903870,668.203430 666.420532,664.288879 651.114014,659.222595 
	C651.114014,648.671265 651.114014,636.588501 651.113892,624.007324 
z"/>
<path fill="#09E190" opacity="1.000000" stroke="none" 
	d="
M506.498413,642.999512 
	C506.520203,632.848206 506.506683,623.196655 506.571625,613.545654 
	C506.648529,602.120056 514.571716,593.969360 525.980652,593.866577 
	C541.288635,593.728699 556.599548,593.727966 571.907654,593.856323 
	C583.386719,593.952576 591.011230,601.615295 591.079651,613.029236 
	C591.174316,628.819946 591.103394,644.611694 591.103394,660.734070 
	C586.310242,661.797363 581.697937,662.426819 577.350830,663.860352 
	C565.370605,667.811035 553.501526,672.098877 541.588013,676.252014 
	C533.296875,679.142395 524.879456,679.351196 516.871704,675.839722 
	C510.285370,672.951477 506.806793,667.289612 506.594025,659.972717 
	C506.434418,654.485352 506.520905,648.990906 506.498413,642.999512 
z"/>
<path fill="#08E18F" opacity="1.000000" stroke="none" 
	d="
M363.389648,978.648682 
	C338.035492,963.129700 320.584808,941.531372 309.541656,913.908508 
	C314.048157,911.119751 318.481598,908.578735 322.705444,905.727173 
	C340.632629,893.624207 358.815399,881.864380 376.275330,869.116943 
	C388.220581,860.395813 397.213989,848.676270 404.193115,835.544739 
	C404.574280,834.827515 405.105438,834.190063 405.810577,833.158936 
	C410.043945,834.722717 414.200470,836.258118 419.041138,838.046265 
	C398.371826,884.622925 380.947510,931.982422 371.403046,982.780090 
	C368.558594,981.326599 366.130371,980.085815 363.389648,978.648682 
z"/>
<path fill="#08E18E" opacity="1.000000" stroke="none" 
	d="
M305.235718,900.407837 
	C298.742950,876.133057 298.723236,852.270874 305.922272,828.550293 
	C306.447266,826.820435 308.603729,824.713867 310.331146,824.351074 
	C338.377838,818.460754 365.979034,820.968384 393.203979,829.304504 
	C393.658081,829.443604 394.058228,829.758911 395.297882,830.438171 
	C391.806335,835.564636 388.698364,840.817322 384.923370,845.536499 
	C375.038269,857.893860 362.785889,867.645813 349.549133,876.147949 
	C336.378693,884.607605 323.055878,892.831238 309.733093,901.050110 
	C308.481628,901.822205 306.541351,904.661072 305.235718,900.407837 
z"/>
<path fill="#08E18E" opacity="1.000000" stroke="none" 
	d="
M345.738708,810.424500 
	C334.176361,811.045837 323.063812,811.674072 311.244049,812.342346 
	C313.158447,808.363892 314.861755,804.319580 316.979218,800.505249 
	C331.123199,775.026306 351.117828,755.603638 377.144745,742.362366 
	C380.306122,740.753967 381.844543,741.205444 384.102905,743.892090 
	C396.459595,758.592224 405.394287,774.722961 404.557343,794.533691 
	C404.211365,802.723450 402.176544,810.841736 401.043091,818.134827 
	C381.911041,815.448059 364.049744,812.939758 345.738708,810.424500 
z"/>
<path fill="#08E08E" opacity="1.000000" stroke="none" 
	d="
M444.742432,729.082886 
	C453.083374,730.293274 460.952454,731.472412 469.830658,732.802795 
	C468.224854,735.170654 467.263763,736.632935 466.258209,738.063965 
	C452.438049,757.731445 442.725769,779.276978 435.624817,802.227783 
	C432.862396,811.156250 427.801971,819.373657 423.614838,828.284119 
	C418.975586,826.576416 414.527588,824.939087 409.649017,823.143250 
	C414.785980,807.941772 416.833710,792.807129 413.528900,777.216736 
	C410.227264,761.641418 402.013031,748.687744 391.825684,736.357422 
	C409.086578,729.854126 426.479858,728.056641 444.742432,729.082886 
z"/>
<path fill="#09E190" opacity="1.000000" stroke="none" 
	d="
M611.907227,948.878540 
	C607.013611,959.178162 599.758240,961.250183 589.125732,958.501282 
	C575.942200,955.092773 562.275574,953.578247 548.871582,950.968323 
	C546.916016,950.587524 544.498413,949.083923 543.581055,947.399353 
	C532.723328,927.461609 524.242615,906.504700 517.306396,884.899292 
	C516.234924,881.561890 516.604553,879.127991 519.098328,876.391174 
	C530.314636,864.081787 541.339783,851.595703 552.277649,839.037292 
	C554.299133,836.716248 556.017883,836.156250 559.056396,836.971558 
	C577.216675,841.844055 595.465637,846.386047 613.628784,851.248291 
	C615.402954,851.723267 617.539673,853.293884 618.251343,854.909607 
	C625.432861,871.214111 632.280518,887.665466 639.407898,903.994385 
	C640.774292,907.124817 640.490051,909.440125 638.481995,912.165649 
	C629.592224,924.231995 620.886108,936.433655 611.907227,948.878540 
z"/>
<path fill="#09E290" opacity="1.000000" stroke="none" 
	d="
M548.085083,782.790161 
	C545.787292,776.786987 547.647827,773.057251 552.302551,769.226196 
	C564.252869,759.390381 575.600464,748.825378 587.396301,738.795593 
	C588.987549,737.442688 591.880310,736.718384 593.985046,737.015625 
	C609.477600,739.203552 624.910217,741.812866 640.393005,744.075806 
	C643.924744,744.591980 645.873535,745.906921 647.013184,749.488098 
	C651.908081,764.869751 657.216797,780.119934 662.075684,795.512390 
	C662.615417,797.222534 661.914673,800.190491 660.660950,801.466736 
	C647.942566,814.414673 635.060364,827.205505 622.001221,839.809448 
	C620.563965,841.196594 617.504150,842.082214 615.588379,841.610474 
	C597.498352,837.155396 579.523560,832.232788 561.437805,827.759583 
	C557.888489,826.881836 556.676819,825.122375 556.039673,821.848083 
	C553.529114,808.945190 550.801453,796.084534 548.085083,782.790161 
z"/>
<path fill="#09E190" opacity="1.000000" stroke="none" 
	d="
M630.810242,938.832642 
	C636.379822,931.125671 641.633911,923.626831 647.196777,916.364441 
	C648.335022,914.878357 650.535034,913.655334 652.407776,913.368103 
	C668.687988,910.870728 685.018127,908.700317 701.300171,906.214294 
	C704.542664,905.719177 706.416199,906.222473 707.978271,909.378296 
	C713.214661,919.957581 718.671692,930.431702 724.264587,940.827515 
	C725.683594,943.464905 725.271790,945.299561 723.687134,947.584290 
	C716.007324,958.656677 708.495483,969.845398 700.833740,980.930481 
	C699.927795,982.241272 698.621399,983.436035 697.240173,984.233276 
	C679.165161,994.666138 659.821716,1001.408203 639.109741,1004.272949 
	C636.139160,1004.683777 634.596375,1003.915955 633.096436,1001.417908 
	C626.586792,990.577576 619.956726,979.807434 613.202026,969.118103 
	C611.621216,966.616455 611.676086,964.841370 613.477905,962.469482 
	C619.315002,954.785339 624.913513,946.919983 630.810242,938.832642 
z"/>
<path fill="#09E190" opacity="1.000000" stroke="none" 
	d="
M656.106689,747.784912 
	C653.902649,743.392517 654.708008,740.234863 657.876465,736.800720 
	C665.313232,728.740295 672.278992,720.245361 679.461060,711.896484 
	C706.165039,723.707764 727.557190,741.471558 744.437683,764.735535 
	C745.370117,766.020691 745.602905,768.138306 745.475708,769.816528 
	C744.393127,784.101196 743.276672,798.386658 741.818298,812.635803 
	C741.608398,814.686584 739.835327,816.874756 738.221924,818.404663 
	C736.451233,820.083740 733.757263,820.775146 731.937927,822.419434 
	C725.878723,827.895691 720.640137,827.018494 714.052917,822.467163 
	C701.737122,813.957947 688.617615,806.618591 675.976990,798.565796 
	C674.093201,797.365723 672.380981,795.150635 671.631409,793.035767 
	C666.347046,778.127197 661.335327,763.122009 656.106689,747.784912 
z"/>
<path fill="#08E18F" opacity="1.000000" stroke="none" 
	d="
M713.242554,858.233704 
	C710.666809,870.195007 708.292542,881.770508 705.532410,893.253174 
	C705.164246,894.784607 702.977844,896.745117 701.401184,896.985901 
	C685.273376,899.448364 669.090088,901.544556 652.942322,903.881165 
	C650.138245,904.286865 648.864380,903.470581 647.771545,900.816711 
	C641.052734,884.500549 634.067932,868.293884 627.367554,851.970276 
	C626.780273,850.539551 626.920959,847.847107 627.875549,846.891418 
	C641.053772,833.698059 654.431641,820.704163 667.772461,807.673523 
	C668.354370,807.105225 669.050049,806.653259 670.000793,805.904419 
	C685.841736,815.668335 701.678406,825.429688 717.940247,835.453064 
	C716.399353,842.917419 714.861267,850.368164 713.242554,858.233704 
z"/>
<path fill="#09E18F" opacity="1.000000" stroke="none" 
	d="
M490.756195,779.142273 
	C506.612518,779.101746 522.037231,779.101746 537.921570,779.101746 
	C541.101196,794.443115 544.532776,810.681641 547.730835,826.965942 
	C548.022705,828.452271 547.270935,830.625305 546.238708,831.816528 
	C534.267151,845.631592 522.148254,859.318970 509.690704,873.469299 
	C502.013855,868.090759 494.421448,862.810120 486.873535,857.466614 
	C483.208801,854.872131 479.860687,851.728577 475.948029,849.612305 
	C471.234772,847.063110 470.881012,843.584778 471.438446,838.858948 
	C473.700104,819.684814 478.790680,801.356445 487.035461,783.912903 
	C487.844849,782.200562 489.214844,780.753174 490.756195,779.142273 
z"/>
<path fill="#08E08F" opacity="1.000000" stroke="none" 
	d="
M714.173584,898.173035 
	C718.138489,879.727600 722.182190,861.714905 725.800964,843.617249 
	C726.779114,838.725830 728.437500,835.100647 733.129517,832.797058 
	C737.280823,830.758789 741.066589,827.975952 744.579102,825.792114 
	C750.508118,831.332031 755.845703,837.047913 761.922180,841.823547 
	C770.704102,848.725464 772.798584,856.941711 771.333008,867.909424 
	C768.334778,890.346008 761.820557,911.390869 750.759521,931.077942 
	C749.461487,933.388184 736.946472,939.160156 734.561340,938.420044 
	C733.758240,938.170776 732.991577,937.236145 732.565186,936.426697 
	C726.441956,924.801819 720.359619,913.155151 714.347534,901.472473 
	C713.936646,900.674072 714.162903,899.547668 714.173584,898.173035 
z"/>
<path fill="#08E08F" opacity="1.000000" stroke="none" 
	d="
M525.127747,931.906006 
	C528.486145,938.643433 531.800537,944.988037 534.792358,951.481201 
	C535.427979,952.860779 535.479553,955.100037 534.783264,956.397217 
	C532.201965,961.205872 529.195557,965.786438 525.898010,971.191650 
	C491.481934,941.287659 473.874695,903.896606 470.937225,858.203369 
	C472.786621,859.378052 473.995483,860.076843 475.131775,860.878540 
	C484.379578,867.404175 493.701172,873.831360 502.785889,880.577332 
	C504.853271,882.112549 506.648621,884.545532 507.612183,886.948975 
	C513.550110,901.760254 519.213806,916.681458 525.127747,931.906006 
z"/>
<path fill="#08E08E" opacity="1.000000" stroke="none" 
	d="
M558.151489,714.111206 
	C562.300049,712.344421 566.102112,710.727539 570.171509,708.997009 
	C573.728943,715.484924 577.279114,721.656067 580.446716,728.017761 
	C581.014099,729.157227 580.565369,731.710999 579.631287,732.552795 
	C566.772522,744.142639 553.756714,755.558472 540.737366,766.968933 
	C539.911133,767.693054 538.741150,768.460266 537.725769,768.467529 
	C523.950439,768.566101 510.174103,768.533752 496.074066,768.533752 
	C511.263306,744.569336 531.965271,726.539551 558.151489,714.111206 
z"/>
<path fill="#08E08E" opacity="1.000000" stroke="none" 
	d="
M618.371216,994.664429 
	C620.527222,998.236755 622.479858,1001.506165 624.492310,1004.875610 
	C603.667297,1008.960388 558.217346,997.157715 533.734863,976.879883 
	C536.754883,971.862183 539.693115,966.691772 542.983093,961.755798 
	C543.648315,960.757812 545.751587,960.009338 547.009888,960.222168 
	C564.719238,963.217041 582.408936,966.334351 600.062561,969.640381 
	C601.711731,969.949158 603.538696,971.435181 604.507446,972.890808 
	C609.206238,979.950989 613.640137,987.187500 618.371216,994.664429 
z"/>
<path fill="#08E08E" opacity="1.000000" stroke="none" 
	d="
M668.795532,709.459595 
	C662.165161,717.416809 655.818298,725.131592 649.188477,732.594849 
	C647.995972,733.937195 645.515381,735.124023 643.835571,734.891846 
	C627.019592,732.567505 610.238892,729.979370 593.476013,727.292419 
	C592.105347,727.072693 590.450500,725.854065 589.760437,724.630066 
	C586.414856,718.696289 583.353638,712.602112 579.775330,705.769775 
	C584.388733,704.673096 588.629089,703.517456 592.929810,702.667358 
	C616.200134,698.067383 639.282471,698.824890 662.075867,705.525391 
	C664.520020,706.243958 666.686768,707.906433 668.795532,709.459595 
z"/>
<path fill="#07DF8E" opacity="1.000000" stroke="none" 
	d="
M758.938477,790.095947 
	C766.197449,806.639099 771.556274,828.230347 770.465454,837.684692 
	C763.945862,831.073853 757.727722,824.983459 751.843750,818.585754 
	C750.890076,817.548828 751.158875,815.126282 751.305542,813.381531 
	C752.180725,802.970032 753.185974,792.569458 754.301086,780.504761 
	C756.217407,784.452271 757.502930,787.100403 758.938477,790.095947 
z"/>
<path fill="#07CE8C" opacity="1.000000" stroke="none" 
	d="
M727.859436,958.874817 
	C730.946594,954.855774 732.012634,948.935486 738.658508,948.217957 
	C735.448181,951.867188 732.237793,955.516418 728.611267,959.201904 
	C728.195068,959.238220 727.859436,958.874817 727.859436,958.874817 
z"/>
<path fill="#07CE8C" opacity="1.000000" stroke="none" 
	d="
M728.360474,959.421997 
	C728.148315,959.777283 727.770752,959.948792 727.393127,960.120239 
	C727.381348,959.822021 727.369568,959.523804 727.608643,959.050171 
	C727.859436,958.874817 728.195068,959.238220 728.360474,959.421997 
z"/>
<path fill="#07CE8C" opacity="1.000000" stroke="none" 
	d="
M726.329956,962.227722 
	C726.329956,962.227722 726.216553,961.878174 726.216553,961.878174 
	C726.216553,961.878174 726.222290,962.078857 726.234375,962.155762 
	C726.246399,962.232727 726.329956,962.227722 726.329956,962.227722 
z"/>
<path fill="#07CE8C" opacity="1.000000" stroke="none" 
	d="
M726.234009,962.272705 
	C726.221558,962.312683 726.047424,962.082520 726.047424,962.082520 
	C726.047424,962.082520 726.187561,962.329834 726.258789,962.278809 
	C726.329956,962.227722 726.246399,962.232727 726.234009,962.272705 
z"/>
<path fill="#051625" opacity="1.000000" stroke="none" 
	d="
M863.643188,866.367310 
	C861.817383,865.484558 860.322449,864.778931 857.815430,863.595581 
	C856.544006,871.098022 855.352173,878.130981 854.101318,885.512207 
	C859.297913,886.624329 863.648071,887.607910 868.021484,888.474182 
	C871.335754,889.130615 873.622192,891.229309 872.368408,894.301392 
	C871.664307,896.026550 868.409973,897.629578 866.284485,897.655762 
	C862.412781,897.703430 858.526062,896.536133 853.698364,895.714417 
	C854.626709,903.630493 855.466675,910.793274 856.357178,918.386536 
	C861.241150,917.983643 865.371521,917.710815 869.485535,917.281799 
	C872.697876,916.946777 875.350708,917.646118 875.823486,921.224182 
	C876.321411,924.992371 873.919861,926.606140 870.493958,927.025940 
	C867.035095,927.449768 863.574707,927.860718 859.054688,928.405090 
	C861.416260,934.948181 863.631592,941.086060 866.095398,947.912231 
	C870.312866,946.296082 873.969727,944.902344 877.620605,943.493347 
	C880.671265,942.316040 883.695007,941.806091 885.155701,945.601746 
	C886.548584,949.221069 884.294006,951.231201 881.249695,952.517517 
	C878.078796,953.857483 874.861572,955.087708 871.108826,956.588196 
	C873.445984,960.526489 875.481323,963.913574 877.473328,967.325928 
	C879.197754,970.279907 879.420776,973.145020 876.145752,975.124268 
	C872.933533,977.065613 870.380249,975.746704 868.551147,972.817749 
	C866.269043,969.163513 864.091248,965.444092 861.639282,961.372498 
	C858.502502,963.405884 855.507080,965.404358 852.453796,967.310364 
	C849.663635,969.052124 846.563171,969.849060 844.510132,966.649536 
	C842.400208,963.361145 844.108215,960.747131 847.130920,958.702637 
	C856.439819,952.406311 856.391541,952.377136 852.680176,942.142395 
	C851.381287,938.560791 850.226074,934.927124 848.832947,930.807739 
	C845.527954,932.079712 842.357544,933.359375 839.143982,934.519531 
	C836.094849,935.620239 832.938049,935.950195 831.525879,932.293884 
	C830.059387,928.497314 832.431396,926.478455 835.758911,925.146790 
	C846.150085,920.987976 846.094482,920.963745 844.708008,910.075378 
	C844.122559,905.478455 843.764893,900.852600 843.258972,895.792419 
	C839.432190,896.249573 835.830811,896.680420 832.229309,897.109680 
	C828.997314,897.495056 826.429688,896.596924 826.041199,893.001770 
	C825.671875,889.584229 827.599609,887.885925 830.963013,887.367676 
	C835.054260,886.737183 840.395081,887.094055 842.800354,884.658508 
	C845.177795,882.251221 844.519043,876.886108 845.286743,872.836365 
	C845.999451,869.076721 846.836914,865.340698 847.746826,860.984558 
	C844.441956,860.570923 841.219116,860.160156 837.994141,859.765991 
	C834.471802,859.335571 831.648560,857.928833 832.113403,853.859558 
	C832.543274,850.096375 835.388794,849.315308 838.772888,849.509827 
	C842.884827,849.746155 847.987793,851.307800 850.853333,849.472290 
	C853.758667,847.611450 854.429749,842.294250 856.132385,838.514709 
	C857.770752,834.877991 859.477051,831.271790 861.426453,827.062988 
	C858.221436,825.846558 855.173035,824.724365 852.151672,823.533569 
	C848.689941,822.169128 846.166382,819.968750 847.836121,815.947571 
	C849.402161,812.175964 852.571594,812.450134 855.877686,813.662903 
	C859.888611,815.134216 864.403320,818.210938 867.867554,817.327759 
	C871.113342,816.500183 873.243652,811.386292 875.918335,808.203613 
	C878.269531,805.405823 880.694763,802.670288 883.495422,799.436096 
	C880.882324,797.478210 878.389221,795.670288 875.963013,793.776733 
	C873.112183,791.551758 870.912292,788.817444 873.645264,785.341309 
	C876.190308,782.104248 879.121948,783.534729 882.008362,785.480103 
	C886.064880,788.214111 890.351440,790.604675 894.450684,793.278625 
	C895.519714,793.975952 896.430664,795.071350 897.119568,796.168884 
	C900.103455,800.922791 902.941223,805.768250 905.906982,810.533875 
	C907.667358,813.362671 908.553589,816.294983 905.349915,818.439758 
	C902.234314,820.525696 899.691895,818.883728 897.733337,816.122864 
	C895.718201,813.282471 893.662537,810.470825 890.965881,806.733582 
	C885.874023,812.534790 881.130615,817.939026 875.998840,823.785706 
	C879.365723,826.857910 882.246765,829.529114 885.175720,832.146667 
	C887.708984,834.410583 889.115112,836.987183 886.413025,839.864258 
	C884.004700,842.428711 881.256836,841.653931 878.852112,839.598083 
	C876.330994,837.442749 873.917969,835.161072 870.600281,832.158569 
	C867.189209,839.618164 863.995056,846.603516 860.631531,853.959106 
	C864.864746,856.004700 868.569946,857.783020 872.264038,859.584045 
	C875.167847,860.999878 877.675232,862.909912 876.131226,866.527405 
	C874.451538,870.462708 871.190979,869.722961 868.051941,868.437134 
	C866.666626,867.869629 865.331726,867.179138 863.643188,866.367310 
z"/>
</svg>