<svg width="400" height="400" viewBox="0 0 680 400" xmlns="http://www.w3.org/2000/svg" role="img">
  <title>SportsCal robot head avatar</title>
  <desc>Bold robot head avatar in SportsCal navy and green colors</desc>

  <!-- Head -->
  <rect x="165" y="50" width="350" height="280" rx="56" fill="#1a2540"/>
  <rect x="165" y="50" width="350" height="280" rx="56" fill="none" stroke="#00d68f" stroke-width="16"/>

  <!-- Antenna base -->
  <rect x="325" y="16" width="30" height="42" rx="10" fill="#1a2540" stroke="#00d68f" stroke-width="6"/>
  <!-- Antenna ball -->
  <circle cx="340" cy="12" r="18" fill="#00d68f"/>
  <circle cx="340" cy="12" r="8" fill="#0f1629"/>

  <!-- Eyes -->
  <rect x="195" y="110" width="110" height="80" rx="16" fill="#00d68f"/>
  <circle cx="250" cy="150" r="24" fill="#0f1629"/>
  <circle cx="262" cy="138" r="8" fill="#00d68f" opacity="0.7"/>

  <rect x="375" y="110" width="110" height="80" rx="16" fill="#00d68f"/>
  <circle cx="430" cy="150" r="24" fill="#0f1629"/>
  <circle cx="442" cy="138" r="8" fill="#00d68f" opacity="0.7"/>

  <!-- Mouth -->
  <rect x="210" y="240" width="260" height="40" rx="20" fill="#00d68f"/>
  <circle cx="250" cy="260" r="10" fill="#0f1629"/>
  <circle cx="290" cy="260" r="10" fill="#0f1629"/>
  <circle cx="340" cy="260" r="10" fill="#0f1629"/>
  <circle cx="390" cy="260" r="10" fill="#0f1629"/>
  <circle cx="430" cy="260" r="10" fill="#0f1629"/>
</svg>
